<?xml version="1.0" encoding="UTF-8"?><svg id="Layer_2" xmlns="http://www.w3.org/2000/svg" viewBox="0 0 274.76 238.5"><defs><style>.cls-1{fill:#e2c2b7;stroke-width:0px;}</style></defs><g id="Layer_1-2"><path class="cls-1" d="m66.65,219.21c-.77.48-1.16.72-1.94,1.19.81.4,1.22.6,2.04.99-.1.06-.15.08-.24.14-.81-.39-1.22-.59-2.03-.99-.69.41-1.03.61-1.73,1.01-.14-.07-.21-.11-.34-.18.7-.4,1.04-.6,1.73-1.01-.93-.47-1.39-.7-2.31-1.19-.7.39-1.05.59-1.75.98-.14-.07-.2-.11-.34-.18.71-.38,1.06-.58,1.75-.97-.83-.44-1.24-.66-2.06-1.11.09-.05.14-.08.24-.13.82.45,1.23.67,2.06,1.11.79-.45,1.19-.68,1.97-1.14-.81-.42-1.22-.63-2.03-1.07.09-.06.13-.09.22-.14.81.44,1.22.65,2.04,1.07.7-.41,1.04-.61,1.73-1.03.13.07.2.1.33.17-.69.42-1.03.63-1.73,1.04.91.46,1.36.69,2.28,1.14.69-.42,1.03-.64,1.71-1.07.13.06.2.1.33.16-.68.43-1.02.65-1.7,1.07.8.39,1.21.58,2.01.96-.08.06-.13.09-.21.16-.81-.38-1.22-.57-2.03-.97Zm-.34-.16c-.92-.45-1.37-.68-2.28-1.14-.78.46-1.17.69-1.97,1.15.92.48,1.38.72,2.31,1.18.78-.47,1.17-.71,1.94-1.19Z"/><path class="cls-1" d="m74.86,226.69c-.32.34-.63.74-.95,1.21-.67-.29-1.8-.76-3.39-1.45-1.89-.82-3.31-1.46-4.27-1.88.07-.07.1-.1.17-.17.36.15.63.24.82.28.19.04.37.02.53-.05.16-.07.35-.21.57-.44,1.72-1.73,2.57-2.6,4.23-4.37.18-.19.3-.34.35-.46.06-.15.04-.28-.07-.38-.11-.11-.34-.25-.69-.42.07-.07.1-.11.16-.18.38.19.97.47,1.77.81.75.32,1.35.56,1.79.71-.06.07-.09.11-.16.18-.35-.13-.62-.21-.8-.23-.18-.03-.35,0-.5.08-.15.08-.33.23-.54.46-1.64,1.78-2.48,2.67-4.19,4.41-.18.18-.3.33-.36.46-.07.15-.04.28.09.39.13.11.38.25.75.41.43.19.65.28,1.08.46.61.26,1.13.4,1.55.43.42.03.81-.05,1.17-.22.36-.18.78-.48,1.25-.9.14.05.2.08.34.13-.12.11-.36.35-.72.73Z"/><path class="cls-1" d="m79.79,224.41c.07-.18,0-.31-.22-.39-.22-.08-.45-.07-.69.04-.24.11-.53.32-.87.63-.14.13-.21.19-.36.32-.11-.04-.17-.06-.28-.11.27-.26.41-.38.68-.64.35-.34.72-.53,1.1-.57.38-.04.75,0,1.11.13.63.23.87.57.71,1.03-.09.24-.26.49-.53.75-1.1,1.09-1.65,1.63-2.78,2.7-.14.14-.23.26-.27.36-.07.18.02.31.26.4.21.08.44.07.68-.03.24-.1.54-.31.89-.64.14-.13.21-.2.35-.33.11.04.17.06.28.1-.27.26-.4.39-.67.65-.34.33-.71.52-1.1.57-.39.05-.78,0-1.16-.13-.7-.26-.97-.62-.8-1.06.08-.21.28-.46.59-.75,1.13-1.06,1.69-1.6,2.8-2.68.14-.15.23-.26.26-.36Zm1.7-2.7c.28-.09.55-.09.82,0,.22.08.37.19.47.35.09.16.11.31.06.47-.08.22-.25.37-.53.46-.28.09-.56.08-.83-.01-.21-.08-.36-.19-.46-.34-.1-.15-.11-.31-.06-.47.08-.22.26-.37.53-.46Z"/><path class="cls-1" d="m89.46,224.01c.2.22.27.44.2.67-.06.19-.2.34-.44.44-.24.1-.49.11-.76.03-.18-.06-.32-.13-.4-.23-.09-.1-.1-.21-.06-.32.06-.17.17-.31.36-.39.19-.08.42-.12.68-.1.02-.07-.03-.15-.14-.24-.11-.09-.26-.17-.44-.22-.29-.09-.59-.07-.92.03-.24.08-.48.25-.71.51-.23.26-.54.66-.93,1.19-.12.17-.19.25-.31.42,0,0,0,0,0,.01.69.22,1.03.33,1.72.54-.06.08-.09.12-.16.19-.69-.21-1.04-.32-1.73-.54-1.99,2.6-3.01,3.88-5.1,6.42-.56-.17-1.03-.28-1.43-.33,2.16-2.57,3.22-3.87,5.26-6.5-.52-.17-.79-.26-1.31-.44.06-.08.1-.11.16-.19.52.18.78.27,1.31.44,0,0,0,0,0-.01.41-.53.79-.94,1.14-1.25.35-.3.72-.52,1.11-.66.27-.1.59-.15.94-.15.35,0,.69.05,1.03.15.42.13.73.3.93.52Z"/><path class="cls-1" d="m90.81,229.69c-1.03.2-2.18.28-3.43.21-.22.34-.38.68-.48,1.02-.21.71.03,1.17.74,1.37.87.25,1.77.1,2.66-.45.09.06.13.09.22.16-.43.32-.97.55-1.61.69-.64.14-1.27.11-1.88-.07-.63-.19-1.09-.47-1.36-.84-.28-.37-.33-.81-.18-1.32.17-.56.59-1.12,1.25-1.68.66-.57,1.43-.99,2.32-1.26.89-.28,1.77-.3,2.64-.06.31.08.56.22.73.4.17.18.23.39.17.63-.16.6-.75,1.01-1.78,1.22Zm-.67-2c-.47.17-.94.43-1.41.79-.47.36-.88.77-1.21,1.23,1.02.04,1.77,0,2.24-.12.43-.11.79-.29,1.08-.55.29-.25.48-.56.58-.91.05-.2.07-.34.05-.42s-.07-.13-.15-.15c-.31-.09-.7-.04-1.17.12Z"/><path class="cls-1" d="m94.01,233.64c-.04.16.01.28.15.37.14.09.4.19.8.3-.05.08-.07.13-.11.21-.47-.13-1.12-.3-1.95-.51-.86-.21-1.52-.37-1.96-.47.05-.08.08-.12.14-.2.36.08.64.12.83.12.19,0,.36-.05.5-.15.14-.1.3-.28.47-.53,1.37-2.01,2.03-3.03,3.34-5.07.14-.24.22-.41.24-.51.04-.17,0-.29-.14-.38-.13-.09-.38-.18-.74-.28.05-.08.08-.12.13-.21.39.12,1.01.28,1.85.47.78.18,1.41.3,1.88.38-.05.08-.07.13-.12.21-.36-.06-.64-.09-.82-.08-.18,0-.34.06-.47.17-.13.1-.28.29-.44.55-1.28,2.05-1.94,3.07-3.28,5.1-.16.26-.25.43-.27.52Z"/><path class="cls-1" d="m97.84,235.08c.09.04.23.07.41.11.47.1.86.07,1.19-.07.33-.15.53-.4.6-.77.05-.24.03-.49-.04-.74-.08-.25-.23-.56-.45-.91-.27-.41-.47-.75-.58-1.01-.11-.25-.13-.53-.07-.83.06-.31.23-.56.49-.76.26-.2.58-.33.96-.4s.78-.06,1.2.03c.52.1.94.25,1.26.47.32.21.45.5.39.86-.02.14-.11.26-.25.37-.14.11-.32.14-.56.1-.17-.03-.31-.1-.41-.22-.1-.11-.14-.24-.11-.37.05-.24.23-.47.56-.68-.17-.13-.41-.22-.72-.28-.38-.07-.71-.04-.99.11s-.46.38-.52.71c-.04.2-.03.37.03.53.06.16.19.4.38.71.09.14.13.21.22.35.24.41.41.75.51,1.02.1.28.13.55.08.81-.06.34-.24.62-.54.85-.3.23-.66.37-1.1.44-.44.07-.9.06-1.38-.04-.59-.12-1.07-.32-1.43-.59-.36-.27-.5-.6-.42-.97.03-.13.1-.23.22-.32.12-.08.28-.1.49-.06.22.05.38.15.46.31.08.16.1.34.06.54-.03.13-.1.32-.23.56.09.06.19.11.29.14Z"/><path class="cls-1" d="m113.45,229.41c-.32.52-.55.97-.71,1.29-.13.26-.24.49-.29.69-.14-.02-.21-.02-.35-.04.14-.43.22-.73.24-.9.04-.33-.05-.57-.25-.72-.2-.16-.59-.27-1.15-.34-.43-.05-.65-.08-1.08-.14-.36-.05-.62-.06-.8-.04-.18.02-.33.08-.46.2-.13.11-.26.31-.4.58-.53,1.02-.8,1.53-1.35,2.55.4.06.6.09,1,.15.36.05.66.03.91-.06.25-.09.45-.22.61-.36.15-.15.31-.35.48-.59.04-.07.09-.15.15-.22.14.02.21.03.35.04-.28.48-.51.91-.71,1.29-.05.1-.08.15-.13.25-.2.39-.43.9-.71,1.56-.14-.02-.21-.03-.35-.05.03-.09.05-.13.08-.22.02-.05.04-.13.08-.24.04-.11.06-.21.07-.29.03-.23-.02-.42-.16-.57-.14-.15-.4-.25-.79-.31-.4-.06-.6-.09-1.01-.15-.56,1.03-.84,1.55-1.41,2.58-.13.22-.21.4-.23.54-.03.16.03.28.18.35.15.07.42.14.82.2.46.07.68.1,1.14.17.65.09,1.17.1,1.57.03.4-.07.75-.23,1.04-.48.29-.25.6-.62.94-1.13.14.02.21.03.36.04-.14.21-.28.48-.44.78-.21.4-.42.88-.6,1.41-.71-.11-1.91-.27-3.59-.53-2-.3-3.51-.55-4.52-.71.05-.09.07-.13.12-.21.38.05.66.07.85.06.19-.01.35-.08.49-.18.14-.11.28-.3.43-.57,1.21-2.11,1.79-3.18,2.94-5.31.13-.23.2-.41.22-.54.02-.16-.03-.28-.17-.35-.14-.08-.39-.15-.76-.23.04-.09.07-.13.11-.22.96.18,2.39.41,4.28.65,1.38.18,2.37.27,2.95.31Z"/><path class="cls-1" d="m119.36,236.2c.12,0,.18.01.3.02-.18.33-.26.49-.44.82-.24.41-.52.7-.86.86-.34.17-.68.24-1.03.21-.2-.01-.37-.05-.51-.12-.14-.07-.26-.15-.33-.25-.09-.12-.12-.26-.11-.41.01-.16.06-.34.15-.53.09-.19.15-.32.17-.37.14-.32.21-.48.34-.81-.56.82-1.12,1.4-1.67,1.74-.55.34-1.11.48-1.68.43-.48-.05-.84-.21-1.06-.49-.23-.28-.31-.63-.27-1.05.07-.62.37-1.28.89-2,.52-.72,1.15-1.31,1.9-1.78.75-.47,1.47-.68,2.19-.62.27.02.49.11.65.28.16.17.25.39.26.67.12-.28.18-.42.29-.7.55.02,1.02,0,1.4-.07-.87,1.99-1.32,2.98-2.25,4.96-.01.03-.04.09-.08.17-.04.09-.06.17-.06.24-.01.19.09.3.33.31.46.03.89-.33,1.28-1.09.09-.17.13-.25.21-.41Zm-4.09.88c.44-.29.87-.7,1.3-1.21.43-.52.79-1.08,1.08-1.68.13-.32.2-.48.33-.8.01-.06.03-.14.03-.25.02-.31-.03-.57-.17-.76-.13-.19-.33-.3-.59-.32-.43-.03-.91.18-1.44.65-.53.47-1,1.06-1.4,1.77-.4.71-.64,1.4-.71,2.06-.03.31,0,.54.07.69.08.15.21.23.39.25.29.03.66-.1,1.1-.4Z"/><path class="cls-1" d="m121.9,237.29c.29-.08.58-.11.86-.1.17,0,.32.03.46.06.14.04.32.09.55.16.23.07.42.12.59.15.16.03.33.05.51.06.27,0,.49-.04.64-.13.15-.09.23-.24.23-.43,0-.2-.11-.38-.33-.53-.23-.15-.52-.26-.88-.32.04-.07.06-.1.1-.17.48.1.86.24,1.11.43s.38.43.38.72c0,.34-.16.62-.46.85-.3.23-.77.34-1.39.32-.24,0-.46-.03-.65-.08-.19-.05-.41-.12-.63-.2-.26-.09-.49-.17-.69-.22-.2-.05-.44-.08-.71-.09-.29-.01-.55,0-.78.06-.22.05-.44.15-.66.3-.17,0-.26-.01-.43-.02,2.97-2.02,4.4-3.08,7.16-5.24-.46.22-.83.37-1.11.45-.28.08-.56.12-.83.12-.16,0-.31-.02-.45-.06-.14-.03-.32-.09-.54-.15-.22-.07-.41-.12-.57-.16-.16-.04-.32-.06-.49-.06-.26,0-.47.03-.62.12-.15.09-.23.23-.24.42,0,.2.1.38.32.54.22.16.51.27.86.34-.04.07-.06.1-.1.17-.48-.1-.84-.25-1.09-.45-.25-.19-.37-.44-.35-.73.02-.34.17-.62.47-.84.3-.22.74-.32,1.34-.3.23,0,.44.04.63.08.19.05.39.11.61.19.25.09.47.16.67.2.2.05.43.07.69.07.28,0,.53-.02.74-.08.21-.06.42-.17.62-.33.16,0,.25,0,.41,0-2.73,2.19-4.16,3.25-7.1,5.29.48-.2.87-.34,1.16-.41Z"/><path class="cls-1" d="m129.89,232.95c0-.19-.12-.29-.34-.28-.23,0-.44.1-.62.28s-.37.49-.57.9c-.09.17-.13.26-.21.43-.12,0-.17,0-.29,0,.16-.34.24-.5.4-.84.2-.44.47-.75.81-.93.34-.18.69-.27,1.06-.28.67-.01,1,.22,1.01.71,0,.25-.07.55-.22.89-.63,1.41-.95,2.11-1.6,3.52-.08.19-.12.33-.12.43,0,.19.13.29.38.28.22,0,.42-.09.61-.27.19-.18.39-.49.6-.92.08-.17.13-.26.21-.43.12,0,.18,0,.3,0-.15.34-.23.51-.39.85-.2.43-.47.74-.81.92-.34.19-.71.29-1.11.29-.74,0-1.11-.23-1.11-.7,0-.22.09-.53.28-.91.67-1.4.99-2.1,1.63-3.5.08-.19.12-.33.12-.43Zm.62-3.13c.22-.19.47-.28.76-.29.23,0,.41.05.55.16.14.11.22.25.22.42,0,.23-.1.44-.33.62s-.48.28-.77.28c-.22,0-.4-.05-.54-.16-.14-.11-.21-.25-.22-.42,0-.23.1-.44.32-.62Z"/><path class="cls-1" d="m141.64,233.92c.06.62-.02,1.24-.23,1.86-.22.62-.6,1.16-1.15,1.6-.55.44-1.26.7-2.12.76-.83.06-1.4-.14-1.71-.59-.69.51-1.4.78-2.14.81-.67.03-1.17-.08-1.5-.32-.32-.24-.49-.55-.5-.92-.02-.65.4-1.37,1.23-2.17.83-.8,1.84-1.57,3-2.32-.03,0-.14.07-.34.18-.27.15-.49.25-.65.32-.16.07-.31.1-.45.11-.12,0-.23-.01-.33-.05-.1-.04-.16-.07-.18-.07-.19-.08-.34-.12-.46-.12-.16,0-.3.07-.4.17s-.21.3-.31.57c-.07.17-.1.26-.17.43-.12,0-.18,0-.29.01.13-.34.19-.51.32-.85.17-.44.36-.75.59-.94.23-.19.49-.29.77-.3.13,0,.24,0,.34.04s.21.08.36.15c.15.07.28.12.38.15.1.03.21.05.34.04.24-.01.46-.06.65-.13.19-.07.37-.17.54-.31.08-.09.12-.14.2-.23.13.04.19.06.32.09-1.17.88-2.13,1.73-2.86,2.57-.73.84-1.09,1.68-1.05,2.53.02.37.1.63.25.79.15.15.37.23.66.21.26-.01.53-.07.8-.18.27-.11.54-.26.79-.46-.09-.21-.14-.43-.15-.67-.02-.43.08-.86.31-1.3.23-.44.51-.8.84-1.09.34-.29.65-.45.93-.47.2-.01.35.06.44.21.09.15.14.34.16.55.03.41-.09.84-.35,1.29-.27.44-.69.85-1.26,1.23.27.49.71.72,1.31.67.67-.05,1.23-.28,1.66-.7.43-.41.74-.91.91-1.48.18-.57.24-1.12.19-1.64-.03-.31-.1-.69-.18-.75-.15-.1-.71-.1-1.03-.25-.31-.15-.48-.36-.51-.64-.02-.18.04-.33.15-.43.12-.1.26-.16.43-.18.28-.02.52.08.73.3.2.23.37.56.52.95.09.24.18.56.22.95Zm-4.02.51c-.19.21-.35.48-.47.8-.12.32-.18.64-.16.95.02.28.07.52.16.73.45-.31.8-.68,1.04-1.09.24-.41.34-.82.32-1.21-.03-.36-.14-.53-.33-.52-.17.01-.36.13-.55.34Z"/><path class="cls-1" d="m144.87,231.94c-.02-.19-.15-.27-.37-.25-.23.03-.43.14-.59.35-.16.2-.32.52-.48.96-.07.18-.1.27-.17.45-.12.01-.17.02-.29.03.12-.35.18-.53.31-.88.15-.46.39-.79.71-1.01.32-.21.66-.34,1.03-.39.66-.08,1.02.11,1.09.59.03.25,0,.55-.13.91-.47,1.47-.72,2.2-1.22,3.67-.06.19-.09.34-.07.44.02.19.16.27.41.24.22-.03.41-.14.58-.34.17-.2.33-.53.49-.98.07-.18.1-.27.16-.45.12-.02.18-.02.29-.04-.12.35-.18.53-.3.89-.15.45-.39.78-.71,1.01-.32.22-.68.36-1.08.41-.73.08-1.13-.11-1.18-.58-.02-.22.04-.53.18-.93.51-1.46.76-2.19,1.24-3.66.06-.19.08-.34.07-.44Zm.28-3.18c.2-.21.44-.33.72-.37.23-.03.42,0,.57.1.15.1.24.23.26.39.03.23-.05.45-.26.65-.2.21-.45.33-.74.37-.22.03-.4,0-.56-.1-.15-.09-.24-.22-.26-.39-.03-.23.06-.45.26-.65Z"/><path class="cls-1" d="m149.41,235.75c-.02.1-.02.18,0,.26.02.15.1.26.24.31.14.06.3.07.5.04.26-.04.49-.16.69-.36.2-.2.37-.53.51-1,.06-.19.09-.29.14-.48.12-.02.18-.03.29-.05-.08.31-.12.46-.2.77-.14.51-.37.88-.69,1.13-.32.25-.73.41-1.25.49-.47.07-.83.04-1.09-.1-.25-.13-.4-.35-.44-.65-.03-.2-.01-.42.05-.67.42-1.77.62-2.66,1-4.43-.54.08-.81.12-1.35.2.02-.1.03-.14.04-.24.54-.08.81-.12,1.35-.2.16-.73.23-1.1.38-1.83.53-.1.97-.23,1.31-.38-.15.8-.23,1.2-.39,2,.79-.13,1.19-.2,1.98-.34,0,.09,0,.14,0,.24-.81.14-1.21.21-2.03.35-.39,1.97-.6,2.96-1.04,4.93Z"/><path class="cls-1" d="m160.05,232.83c-.08.36-.12.54-.2.91-.19.86-.73,1.38-1.62,1.57-.73.15-1.14,0-1.23-.47-.05-.23-.02-.54.07-.93.32-1.41.47-2.12.76-3.53.05-.23.06-.43.03-.6-.06-.26-.24-.35-.56-.28-.37.08-.73.34-1.08.78-.35.44-.68,1.02-.99,1.73-.31.72-.58,1.53-.8,2.44-.12.6-.18.91-.3,1.51-.54.1-.81.15-1.36.24.71-3.24,1.03-4.87,1.61-8.11.02-.14.03-.24.01-.32-.03-.15-.13-.25-.3-.29-.17-.04-.44-.03-.8.04.02-.1.03-.15.04-.25,1.01-.2,1.86-.53,2.54-.99-.37,2.41-.58,3.62-1.03,6.04.37-1.03.78-1.79,1.23-2.31.46-.51,1-.84,1.63-.98.8-.18,1.27.02,1.4.58.05.24.04.54-.03.89-.29,1.44-.44,2.17-.75,3.61-.04.2-.05.35-.03.45.04.18.18.24.43.19.21-.04.39-.17.54-.38.15-.21.28-.55.39-1.03.04-.18.06-.28.1-.46.12-.03.17-.04.29-.07Z"/><path class="cls-1" d="m163.51,233.24c.04.16.14.24.3.26.16.01.44-.02.85-.11,0,.1,0,.14,0,.24-.48.1-1.13.26-1.97.46-.86.21-1.52.38-1.96.5.01-.1.02-.15.03-.24.36-.1.62-.19.79-.28.17-.09.29-.21.37-.37s.13-.39.17-.69c.27-2.42.38-3.63.58-6.04.01-.27,0-.46-.02-.57-.04-.16-.14-.25-.3-.27-.15-.02-.42.02-.79.1,0-.1.01-.15.02-.24.4-.08,1.02-.22,1.85-.45.77-.21,1.39-.39,1.85-.54,0,.1,0,.15,0,.24-.35.12-.61.22-.77.31-.16.09-.27.21-.34.37-.07.15-.11.39-.13.69-.18,2.42-.28,3.62-.52,6.05-.02.31-.02.5,0,.58Zm5.9-9.47c.17.07.29.19.35.36.05.16.03.35-.05.57-.09.22-.27.37-.55.46-.19.06-.35.06-.47,0-.12-.06-.2-.15-.23-.27-.03-.1-.02-.23.02-.39.05-.15.12-.3.23-.44-.02,0-.03,0-.04.01-.19.07-.35.17-.47.31-.13.16-.22.35-.28.57-.05.22-.11.54-.18.96-.07.49-.16.91-.27,1.25-.1.34-.29.66-.55.98-.26.31-.64.56-1.12.75.38-.04.7-.05.95,0,.25.04.47.16.66.37s.34.55.46,1.01c.12.51.18.76.3,1.27.05.2.11.33.19.41.08.08.23.08.43.02.25-.07.45-.21.59-.4.14-.19.23-.46.28-.8.03-.26.05-.38.08-.64.12-.04.18-.06.3-.09-.05.39-.08.58-.13.97-.07.46-.23.84-.48,1.12-.25.28-.59.49-1.03.62-.94.27-1.49-.04-1.65-.92-.1-.51-.15-.77-.24-1.28-.02-.1-.05-.23-.1-.4-.1-.34-.21-.58-.35-.73-.14-.14-.32-.25-.53-.31-.35.17-.63.28-.82.33-.31.08-.48.05-.52-.1-.04-.15.09-.26.39-.34.22-.06.53-.1.94-.14.49-.18.87-.43,1.13-.73.26-.3.44-.62.53-.94.09-.32.18-.73.25-1.23.06-.43.12-.77.19-1.01.06-.24.17-.45.33-.64.23-.25.49-.43.79-.52.29-.09.52-.1.69-.04Z"/><path class="cls-1" d="m175.01,226.59c-.74.76-1.64,1.47-2.71,2.13.01.4.07.77.18,1.12.23.7.69.94,1.39.71.87-.29,1.52-.92,1.94-1.89.11,0,.16,0,.27,0-.18.51-.49,1.01-.94,1.48-.45.48-.98.82-1.59,1.02-.63.21-1.16.23-1.6.08-.44-.15-.74-.48-.9-.99-.18-.56-.15-1.25.07-2.09.22-.84.62-1.62,1.19-2.36.58-.74,1.29-1.25,2.15-1.56.31-.11.59-.14.83-.09.25.05.41.19.5.42.21.58-.04,1.26-.78,2.02Zm-1.69-1.26c-.29.4-.53.89-.71,1.45-.19.57-.29,1.13-.3,1.7.86-.55,1.46-1.01,1.78-1.38.29-.33.48-.69.58-1.06.09-.37.08-.73-.04-1.08-.07-.2-.13-.32-.2-.37-.06-.05-.13-.06-.21-.04-.31.11-.61.37-.9.77Z"/><path class="cls-1" d="m182.05,221.5c.2.05.34.16.41.34.09.21.07.43-.07.67-.14.23-.34.41-.61.52-.17.07-.33.1-.46.07-.13-.02-.22-.1-.27-.22-.07-.16-.07-.33,0-.49.07-.16.19-.31.36-.46-.05-.01-.11,0-.17.02-.51.21-.9.86-1.18,1.93-.28,1.08-.43,2.4-.46,3.99.01.39.02.58.03.96-.52.2-.78.3-1.31.49.04-2.12.04-3.18.02-5.29,0-.18-.01-.34-.06-.46-.06-.16-.2-.21-.4-.13-.21.08-.37.24-.49.48-.11.24-.19.59-.23,1.05-.02.19-.02.28-.04.47-.11.04-.17.06-.28.1.03-.37.04-.55.07-.92.07-.87.51-1.46,1.32-1.77.55-.21.9-.11,1.06.3.08.2.13.52.15.96.03.61.04.92.06,1.53.12-1.24.32-2.17.6-2.78s.7-1.04,1.26-1.27c.26-.11.48-.14.68-.09Z"/><path class="cls-1" d="m187.13,221.67c-.67.83-1.51,1.62-2.53,2.38.05.4.14.76.28,1.09.29.68.78.87,1.46.57.84-.37,1.44-1.06,1.78-2.07.11,0,.16-.01.27-.02-.13.53-.4,1.05-.81,1.57-.41.52-.91.91-1.5,1.17-.61.27-1.15.34-1.6.24-.45-.11-.78-.41-.99-.9-.23-.54-.26-1.24-.12-2.09.14-.86.47-1.68.98-2.47.51-.79,1.18-1.37,2.01-1.76.3-.14.58-.2.83-.17.25.03.43.15.54.37.27.56.07,1.26-.6,2.09Zm-1.81-1.09c-.25.43-.45.94-.59,1.52-.14.58-.19,1.16-.15,1.72.82-.63,1.38-1.15,1.66-1.54.26-.36.42-.73.48-1.11.06-.38.01-.74-.14-1.07-.09-.19-.16-.31-.23-.35-.07-.05-.14-.05-.21-.02-.3.14-.58.42-.83.85Z"/><path class="cls-1" d="m196.95,218.76c.02.37.03.56.05.93.04.88-.35,1.54-1.17,1.98-.43.23-.79.29-1.06.18-.12-.04-.22-.13-.29-.28-.1-.18-.15-.49-.17-.92-.07-1.45-.11-2.18-.2-3.62-.03-.27-.07-.46-.13-.57-.13-.24-.34-.28-.63-.12-.35.19-.65.58-.9,1.2-.25.61-.43,1.36-.54,2.25-.11.89-.12,1.82-.05,2.79.05.35.07.53.11.88-.51.25-.76.37-1.27.62-.15-2.12-.25-3.17-.45-5.28-.02-.21-.05-.35-.09-.43-.09-.17-.23-.21-.43-.11s-.35.27-.43.5c-.08.23-.13.59-.13,1.09,0,.19,0,.28,0,.47-.11.05-.16.08-.27.13,0-.37,0-.56-.01-.93,0-.88.37-1.5,1.14-1.88.3-.15.53-.2.71-.16.18.04.32.16.41.35.09.18.17.5.23.93.09.66.13.99.21,1.66.09-1.34.28-2.36.6-3.07.32-.71.8-1.23,1.44-1.58.74-.4,1.25-.35,1.53.16.12.22.19.52.21.88.11,1.48.15,2.21.23,3.7.01.2.04.35.09.45.09.16.24.18.47.06.19-.1.33-.28.43-.52s.13-.61.11-1.1c0-.19-.01-.28-.02-.47.11-.06.16-.09.27-.15Z"/><path class="cls-1" d="m107.29,126.57c0-1.32-.43-2.6-1.23-3.66h0c-.6-.8-1.87-.37-1.87.63-.01,10.96,0,34.26.02,46.03,0,.58-.47,1.04-1.04,1.04h0c-.58,0-1.04-.46-1.04-1.04-.02-13.02-.02-37.12-.01-49.5,0-1.15-.47-2.24-1.3-3.03l-.04-.04c-.66-.63-1.76-.16-1.76.75,0,12.35,0,37.96.01,51.82,0,.57-.46,1.04-1.04,1.04h0c-.57,0-1.04-.46-1.04-1.04,0-14.31,0-39.51,0-54.17,0-1.1-.53-2.14-1.43-2.79-.01,0-.02-.02-.03-.02-.69-.5-1.65,0-1.65.84,0,14.83,0,41.17,0,56.13,0,.58-.47,1.04-1.04,1.04h-17.07c-.58,0-1.04.47-1.04,1.04v1.02c0,.58.47,1.04,1.04,1.04h49.54c.58,0,1.04-.47,1.04-1.04v-1.02c0-.58-.47-1.04-1.04-1.04h-16.9c-.57,0-1.04-.46-1.04-1.04-.03-10.68-.03-32.54-.03-43Z"/><rect class="cls-1" x="74.67" y="175.38" width="51.62" height="3.11" rx="1.04" ry="1.04"/><rect class="cls-1" x="74.67" y="180.29" width="51.62" height="3.11" rx="1.04" ry="1.04"/><rect class="cls-1" x="74.67" y="44.08" width="51.62" height="3.11" rx="1.04" ry="1.04"/><rect class="cls-1" x="74.67" y="39.17" width="51.62" height="3.11" rx="1.04" ry="1.04"/><path class="cls-1" d="m75.72,52.02h17.07c.58,0,1.04.47,1.04,1.04,0,5.7,0,33.11,0,38.97,0,.57.47,1.04,1.04,1.04h1.02c.57,0,1.04-.47,1.04-1.04,0-5.87,0-33.27,0-38.97,0-.57.47-1.04,1.04-1.04h0c.58,0,1.04.47,1.04,1.05-.02,5.84-.02,34.49,0,40.32,0,.57.47,1.04,1.04,1.04h1.02c.58,0,1.04-.47,1.04-1.05-.02-5.83-.02-34.49,0-40.32,0-.57.47-1.04,1.04-1.04h0c.58,0,1.04.47,1.04,1.04-.03,5.71-.03,36.16,0,41.83,0,.57.47,1.03,1.04,1.03h1.02c.58,0,1.04-.47,1.04-1.04-.03-5.67-.03-36.13,0-41.83,0-.57.47-1.03,1.04-1.03h16.9c.58,0,1.04-.47,1.04-1.04v-1.02c0-.58-.47-1.04-1.04-1.04h-49.54c-.58,0-1.04.47-1.04,1.04v1.02c0,.58.47,1.04,1.04,1.04Z"/><path class="cls-1" d="m207.7,129.63c-3.15-3.19-7.72-4.88-13.23-4.92h-.02s-8.81-.26-9.79-.26c-6.61.04-11.48,2-14.47,5.81-4.81,6.14-2.81,14.73-2.73,15.1l.22.93c.04.15.17.26.33.26h15.8c.22,0,.38-.2.33-.41l-.36-1.5c-.12-.49-2.64-11.61,6.28-15.61.11-.05.23-.04.33.02,3.08,1.96,4.96,5.87,5.2,10.89.38,7.93-5.85,23.49-17.22,23.24-6.47-.14-12.89-4.86-19.55-10.19-4-3.2-10.02-9.78-16.98-17.39-6.78-7.41-14.41-15.75-21.78-22.68-.12-.11-.14-.29-.04-.43,6.79-9.4,12.62-20.85,17.78-31.01,3.63-7.15,6.77-13.33,9.41-17.07,1.79-2.53,3.66-4.53,5.59-5.95.13-.09.3-.09.42.01,1.43,1.21,2.54,2.74,3.02,4.19.85,2.58.61,6.75-1.81,10.22-2.51,3.6-6.85,5.74-12.6,6.24-.85.07-1.5.78-1.48,1.62h0c.02.87.73,1.57,1.6,1.57h11.78c9.49-.34,14.24-4.35,16.54-7.66,3.24-4.65,3.22-9.89,2.21-12.96-1.32-4.04-6.11-8.66-12.22-8.89h-13.99c-4.01.06-9.43,2.05-14.91,9.81-2.77,3.93-5.96,10.19-9.65,17.45-3.74,7.35-7.93,15.62-12.59,23.18-.1.17-.33.21-.49.1-5.19-3.68-9.46-5.53-13.01-5.66-1.59-.06-12.71.02-13.3,0-7.95-.29-14.42,2.75-17.77,8.34-2.94,4.92-2.89,10.97-.11,15.95,7.3,13.07,26.62,6,26.62,6,.3-.11.29-.53,0-.63l-3.27-1.12c-6.61-2.26-9.01-7.68-9.04-12-.03-3.71,1.64-8.24,6.19-11.01,1.29-.78,2.9-.82,4.23-.1,3.94,2.14,8.64,5.75,14.27,10.96.42.38.83.77,1.25,1.16.82.77,1.66,1.58,2.49,2.39,1.03,1.01,2.14,2.11,3.48,3.46,5.34,5.41,10.78,11.36,15.58,16.6,7.06,7.72,13.16,14.38,17.35,17.74,9.68,7.74,19.16,11.65,28.23,11.65,1.17,0,10.47-.21,10.47-.21,11.13-.16,18.12-4.61,22.04-8.35,5-4.77,7.86-11.08,7.86-17.31,0-4.54-1.59-8.65-4.48-11.57Zm-34.27,13.81h-2.85c-.17,0-.31-.13-.33-.29-.29-2.43-.44-7.34,2.4-10.97,1.14-1.45,2.66-2.56,4.55-3.33.33-.14.61.28.37.55-.46.5-.89,1.03-1.27,1.61-2.81,4.17-2.82,9.22-2.52,12.08.02.2-.14.37-.33.37Zm7.1-5.99c-.33,2.16-.26,4.17-.12,5.62.02.2-.14.37-.33.37h-2.84c-.17,0-.31-.13-.33-.29-.28-2.3-.43-6.87,1.97-10.43,1.19-1.76,2.9-3.09,5.09-3.95.33-.13.61.29.36.55-2,2.1-3.29,4.84-3.8,8.15Zm-113.4-17.07c-2.3-3.94-2.26-8.84.1-12.78.95-1.59,2.78-3.81,6.03-5.28.34-.15.64.28.38.54-3.2,3.18-4.68,7.38-4.65,11.32.03,3.86,1.54,7.94,4.7,11.03.27.26-.02.7-.37.55-2.67-1.15-4.77-2.96-6.18-5.37Zm8.5-6.16c.04,4.25,1.7,8.06,4.57,10.9.26.26-.04.69-.38.54-5.58-2.45-7.71-7.41-7.74-11.52-.05-5.88,3.52-9.86,7.94-11.86.34-.15.65.28.38.54-3.05,2.98-4.81,7.01-4.78,11.39Zm93.9-51.58c.85,2.58.61,6.75-1.81,10.22-1.37,1.96-3.28,3.49-5.66,4.55-.34.15-.64-.28-.37-.55.78-.76,1.42-1.53,1.93-2.27,3.24-4.65,3.22-9.89,2.21-12.96-.47-1.43-1.44-3.06-2.85-4.53-.25-.26.03-.68.36-.54,3.21,1.26,5.5,3.99,6.18,6.07Zm-6.65-.03c.85,2.58.62,6.74-1.8,10.21-1.34,1.92-3.21,3.43-5.53,4.49-.34.16-.65-.28-.38-.54.72-.72,1.32-1.44,1.8-2.14,3.24-4.65,3.22-9.89,2.21-12.96-.53-1.61-1.57-3.23-2.93-4.63-.17-.18-.11-.47.12-.55,0,0,0,0,0,0,.08-.03.16-.03.23,0,3.19,1.21,5.55,3.93,6.26,6.12Zm-55.79,43.82c-.05.07-.09.14-.14.21-.11.17-.34.2-.49.07-.85-.7-1.68-1.35-2.48-1.96-.34-.26.02-.78.38-.55.85.53,1.73,1.12,2.64,1.77.15.11.19.31.09.46Zm-3.13,3.89c-2.54-2.28-4.9-4.24-7.09-5.89-.34-.26.01-.77.38-.55,2.26,1.37,4.77,3.19,7.5,5.44.14.11.17.32.06.47-.11.16-.23.32-.34.48s-.36.19-.51.05Zm4.39,3.58c-.12.15-.35.17-.5.03-.25-.24-.77-.73-1.07-1.02-.13-.12-.15-.33-.04-.47.55-.76,1.09-1.53,1.63-2.32.78-1.14,1.56-2.33,2.32-3.52,5.17-8.13,9.76-17.18,13.82-25.15,3.63-7.15,6.77-13.33,9.41-17.07,2.56-3.62,5.31-6.13,8.11-7.44.35-.16.65.29.37.55-1.51,1.39-2.96,3.08-4.36,5.06-2.78,3.93-5.96,10.2-9.65,17.46-4.66,9.17-9.93,19.56-15.95,28.37-.84,1.23-1.7,2.43-2.53,3.54-.52.69-1.03,1.35-1.54,1.98Zm3.13,3.58c-.32-.32-.62-.62-.92-.91-.12-.12-.13-.31-.02-.44.6-.75,1.22-1.53,1.83-2.35.86-1.15,1.74-2.38,2.61-3.65,6.13-8.97,11.46-19.46,16.16-28.71,3.63-7.15,6.77-13.33,9.42-17.07,2.88-4.08,5.93-6.71,9.09-7.86.07-.03.4.06.49.09-1.9,1.55-3.73,3.56-5.46,6.01-2.77,3.93-5.96,10.2-9.65,17.46-5.35,10.54-11.42,22.49-18.49,31.91-.93,1.24-1.87,2.42-2.79,3.51-.59.7-1.18,1.37-1.77,2.01-.13.14-.35.14-.49,0Zm34.04,35.48c-4-3.2-10.03-9.79-17-17.41-4.44-4.85-9.42-10.29-14.38-15.38-.12-.13-.13-.32,0-.45.22-.24.44-.48.66-.72.13-.14.34-.15.48-.02,6.02,5.98,12.15,12.68,17.61,18.64,7.06,7.72,13.16,14.38,17.35,17.73.73.58,1.46,1.14,2.19,1.68.34.25,0,.78-.37.55-2.16-1.33-4.33-2.88-6.52-4.63Zm6.65-.03c-4-3.2-10.02-9.78-17-17.4-5.55-6.06-11.79-12.88-17.92-18.96-.12-.12-.13-.31-.02-.44.17-.21.34-.43.51-.64.12-.16.35-.18.5-.04,7.19,6.8,14.66,14.96,21.31,22.23,7.06,7.71,13.15,14.37,17.34,17.72.53.42,1.06.84,1.59,1.24.34.26-.02.78-.38.55-1.96-1.24-3.93-2.66-5.92-4.25Zm41.2,6.62c-.63.4-1.28.77-1.93,1.11-.34.18-.67-.27-.39-.54,4.96-4.68,8.01-12.56,7.64-20.36-.21-4.42-1.54-8.17-3.78-10.84-.3-.36.08-.9.52-.73,4.54,1.74,6.03,6.33,6.52,9.09,1.48,8.37-2.37,18.36-8.58,22.27Zm7.66-2.3c-.3.25-.72-.12-.49-.45,4.08-5.86,5.57-13.86,4.47-20.07-.43-2.44-1.25-4.59-2.39-6.37-.19-.3.15-.65.45-.47,4.29,2.54,5.98,7,5.98,11.28,0,5.15-2.57,11.45-8.03,16.08Z"/><path class="cls-1" d="m233.4,106.06c-.33.02-.57.06-.72.11s-.25.16-.31.31-.08.41-.08.75v6.79c0,.35.03.6.08.75s.16.26.31.31.39.09.72.11v.27c-.42-.03-1-.04-1.74-.04-.79,0-1.37.01-1.75.04v-.27c.33-.02.57-.06.72-.11.15-.05.25-.16.31-.31s.08-.41.08-.75v-6.79c0-.35-.03-.6-.08-.75s-.16-.26-.31-.31c-.15-.05-.39-.09-.72-.11v-.27c.38.03.97.04,1.75.04.73,0,1.31-.01,1.74-.04v.27Z"/><path class="cls-1" d="m229.78,115.61v-.53h.12c.31-.02.54-.06.68-.11.12-.04.19-.12.23-.24.05-.14.08-.38.08-.71v-6.79c0-.33-.03-.57-.08-.71-.04-.12-.12-.2-.23-.24-.14-.05-.37-.08-.68-.1h-.12v-.53h.13c.38.04.97.05,1.74.05.72,0,1.31-.01,1.73-.04h.13s0,.52,0,.52h-.12c-.31.02-.54.06-.68.11-.12.04-.19.12-.23.24-.05.14-.08.38-.08.71v6.79c0,.33.03.57.08.71.04.12.12.2.23.24.14.05.37.08.68.1h.12v.53h-.13c-.42-.04-1-.05-1.73-.05-.78,0-1.37.01-1.74.04h-.13Zm1.88-.3c.66,0,1.21.01,1.61.03v-.02c-.28-.02-.49-.06-.64-.11-.19-.07-.32-.2-.38-.39-.06-.17-.09-.43-.09-.79v-6.79c0-.36.03-.62.09-.79.07-.19.2-.32.38-.39.15-.05.35-.09.64-.11v-.02c-.42.02-.96.03-1.61.03-.7,0-1.25-.01-1.63-.03v.02c.28.02.49.06.64.11.19.07.32.2.38.39.06.17.09.43.09.79v6.79c0,.36-.03.62-.09.79-.07.19-.2.32-.38.39-.14.05-.35.09-.64.11v.02c.38-.02.93-.03,1.63-.03Z"/><path class="cls-1" d="m238.43,105.76c.23.09.47.21.72.38.2.13.36.19.47.19.08,0,.15-.05.19-.14.05-.1.08-.25.11-.46h.31c-.05.53-.07,1.46-.07,2.79h-.32c-.05-.74-.27-1.36-.64-1.87-.37-.51-.91-.76-1.61-.76-.49,0-.9.15-1.21.45-.31.3-.47.68-.47,1.14,0,.35.08.65.24.9.16.26.36.47.61.66.25.18.6.42,1.05.7l.4.25c.58.36,1.03.67,1.36.94.33.27.6.58.8.92.2.35.3.75.3,1.22,0,.83-.27,1.47-.82,1.92-.55.45-1.24.68-2.08.68-.44,0-.8-.05-1.08-.14s-.54-.21-.8-.37c-.2-.13-.36-.19-.47-.19-.08,0-.15.05-.19.14-.05.1-.08.25-.11.46h-.32c.04-.5.05-1.6.05-3.29h.32c.06.92.29,1.67.68,2.25s1,.86,1.81.86c.49,0,.91-.15,1.26-.46s.52-.76.52-1.36c0-.51-.17-.95-.51-1.3-.34-.36-.88-.76-1.62-1.21-.54-.33-.97-.62-1.31-.88-.33-.25-.6-.56-.81-.92s-.32-.78-.32-1.27c0-.77.25-1.35.74-1.76.49-.41,1.1-.61,1.83-.61.4,0,.72.04.95.13Z"/><path class="cls-1" d="m237.79,115.8c-.45,0-.82-.05-1.11-.14-.29-.09-.56-.22-.83-.38-.24-.15-.35-.17-.4-.17-.01,0-.04,0-.08.07-.04.08-.07.23-.1.42v.11h-.57v-.13c.05-.5.06-1.6.06-3.28v-.12h.56v.12c.07.89.29,1.63.67,2.18.37.54.93.81,1.7.81.46,0,.86-.14,1.18-.43.32-.28.48-.71.48-1.27,0-.48-.16-.88-.48-1.21-.33-.35-.87-.75-1.6-1.18-.55-.34-.98-.63-1.32-.88-.34-.26-.63-.59-.85-.96-.22-.38-.33-.83-.33-1.33,0-.8.26-1.43.79-1.86.51-.42,1.16-.64,1.91-.64.42,0,.75.04,1,.14.24.09.49.22.74.39.23.15.35.17.4.17.01,0,.04,0,.08-.07.03-.06.07-.18.1-.42v-.11h.58v.14c-.06.52-.08,1.46-.08,2.78v.12h-.56v-.12c-.06-.71-.27-1.32-.62-1.8-.35-.48-.84-.71-1.51-.71-.46,0-.83.14-1.12.41-.29.28-.43.62-.43,1.05,0,.32.07.6.22.84.15.24.34.45.58.62.25.18.6.42,1.05.69l.4.25c.58.36,1.04.68,1.38.95.34.28.62.6.83.96.21.36.32.79.32,1.28,0,.87-.29,1.54-.87,2.02-.57.47-1.3.71-2.16.71Zm-2.34-.95c.14,0,.3.07.53.21.24.15.5.27.77.36.27.09.61.13,1.04.13.81,0,1.48-.22,2-.65.52-.43.78-1.03.78-1.83,0-.44-.1-.83-.29-1.16-.19-.33-.45-.63-.77-.89-.33-.26-.78-.58-1.35-.93l-.4-.25c-.45-.28-.81-.52-1.06-.71-.26-.19-.47-.42-.64-.69-.17-.27-.26-.6-.26-.97,0-.5.17-.91.5-1.23.33-.32.77-.48,1.29-.48.74,0,1.32.27,1.71.81.36.5.58,1.11.65,1.82h.08c0-1.18.02-2.01.06-2.54h-.07c-.03.17-.06.3-.11.39-.09.19-.23.21-.3.21-.14,0-.31-.07-.53-.21-.24-.16-.47-.28-.7-.37h0c-.22-.08-.52-.12-.91-.12-.7,0-1.29.2-1.76.58-.47.38-.69.93-.69,1.66,0,.46.1.86.3,1.2.2.35.46.64.78.89.32.25.76.54,1.3.87.74.45,1.3.86,1.65,1.22.36.38.55.84.55,1.39,0,.64-.19,1.13-.56,1.46-.37.33-.82.49-1.34.49-.85,0-1.5-.31-1.91-.92-.39-.57-.62-1.3-.7-2.19h-.07c0,1.48-.02,2.5-.05,3.04h.07c.03-.17.06-.3.1-.39.09-.18.21-.21.3-.21Z"/><path class="cls-1" d="m250.41,114.8c-.21.31-.42.53-.63.67s-.49.21-.84.21c-.37,0-.68-.11-.92-.33-.24-.22-.42-.6-.54-1.15l-.3-1.37c-.11-.47-.21-.84-.31-1.1s-.24-.46-.43-.62-.46-.23-.81-.23h-1.3v3.15c0,.35.03.6.08.75s.16.26.31.31c.15.05.39.09.72.11v.27c-.42-.03-1-.04-1.74-.04-.79,0-1.37.01-1.75.04v-.27c.33-.02.57-.06.72-.11s.25-.16.31-.31.08-.41.08-.75v-6.79c0-.35-.03-.6-.08-.75s-.16-.26-.31-.31-.39-.09-.72-.11v-.27c.38.03.94.04,1.67.04h1.48c.17-.02.37-.03.59-.03,1.06,0,1.87.22,2.44.66.57.44.86,1.02.86,1.72,0,.36-.08.71-.25,1.08s-.45.68-.85.97c-.4.29-.92.48-1.55.58l.16.03c.6.1,1.04.28,1.31.55.27.26.47.68.6,1.26l.34,1.4c.09.42.19.71.29.88s.24.25.41.25c.16,0,.29-.04.39-.12.1-.08.23-.21.36-.4l.21.15Zm-5.7-8.64c-.14.06-.24.18-.29.34s-.08.41-.08.74v3.37h.92c.9,0,1.52-.2,1.86-.6s.51-.96.51-1.67c0-.75-.18-1.31-.53-1.7-.36-.38-.94-.58-1.74-.58-.28,0-.5.03-.64.1Z"/><path class="cls-1" d="m248.94,115.8c-.41,0-.74-.12-1.01-.36-.26-.24-.45-.64-.58-1.22l-.3-1.37c-.11-.47-.21-.83-.3-1.08-.09-.23-.22-.42-.39-.56-.17-.14-.41-.21-.73-.21h-1.18v3.03c0,.33.03.57.08.71.04.12.12.2.23.24.14.05.37.08.68.1h.12v.53h-.13c-.42-.04-1-.05-1.73-.05-.78,0-1.37.01-1.74.04h-.13s0-.52,0-.52h.12c.31-.02.54-.06.68-.11.12-.04.19-.12.23-.24.04-.1.08-.3.08-.71v-6.79c0-.41-.04-.61-.08-.71-.04-.12-.12-.2-.23-.24-.14-.05-.37-.08-.68-.1h-.12v-.53h.13c.38.04.94.05,1.66.05h1.48c.17-.02.37-.03.59-.03,1.08,0,1.93.23,2.52.69.6.47.9,1.08.9,1.82,0,.37-.09.75-.26,1.13-.18.38-.48.72-.89,1.02-.28.2-.62.36-1.02.48.42.11.74.28.96.49.29.28.5.72.64,1.32l.34,1.4c.09.41.18.69.27.84.08.13.17.19.3.19s.23-.03.31-.1c.1-.08.21-.2.34-.37l.07-.1.4.29-.07.1c-.22.32-.44.56-.67.71-.23.15-.53.23-.9.23Zm-2.51-4.84s.06.04.08.06c.21.17.37.39.47.67.1.26.2.63.31,1.11l.3,1.37c.11.52.28.88.5,1.08.22.2.5.3.84.3.32,0,.58-.06.77-.18.17-.11.35-.29.53-.54h0c-.11.13-.22.24-.31.32-.13.1-.29.15-.47.15-.22,0-.4-.11-.52-.31-.11-.18-.21-.48-.3-.92l-.34-1.39c-.12-.55-.31-.95-.57-1.2-.25-.25-.67-.42-1.25-.51h-.04Zm-2.73,4.36c.66,0,1.21.01,1.61.03v-.02c-.28-.02-.49-.06-.64-.11-.19-.07-.32-.2-.38-.39-.06-.17-.09-.43-.09-.79v-3.28h1.43c.07,0,.13,0,.2,0l.48-.08c.62-.1,1.12-.29,1.5-.56.38-.27.65-.58.81-.92.16-.34.24-.69.24-1.02,0-.67-.26-1.2-.81-1.62-.54-.42-1.34-.64-2.37-.64-.22,0-.41,0-.58.01h-1.49c-.65.01-1.17,0-1.55-.02v.02c.28.02.49.06.64.11.19.07.32.2.38.39.06.17.09.43.09.79v6.79c0,.36-.03.62-.09.79-.07.19-.2.32-.38.39-.15.05-.35.09-.64.11v.02c.38-.02.93-.03,1.63-.03Zm1.55-4.58h-1.04v-3.49c0-.35.03-.6.09-.78.07-.2.19-.34.36-.42h0c.16-.07.38-.11.69-.11.84,0,1.45.21,1.83.62.38.41.57,1.01.57,1.78s-.18,1.33-.54,1.75c-.36.43-1.02.65-1.96.65Zm-.79-.25h.79c.86,0,1.46-.19,1.77-.56.32-.38.48-.91.48-1.59,0-.71-.17-1.26-.5-1.61-.33-.36-.88-.54-1.65-.54-.26,0-.46.03-.58.09h0c-.11.05-.18.14-.23.27-.05.15-.08.39-.08.7v3.24Z"/><path class="cls-1" d="m258.95,115.21v.27c-.37-.03-.85-.04-1.46-.04-.79,0-1.37.01-1.75.04v-.27c.35-.02.6-.06.75-.13s.23-.19.23-.38c0-.16-.05-.37-.16-.64l-.83-2.25h-3.31l-.56,1.45c-.18.49-.27.87-.27,1.12,0,.28.1.49.29.62s.5.2.9.21v.27c-.52-.03-1.05-.04-1.58-.04-.41,0-.75.01-1.03.04v-.27c.46-.11.82-.51,1.08-1.19l3.22-8.3h.22l3.34,8.61c.22.57.53.86.94.88Zm-3.35-3.67l-1.53-4.09-1.56,4.09h3.1Z"/><path class="cls-1" d="m250.02,115.62v-.51l.1-.02c.41-.1.75-.48.99-1.12l3.25-8.38h.39l.03.08,3.34,8.61c.2.52.47.78.83.8h.12v.53h-.13c-.36-.04-.85-.05-1.46-.05-.78,0-1.37.01-1.74.04h-.13s0-.52,0-.52h.12c.33-.02.57-.06.7-.13.11-.05.15-.13.15-.26s-.05-.34-.16-.6l-.81-2.17h-3.14l-.53,1.37c-.17.47-.26.84-.26,1.08s.08.41.24.51c.17.11.46.18.83.19h.12v.53h-.13c-.52-.03-1.04-.05-1.57-.05-.4,0-.75.01-1.01.04h-.14Zm1.15-.3c.48,0,.97.01,1.45.03v-.02c-.37-.02-.64-.09-.84-.22-.23-.15-.35-.39-.35-.72,0-.27.09-.66.28-1.17l.59-1.53h3.49l.87,2.33c.12.29.17.51.17.69,0,.23-.1.4-.3.49-.15.07-.37.11-.67.13v.02c.38-.02.93-.03,1.63-.03.54,0,.99.01,1.34.03v-.03c-.41-.07-.72-.38-.94-.94l-3.31-8.53h-.05l-3.19,8.22c-.26.67-.62,1.09-1.07,1.24v.04c.25-.02.55-.03.9-.03Zm4.6-3.65h-3.46l1.74-4.57,1.71,4.57Zm-3.09-.25h2.73l-1.35-3.62-1.38,3.62Z"/><path class="cls-1" d="m266.28,115.48c-.62-.03-1.67-.04-3.14-.04-1.75,0-3.08.01-3.97.04v-.27c.33-.02.57-.06.72-.11.15-.05.25-.16.31-.31s.08-.41.08-.75v-6.79c0-.35-.03-.6-.08-.75s-.16-.26-.31-.31c-.15-.05-.39-.09-.72-.11v-.27c.89.03,2.22.04,3.97.04,1.34,0,2.3-.01,2.86-.04-.06.6-.1,1.14-.1,1.62,0,.36.01.64.04.85h-.31c-.06-.59-.15-1.03-.25-1.32-.1-.29-.27-.5-.51-.63-.24-.13-.6-.2-1.08-.2h-1.14c-.33,0-.57.03-.72.08-.15.05-.25.15-.31.31s-.08.41-.08.75v3.23h.9c.32,0,.57-.08.74-.23.17-.15.29-.33.35-.53.06-.21.11-.46.14-.77l.04-.27h.31c-.03.38-.04.81-.04,1.29v.66c0,.47.03,1.11.08,1.94h-.31c0-.06-.04-.29-.08-.66-.05-.38-.17-.66-.38-.86-.21-.19-.49-.29-.86-.29h-.9v3.29c0,.35.03.6.08.75s.16.26.31.31c.15.05.39.08.72.08h1c.57,0,1-.08,1.29-.23.3-.15.51-.39.65-.73s.24-.82.3-1.47h.32c-.03.25-.04.58-.04.99,0,.52.03,1.1.1,1.75Z"/><path class="cls-1" d="m266.42,115.61h-.14c-.62-.03-1.67-.05-3.13-.05-1.74,0-3.08.01-3.97.04h-.13s0-.52,0-.52h.12c.31-.02.54-.06.68-.11.12-.04.19-.12.23-.24.05-.14.08-.38.08-.71v-6.79c0-.33-.03-.57-.08-.71-.04-.12-.12-.2-.23-.24-.14-.05-.37-.08-.68-.1h-.12v-.53h.13c.89.03,2.22.04,3.97.04,1.33,0,2.29-.01,2.86-.04h.15s-.02.14-.02.14c-.06.59-.1,1.13-.1,1.6,0,.35.01.63.04.83l.02.14h-.57v-.11c-.08-.58-.16-1.02-.25-1.29-.09-.26-.24-.44-.45-.56-.22-.12-.56-.18-1.02-.18h-1.14c-.31,0-.54.02-.68.07-.11.04-.19.11-.23.23-.05.14-.08.38-.08.71v3.11h.78c.29,0,.51-.07.66-.2.16-.13.26-.29.31-.47.06-.2.1-.45.14-.75l.06-.38h.56v.13c-.04.38-.05.81-.05,1.28v.66c0,.46.03,1.11.08,1.94v.13s-.55,0-.55,0l-.02-.11c0-.06-.04-.29-.08-.67-.04-.35-.16-.61-.34-.78-.18-.17-.44-.25-.77-.25h-.78v3.16c0,.33.03.57.08.71.04.12.12.19.23.23.14.05.36.07.68.07h1c.54,0,.96-.07,1.24-.21.27-.14.47-.36.59-.66.13-.32.23-.8.29-1.44v-.11h.58l-.02.14c-.03.24-.04.57-.04.97,0,.52.03,1.11.09,1.74v.14Zm-7.12-.29v.03c.89-.02,2.18-.04,3.85-.04,1.36,0,2.36.01,3,.04-.06-.59-.08-1.13-.08-1.62,0-.34,0-.63.03-.86h-.06c-.07.6-.17,1.07-.3,1.4-.15.36-.39.62-.71.79-.31.16-.77.24-1.35.24h-1c-.35,0-.6-.03-.76-.08-.19-.06-.32-.19-.39-.38-.06-.17-.09-.43-.09-.79v-3.41h1.03c.4,0,.71.11.94.32.23.21.37.52.42.93.03.26.05.44.07.55h.07c-.05-.77-.07-1.38-.07-1.82v-.66c0-.42.01-.81.03-1.16h-.07l-.02.17c-.04.32-.09.58-.15.79-.06.23-.19.43-.39.59-.2.17-.47.26-.82.26h-1.03v-3.36c0-.36.03-.62.09-.79.07-.19.2-.32.39-.38.16-.05.41-.08.76-.08h1.14c.51,0,.88.07,1.14.21.26.15.45.38.56.7.1.28.18.68.24,1.24h.06c-.02-.2-.03-.44-.03-.72,0-.44.03-.94.08-1.49-.58.02-1.49.04-2.72.04-1.66,0-2.96-.01-3.85-.04v.03c.28.02.49.06.64.11.19.07.32.2.38.39.06.17.09.43.09.79v6.79c0,.36-.03.62-.09.79-.07.19-.2.32-.38.39-.14.05-.35.09-.64.11Z"/><path class="cls-1" d="m271,106.06c-.33.02-.57.06-.72.11s-.25.16-.31.31-.08.41-.08.75v6.79c0,.35.03.6.08.75s.16.26.31.31c.15.05.39.08.72.08h1c.57,0,1-.08,1.29-.24.3-.16.51-.42.65-.77.14-.36.24-.87.3-1.55h.32c-.03.28-.04.66-.04,1.12,0,.52.03,1.1.1,1.75-.62-.03-1.67-.04-3.14-.04-1.75,0-3.08.01-3.97.04v-.27c.33-.02.57-.06.72-.11.15-.05.25-.16.31-.31s.08-.41.08-.75v-6.79c0-.35-.03-.6-.08-.75s-.16-.26-.31-.31c-.15-.05-.39-.09-.72-.11v-.27c.38.03.97.04,1.75.04.73,0,1.31-.01,1.74-.04v.27Z"/><path class="cls-1" d="m274.76,115.61h-.14c-.62-.03-1.67-.05-3.13-.05-1.74,0-3.08.01-3.97.04h-.13s0-.52,0-.52h.12c.31-.02.54-.06.68-.11.12-.04.19-.12.23-.24.05-.14.08-.38.08-.71v-6.79c0-.33-.03-.57-.08-.71-.04-.12-.12-.2-.23-.24-.14-.05-.37-.08-.68-.1h-.12v-.53h.13c.38.04.97.05,1.74.05.72,0,1.31-.01,1.73-.04h.13s0,.52,0,.52h-.12c-.31.02-.54.06-.68.11-.12.04-.19.12-.23.24-.05.14-.08.38-.08.71v6.79c0,.33.03.57.08.71.04.12.12.19.23.23.14.05.36.07.68.07h1c.54,0,.96-.08,1.23-.22.27-.14.47-.38.59-.71.13-.35.23-.85.29-1.51v-.11h.58v.14c-.04.28-.05.65-.05,1.11,0,.52.03,1.11.09,1.74v.14Zm-7.12-.29v.03c.89-.02,2.18-.04,3.85-.04,1.36,0,2.36.01,3,.04-.06-.59-.08-1.13-.08-1.62,0-.4,0-.73.03-1h-.07c-.06.63-.17,1.12-.3,1.47-.15.38-.39.67-.71.84-.32.17-.76.25-1.35.25h-1c-.35,0-.6-.03-.76-.08-.19-.06-.32-.19-.39-.38-.06-.17-.09-.43-.09-.79v-6.79c0-.36.03-.62.09-.79.07-.19.2-.32.38-.39.15-.05.35-.09.64-.11v-.02c-.42.02-.96.03-1.61.03-.7,0-1.25-.01-1.63-.03v.02c.28.02.49.06.64.11.19.07.32.2.38.39.06.17.09.43.09.79v6.79c0,.36-.03.62-.09.79-.07.19-.2.32-.38.39-.14.05-.35.09-.64.11Z"/><path class="cls-1" d="m7.81,114.91c.19.13.42.23.69.29v.27c-.44-.03-.99-.04-1.64-.04-.49,0-.96.01-1.41.04v-.27c.22,0,.38-.04.48-.08.1-.04.15-.11.15-.21s-.05-.2-.14-.33l-2-3.01c-.26-.4-.49-.67-.67-.79s-.44-.19-.77-.21v3.45c0,.35.03.6.08.75s.16.26.31.31c.15.05.39.09.72.11v.27c-.42-.03-1-.04-1.74-.04-.79,0-1.37.01-1.75.04v-.27c.33-.02.57-.06.72-.11s.25-.16.31-.31.08-.41.08-.75v-6.79c0-.35-.03-.6-.08-.75s-.16-.26-.31-.31-.39-.09-.72-.11v-.27c.38.03.97.04,1.75.04.73,0,1.31-.01,1.74-.04v.27c-.33.02-.57.06-.72.11-.15.05-.25.16-.31.31s-.08.41-.08.75v3.07c.67-.03,1.19-.28,1.56-.77l1.31-1.67c.47-.58.7-1.01.7-1.31,0-.32-.28-.48-.85-.49v-.27c.52.03,1.04.04,1.58.04.5,0,.89-.01,1.16-.04v.27c-.3.05-.58.14-.85.29s-.52.39-.77.71l-2.23,2.86,3.18,4.45c.15.23.33.41.51.54Z"/><path class="cls-1" d="m0,115.61v-.53h.12c.31-.02.54-.06.68-.11.12-.04.19-.12.23-.24.04-.1.08-.3.08-.71v-6.79c0-.41-.04-.61-.08-.71-.04-.12-.12-.2-.23-.24-.14-.05-.37-.08-.68-.1h-.12v-.53h.13c.38.04.96.05,1.74.05.72,0,1.31-.01,1.73-.04h.13s0,.52,0,.52h-.12c-.31.02-.54.06-.68.11-.12.04-.19.12-.23.24-.05.14-.08.38-.08.71v2.93c.57-.05,1.01-.28,1.34-.71l1.31-1.67c.45-.55.67-.97.67-1.24,0-.09,0-.36-.73-.37h-.12v-.53h.13c.52.03,1.04.05,1.57.05.5,0,.88-.01,1.15-.04h.14s0,.5,0,.5l-.11.02c-.28.04-.56.14-.81.28-.25.14-.49.37-.73.67l-2.17,2.79,3.12,4.38c.15.22.31.39.48.51h0c.17.12.39.21.65.28l.1.02v.5h-.13c-.43-.04-.98-.05-1.64-.05-.49,0-.96.01-1.4.04h-.13s0-.52,0-.52h.12c.2-.01.35-.04.43-.08.08-.04.08-.07.08-.09,0-.04-.02-.12-.11-.25l-2-3.02c-.25-.39-.47-.64-.64-.75-.14-.09-.33-.15-.57-.18v3.32c0,.33.03.57.08.71.04.12.12.2.23.24.14.05.37.08.68.1h.12v.53h-.13c-.42-.04-1-.05-1.73-.05-.78,0-1.37.01-1.74.04h-.13Zm6.86-.3c.59,0,1.1.01,1.52.03v-.04c-.25-.07-.46-.17-.64-.29h0c-.2-.14-.38-.33-.54-.57l-3.23-4.52,2.29-2.94c.25-.33.53-.58.8-.74.25-.14.51-.24.79-.29v-.03c-.26.02-.61.03-1.04.03-.48,0-.97-.01-1.45-.03v.02c.7.04.85.35.85.61,0,.33-.24.79-.73,1.39l-1.31,1.67c-.4.51-.95.79-1.65.81h-.13s0-3.19,0-3.19c0-.36.03-.62.09-.79.07-.19.2-.32.38-.39.15-.05.36-.09.64-.11v-.02c-.42.02-.96.03-1.61.03-.7,0-1.25-.01-1.63-.03v.02c.28.02.49.06.64.11.19.07.32.2.38.39.06.17.09.43.09.79v6.79c0,.36-.03.62-.09.79-.07.19-.2.32-.38.39-.15.05-.35.09-.64.11v.02c.38-.02.93-.03,1.63-.03.66,0,1.21.01,1.61.03v-.02c-.28-.02-.49-.06-.64-.11-.19-.07-.32-.2-.38-.39-.06-.17-.09-.43-.09-.79v-3.58h.13c.35.03.63.11.83.24.2.13.43.4.71.82l2,3.01c.11.15.16.28.16.4,0,.14-.08.25-.23.32-.09.04-.23.07-.4.09v.02c.41-.02.84-.03,1.29-.03Z"/><path class="cls-1" d="m16.2,115.48c-.62-.03-1.67-.04-3.14-.04-1.75,0-3.08.01-3.97.04v-.27c.33-.02.57-.06.72-.11s.25-.16.31-.31.08-.41.08-.75v-6.79c0-.35-.03-.6-.08-.75s-.16-.26-.31-.31-.39-.09-.72-.11v-.27c.89.03,2.22.04,3.97.04,1.34,0,2.3-.01,2.86-.04-.06.6-.1,1.14-.1,1.62,0,.36.01.64.04.85h-.32c-.06-.59-.15-1.03-.25-1.32-.1-.29-.27-.5-.51-.63-.24-.13-.6-.2-1.08-.2h-1.14c-.33,0-.57.03-.72.08-.15.05-.25.15-.31.31s-.08.41-.08.75v3.23h.9c.32,0,.57-.08.74-.23.17-.15.29-.33.35-.53.06-.21.11-.46.14-.77l.04-.27h.32c-.03.38-.04.81-.04,1.29v.66c0,.47.03,1.11.08,1.94h-.32c0-.06-.04-.29-.08-.66s-.17-.66-.38-.86c-.21-.19-.49-.29-.86-.29h-.9v3.29c0,.35.03.6.08.75s.16.26.31.31c.15.05.39.08.72.08h1c.57,0,1-.08,1.29-.23s.51-.39.65-.73c.14-.33.24-.82.3-1.47h.31c-.03.25-.04.58-.04.99,0,.52.03,1.1.1,1.75Z"/><path class="cls-1" d="m16.34,115.61h-.14c-.62-.03-1.67-.05-3.13-.05-1.74,0-3.08.01-3.97.04h-.13s0-.52,0-.52h.12c.31-.02.54-.06.68-.11.12-.04.19-.12.23-.24.04-.1.08-.3.08-.71v-6.79c0-.41-.04-.61-.08-.71-.04-.12-.12-.2-.23-.24-.14-.05-.37-.08-.68-.1h-.12v-.53h.13c.89.03,2.22.04,3.97.04,1.33,0,2.29-.01,2.86-.04h.15s-.02.14-.02.14c-.06.59-.09,1.13-.09,1.6,0,.35.01.63.04.83l.02.14h-.57v-.11c-.07-.58-.16-1.02-.25-1.29-.09-.26-.24-.44-.45-.56-.22-.12-.56-.18-1.02-.18h-1.14c-.31,0-.54.02-.68.07-.12.04-.19.11-.23.23-.05.14-.08.38-.08.71v3.11h.78c.29,0,.51-.07.66-.2.16-.14.26-.29.31-.48.06-.2.1-.45.14-.75l.06-.38h.56v.13c-.04.38-.05.81-.05,1.28v.66c0,.46.03,1.11.08,1.94v.13s-.55,0-.55,0l-.02-.11c0-.06-.04-.29-.08-.67-.04-.35-.16-.61-.34-.78-.18-.17-.44-.25-.77-.25h-.78v3.16c0,.33.03.57.08.71.04.12.11.19.23.23.14.05.37.07.68.07h1c.54,0,.96-.07,1.24-.21.27-.14.46-.35.59-.66.13-.32.23-.8.29-1.44v-.11h.58l-.02.14c-.03.24-.04.57-.04.97,0,.51.03,1.1.09,1.74v.14Zm-7.12-.29v.03c.89-.02,2.18-.04,3.85-.04,1.36,0,2.37.01,3,.04-.06-.6-.08-1.14-.08-1.62,0-.34,0-.63.03-.86h-.06c-.07.61-.16,1.07-.3,1.4-.15.36-.39.63-.71.79-.32.16-.76.24-1.35.24h-1c-.35,0-.59-.03-.76-.08-.19-.06-.32-.19-.39-.38-.06-.17-.09-.43-.09-.79v-3.41h1.03c.4,0,.71.11.94.32.23.21.37.52.42.93.03.26.05.44.07.55h.07c-.05-.77-.07-1.38-.07-1.82v-.66c0-.42.01-.81.03-1.16h-.07l-.02.17c-.04.31-.09.58-.15.79-.07.23-.2.43-.39.59-.19.17-.47.26-.82.26h-1.03v-3.36c0-.36.03-.62.09-.79.07-.19.2-.32.39-.38.17-.05.41-.08.76-.08h1.14c.51,0,.88.07,1.14.21.26.15.45.38.56.7.1.28.18.69.24,1.24h.06c-.02-.2-.03-.44-.03-.72,0-.44.03-.94.08-1.49-.58.02-1.49.04-2.72.04-1.66,0-2.96-.01-3.85-.04v.03c.28.02.49.06.64.11.19.07.32.2.38.39.06.17.09.43.09.79v6.79c0,.36-.03.62-.09.79-.07.19-.2.32-.38.39-.15.05-.35.09-.64.11Z"/><path class="cls-1" d="m25.9,114.79c-.21.31-.42.53-.63.67s-.49.21-.83.21c-.38,0-.68-.11-.92-.33-.24-.22-.42-.6-.54-1.15l-.3-1.37c-.11-.47-.21-.84-.31-1.1-.1-.26-.24-.46-.43-.62-.19-.16-.46-.23-.81-.23h-1.3v3.15c0,.35.03.6.08.75s.16.26.31.31.39.09.72.11v.27c-.42-.03-1-.04-1.74-.04-.79,0-1.37.01-1.75.04v-.27c.33-.02.57-.06.72-.11.15-.05.25-.16.31-.31s.08-.41.08-.75v-6.79c0-.35-.03-.6-.08-.75s-.16-.26-.31-.31c-.15-.05-.39-.09-.72-.11v-.27c.38.03.94.04,1.67.04h1.48c.17-.02.37-.03.59-.03,1.06,0,1.87.22,2.44.66.57.44.86,1.02.86,1.72,0,.36-.08.71-.25,1.08s-.45.68-.85.97c-.4.29-.92.48-1.55.58l.17.03c.6.1,1.04.28,1.31.55.27.26.47.68.6,1.26l.34,1.4c.09.42.19.71.29.88s.24.25.41.25c.15,0,.29-.04.39-.12.11-.08.23-.21.36-.4l.21.15Zm-5.7-8.64c-.14.06-.24.18-.29.34s-.08.41-.08.74v3.37h.92c.9,0,1.52-.2,1.86-.6.34-.4.51-.96.51-1.67,0-.75-.18-1.31-.53-1.7-.36-.38-.94-.58-1.74-.58-.28,0-.5.03-.64.1Z"/><path class="cls-1" d="m24.43,115.8c-.4,0-.74-.12-1.01-.36-.26-.24-.45-.64-.58-1.22l-.3-1.37c-.11-.47-.21-.83-.3-1.08-.09-.23-.22-.42-.39-.56-.17-.14-.41-.21-.73-.21h-1.18v3.03c0,.33.03.57.08.71.04.12.12.2.23.24.14.05.37.08.68.1h.12v.53h-.13c-.42-.04-1-.05-1.73-.05-.78,0-1.37.01-1.74.04h-.13s0-.52,0-.52h.12c.31-.02.54-.06.68-.11.12-.04.19-.12.23-.24.05-.14.08-.38.08-.71v-6.79c0-.33-.03-.57-.08-.71-.04-.12-.12-.2-.23-.24-.14-.05-.37-.08-.68-.1h-.12v-.53h.13c.38.04.94.05,1.66.05h1.48c.17-.02.37-.03.59-.03,1.08,0,1.93.23,2.52.69.6.47.91,1.08.91,1.82,0,.37-.09.75-.27,1.13-.18.38-.48.72-.89,1.02-.28.2-.62.36-1.02.48.42.11.74.28.96.49.29.28.5.73.64,1.32l.34,1.4c.09.41.18.69.27.84.08.13.17.19.3.19s.23-.03.31-.1c.1-.08.21-.2.34-.37l.07-.1.4.29-.07.1c-.22.32-.44.56-.67.71-.23.15-.53.23-.9.23Zm-2.51-4.84s.06.04.08.06c.21.17.37.39.47.67.1.26.2.62.31,1.11l.3,1.37c.11.52.28.88.5,1.08.22.2.5.3.84.3.32,0,.58-.06.77-.18.17-.11.35-.29.53-.54h0c-.11.14-.22.24-.31.32-.13.1-.28.15-.47.15-.22,0-.4-.11-.52-.31-.11-.18-.21-.48-.3-.92l-.34-1.39c-.12-.55-.31-.95-.57-1.2-.25-.25-.67-.42-1.25-.51h-.04Zm-2.73,4.36c.66,0,1.21.01,1.61.03v-.02c-.28-.02-.49-.06-.64-.11-.19-.07-.32-.2-.38-.39-.06-.17-.09-.43-.09-.79v-3.28h1.43c.07,0,.13,0,.19,0l.48-.08c.62-.1,1.12-.28,1.5-.56.38-.27.65-.58.81-.92.16-.34.24-.69.24-1.02,0-.67-.26-1.2-.81-1.62-.55-.42-1.34-.64-2.37-.64-.22,0-.41,0-.58.01h-1.48c-.65.01-1.17,0-1.55-.02v.02c.28.02.49.06.64.11.19.07.32.2.38.39.06.17.09.43.09.79v6.79c0,.36-.03.62-.09.79-.07.19-.2.32-.38.39-.14.05-.35.09-.64.11v.02c.38-.02.93-.03,1.63-.03Zm1.55-4.58h-1.04v-3.49c0-.35.03-.6.09-.78.07-.2.19-.34.36-.42h0c.16-.07.38-.11.69-.11.83,0,1.45.21,1.83.62.38.41.57,1.01.57,1.78s-.18,1.33-.54,1.75c-.36.43-1.02.65-1.96.65Zm-.79-.25h.79c.86,0,1.46-.19,1.77-.56.32-.38.48-.91.48-1.59,0-.71-.17-1.25-.5-1.61-.33-.36-.88-.54-1.65-.54-.26,0-.46.03-.58.09h0c-.11.05-.18.14-.23.27-.05.15-.08.39-.08.7v3.24Z"/><path class="cls-1" d="m33.41,115.48c-.62-.03-1.67-.04-3.14-.04-1.75,0-3.08.01-3.97.04v-.27c.33-.02.57-.06.72-.11s.25-.16.31-.31.08-.41.08-.75v-6.79c0-.35-.03-.6-.08-.75s-.16-.26-.31-.31-.39-.09-.72-.11v-.27c.89.03,2.22.04,3.97.04,1.34,0,2.3-.01,2.86-.04-.06.6-.1,1.14-.1,1.62,0,.36.01.64.04.85h-.32c-.06-.59-.15-1.03-.25-1.32-.1-.29-.27-.5-.51-.63-.24-.13-.6-.2-1.08-.2h-1.14c-.33,0-.57.03-.72.08-.15.05-.25.15-.31.31s-.08.41-.08.75v3.23h.9c.32,0,.57-.08.74-.23.17-.15.29-.33.35-.53.06-.21.11-.46.14-.77l.04-.27h.32c-.03.38-.04.81-.04,1.29v.66c0,.47.03,1.11.08,1.94h-.32c0-.06-.04-.29-.08-.66s-.17-.66-.38-.86c-.21-.19-.49-.29-.86-.29h-.9v3.29c0,.35.03.6.08.75s.16.26.31.31c.15.05.39.08.72.08h1c.57,0,1-.08,1.29-.23s.51-.39.65-.73c.14-.33.24-.82.3-1.47h.31c-.03.25-.04.58-.04.99,0,.52.03,1.1.1,1.75Z"/><path class="cls-1" d="m33.55,115.61h-.14c-.62-.03-1.67-.05-3.13-.05-1.74,0-3.08.01-3.97.04h-.13s0-.52,0-.52h.12c.31-.02.54-.06.68-.11.12-.04.19-.12.23-.24.04-.1.08-.3.08-.71v-6.79c0-.41-.04-.61-.08-.71-.04-.12-.12-.2-.23-.24-.14-.05-.37-.08-.68-.1h-.12v-.53h.13c.89.03,2.22.04,3.97.04,1.33,0,2.29-.01,2.86-.04h.15s-.02.14-.02.14c-.06.59-.09,1.13-.09,1.6,0,.35.01.63.04.83l.02.14h-.57v-.11c-.07-.58-.16-1.02-.25-1.29-.09-.26-.24-.44-.45-.56-.22-.12-.56-.18-1.02-.18h-1.14c-.31,0-.54.02-.68.07-.12.04-.19.11-.23.23-.05.14-.08.38-.08.71v3.11h.78c.29,0,.51-.07.66-.2.16-.14.26-.29.31-.48.06-.2.1-.45.14-.75l.06-.38h.56v.13c-.04.38-.05.81-.05,1.28v.66c0,.46.03,1.11.08,1.94v.13s-.55,0-.55,0l-.02-.11c0-.06-.04-.29-.08-.67-.04-.35-.16-.61-.34-.78-.18-.17-.44-.25-.77-.25h-.78v3.16c0,.33.03.57.08.71.04.12.11.19.23.23.14.05.37.07.68.07h1c.54,0,.96-.07,1.24-.21.27-.14.46-.35.59-.66.13-.32.23-.8.29-1.44v-.11h.58l-.02.14c-.03.24-.04.57-.04.97,0,.51.03,1.1.09,1.74v.14Zm-7.12-.29v.03c.89-.02,2.18-.04,3.85-.04,1.36,0,2.37.01,3,.04-.06-.6-.08-1.14-.08-1.62,0-.34,0-.63.03-.86h-.06c-.07.61-.16,1.07-.3,1.4-.15.36-.39.63-.71.79-.32.16-.76.24-1.35.24h-1c-.35,0-.59-.03-.76-.08-.19-.06-.32-.19-.39-.38-.06-.17-.09-.43-.09-.79v-3.41h1.03c.4,0,.71.11.94.32.23.21.37.52.42.93.03.26.05.44.07.55h.07c-.05-.77-.07-1.38-.07-1.82v-.66c0-.42.01-.81.03-1.16h-.07l-.02.17c-.04.31-.09.58-.15.79-.07.23-.2.43-.39.59-.19.17-.47.26-.82.26h-1.03v-3.36c0-.36.03-.62.09-.79.07-.19.2-.32.39-.38.17-.05.41-.08.76-.08h1.14c.51,0,.88.07,1.14.21.26.15.45.38.56.7.1.28.18.69.24,1.24h.06c-.02-.2-.03-.44-.03-.72,0-.44.03-.94.08-1.49-.58.02-1.49.04-2.72.04-1.66,0-2.96-.01-3.85-.04v.03c.28.02.49.06.64.11.19.07.32.2.38.39.06.17.09.43.09.79v6.79c0,.36-.03.62-.09.79-.07.19-.2.32-.38.39-.15.05-.35.09-.64.11Z"/><path class="cls-1" d="m43.25,106.06c-.32.02-.56.07-.71.14-.16.08-.26.21-.32.38-.05.18-.08.44-.08.79v8.17h-.31l-5.75-8.89v7.23c0,.36.03.62.09.79.06.17.18.3.35.38.17.08.44.13.81.14v.27c-.33-.03-.79-.04-1.4-.04-.55,0-.97.01-1.27.04v-.27c.32-.02.56-.07.71-.14.16-.08.26-.21.31-.38.05-.18.08-.44.08-.79v-6.66c0-.35-.03-.6-.08-.75s-.16-.26-.31-.31-.39-.09-.72-.11v-.27c.3.03.73.04,1.27.04.41,0,.77-.01,1.07-.04l4.83,7.45v-5.86c0-.36-.03-.62-.09-.79-.06-.17-.18-.3-.35-.38-.17-.08-.44-.13-.81-.14v-.27c.33.03.79.04,1.4.04.55,0,.97-.01,1.27-.04v.27Z"/><path class="cls-1" d="m42.26,115.67h-.51l-.04-.06-5.52-8.53v6.81c0,.34.03.6.08.75.05.14.14.24.28.3.16.07.41.12.76.13h.12v.53h-.14c-.32-.04-.79-.05-1.39-.05-.54,0-.97.01-1.26.04h-.14s0-.52,0-.52h.12c.3-.02.52-.07.66-.14.12-.06.21-.16.25-.31.05-.17.08-.42.08-.75v-6.66c0-.41-.04-.61-.08-.71-.04-.12-.12-.2-.23-.24-.14-.05-.37-.08-.68-.1h-.12v-.54h.14c.29.04.72.05,1.26.05.41,0,.76-.01,1.06-.04h.08s.04.06.04.06l4.6,7.1v-5.44c0-.34-.03-.59-.08-.75-.05-.14-.14-.24-.28-.3-.16-.07-.42-.12-.76-.13h-.12v-.53h.14c.32.04.79.05,1.39.05.54,0,.97-.01,1.26-.04h.14s0,.52,0,.52h-.12c-.3.02-.52.07-.66.14-.13.06-.21.16-.25.31-.05.17-.08.42-.08.75v8.3Zm-.37-.25h.12v-8.05c0-.36.03-.63.09-.82.06-.21.19-.37.38-.46.15-.08.36-.12.64-.15v-.02c-.29.02-.68.03-1.15.03-.53,0-.95-.01-1.27-.03v.02c.32.02.56.07.73.15.21.09.35.24.42.45.07.19.1.46.1.83v6.28l-5.02-7.74c-.29.02-.62.04-1,.04-.47,0-.86-.01-1.15-.03v.02c.28.02.49.06.64.11.19.07.32.2.38.39.06.17.09.43.09.79v6.66c0,.36-.03.63-.09.82-.06.21-.19.37-.38.46-.15.08-.36.12-.64.15v.02c.29-.02.68-.03,1.15-.03.53,0,.95.01,1.27.03v-.02c-.33-.02-.57-.07-.73-.15-.2-.09-.34-.24-.42-.45-.06-.19-.1-.46-.1-.84v-7.65l5.95,9.19Z"/><path class="cls-1" d="m115.43,7.26c0,.54.12.91.37,1.11.25.2.67.3,1.28.3v.36c-1.24-.05-2.03-.07-2.37-.07-.32,0-1.06.02-2.23.05l-.41.02v-.36c.61,0,1.06-.1,1.36-.31.3-.21.46-.57.46-1.1V3.11c0-.55-.06-.95-.17-1.21-.11-.26-.31-.43-.57-.51-.27-.09-.68-.13-1.24-.13v-.38c.83-.02,1.52-.1,2.07-.22.54-.12,1.03-.34,1.47-.65v7.26Z"/><path class="cls-1" d="m121.78,7.26c0,.54.12.91.37,1.11.25.2.67.3,1.28.3v.36c-1.24-.05-2.03-.07-2.37-.07-.32,0-1.06.02-2.23.05l-.41.02v-.36c.61,0,1.06-.1,1.36-.31.3-.21.46-.57.46-1.1V3.11c0-.55-.06-.95-.17-1.21-.11-.26-.31-.43-.57-.51-.27-.09-.68-.13-1.24-.13v-.38c.83-.02,1.52-.1,2.07-.22.54-.12,1.03-.34,1.47-.65v7.26Z"/><path class="cls-1" d="m135.44,4.91h-6.2v-1h6.2v1Z"/><path class="cls-1" d="m145.23,7.26c0,.54.12.91.37,1.11.25.2.67.3,1.28.3v.36c-1.24-.05-2.02-.07-2.37-.07-.32,0-1.06.02-2.23.05l-.41.02v-.36c.61,0,1.06-.1,1.36-.31.3-.21.46-.57.46-1.1V3.11c0-.55-.06-.95-.17-1.21-.11-.26-.31-.43-.58-.51s-.68-.13-1.24-.13v-.38c.83-.02,1.52-.1,2.07-.22.54-.12,1.03-.34,1.47-.65v7.26Z"/><path class="cls-1" d="m151.58,7.26c0,.54.12.91.37,1.11.25.2.67.3,1.28.3v.36c-1.24-.05-2.02-.07-2.37-.07-.32,0-1.06.02-2.23.05l-.41.02v-.36c.61,0,1.06-.1,1.36-.31.3-.21.46-.57.46-1.1V3.11c0-.55-.06-.95-.17-1.21-.11-.26-.31-.43-.58-.51s-.68-.13-1.24-.13v-.38c.83-.02,1.52-.1,2.07-.22.54-.12,1.03-.34,1.47-.65v7.26Z"/></g></svg>