<?xml version="1.0" encoding="UTF-8"?>
<svg version="1.1" xmlns="http://www.w3.org/2000/svg" width="160" height="160">
<path d="M0 0 C4.28048631 3.38219665 8.16452119 7.12833743 12 11 C12.38929687 10.49210937 12.77859375 9.98421875 13.1796875 9.4609375 C18.30759062 3.15148988 24.2222321 -1.4074107 32 -4 C40.80596463 -4.81333954 47.34348731 -3.39377778 54.25 2.1875 C59.50551194 7.06098062 62.42527542 12.96880446 63.23828125 20.0859375 C63.9277115 41.34941789 50.53521373 57.25978794 37 72 C35.96170023 73.14794989 34.9239261 74.29637547 33.88671875 75.4453125 C28.13657935 81.77564781 22.1985968 87.87891042 16.08203125 93.85546875 C13.96318583 95.82182322 13.96318583 95.82182322 13 98 C9.98611927 96.64941886 7.8965323 95.14395225 5.57421875 92.8046875 C4.94596191 92.17522217 4.31770508 91.54575684 3.67041016 90.8972168 C2.68886963 89.89621948 2.68886963 89.89621948 1.6875 88.875 C0.67502197 87.85176636 0.67502197 87.85176636 -0.35791016 86.80786133 C-4.17061933 82.9327321 -7.90835928 79.02444966 -11.41015625 74.86328125 C-12.5928117 73.47722069 -13.81580128 72.12537434 -15.05859375 70.79296875 C-26.3842364 58.64292924 -37.97226664 44.0206709 -40 27 C-40.10570312 26.22398438 -40.21140625 25.44796875 -40.3203125 24.6484375 C-40.91994263 16.43611182 -37.57745968 9.24458503 -32.32421875 3.01171875 C-23.14204685 -5.49498303 -10.58196609 -6.66682332 0 0 Z " fill="#E43097" transform="translate(44,59)"/>
<path d="M0 0 C4.46108288 2.23054144 7.58934514 5.38871838 11 9 C11.45890625 8.51789062 11.9178125 8.03578125 12.390625 7.5390625 C13.00421875 6.90742188 13.6178125 6.27578125 14.25 5.625 C14.85328125 4.99851562 15.4565625 4.37203125 16.078125 3.7265625 C20.49529784 -0.24171066 24.45475796 -0.49846516 30.2421875 -0.375 C35.30002834 0.31275173 38.08592668 2.75552117 41.3125 6.5390625 C44.61795795 11.38247658 44.82021118 16.30978493 44 22 C40.13097108 37.33102709 26.71821782 49.39398092 15.8125 60.1875 C13.03294039 62.67059608 13.03294039 62.67059608 12 65 C8.00832947 63.43682833 5.5829931 60.64005534 2.8125 57.5 C1.83464811 56.40754072 0.85678334 55.31509297 -0.12109375 54.22265625 C-0.60562012 53.67754395 -1.09014648 53.13243164 -1.58935547 52.57080078 C-2.86329634 51.15222419 -4.16636158 49.75993468 -5.47265625 48.37109375 C-13.73354958 39.54341529 -21.65846934 29.45067996 -22.4375 16.9375 C-21.76596558 10.89369019 -19.84109883 6.70959177 -15.375 2.5625 C-10.40270787 -0.70874482 -5.8550254 -0.59711307 0 0 Z " fill="#E32C95" transform="translate(109,9)"/>
<path d="M0 0 C4.79546436 2.54453211 8.36947674 6.02371262 12 10 C12 10.66 12 11.32 12 12 C12.66 12 13.32 12 14 12 C14.226875 11.443125 14.45375 10.88625 14.6875 10.3125 C16.37685957 7.33600932 18.49752705 5.32372488 21 3 C21.61875 2.401875 22.2375 1.80375 22.875 1.1875 C26.0465202 -0.58482011 28.42943325 -0.37584913 32 0 C36.27339997 1.83145713 39.88660324 4.80813866 42 9 C42.8076713 14.14272336 42.66455179 19.41104969 40 24 C39.01 24.495 39.01 24.495 38 25 C38 22.03 38 19.06 38 16 C28.72984652 12.50586523 18.69340813 12.50870644 9 14 C8.01 13.67 7.02 13.34 6 13 C-2.1238097 11.84845176 -2.1238097 11.84845176 -9.41015625 14.78515625 C-11.12532916 16.7820824 -12.62384728 18.75812211 -14 21 C-16.6979409 16.95308865 -16.65804393 13.75253951 -16 9 C-12.44295878 1.88591755 -7.97117847 -0.97891665 0 0 Z " fill="#F27DC4" transform="translate(107,12)"/>
<path d="M0 0 C4.93963949 2.8544638 8.48621388 7.06622731 10.625 12.375 C10.8203125 15.171875 10.8203125 15.171875 10.75 18.125 C10.73195312 19.10984375 10.71390625 20.0946875 10.6953125 21.109375 C10.67210937 21.85703125 10.64890625 22.6046875 10.625 23.375 C10.295 23.375 9.965 23.375 9.625 23.375 C9.625 21.395 9.625 19.415 9.625 17.375 C8.965 17.375 8.305 17.375 7.625 17.375 C6.965 15.725 6.305 14.075 5.625 12.375 C5.068125 12.519375 4.51125 12.66375 3.9375 12.8125 C-5.64527381 15.14344498 -15.97270882 17.0441868 -25.375 13.375 C-25.375 14.035 -25.375 14.695 -25.375 15.375 C-28.015 16.035 -30.655 16.695 -33.375 17.375 C-31.49292396 9.84669584 -24.60026255 3.82821999 -18.375 -0.625 C-12.44146813 -2.60284396 -5.73646881 -2.63331235 0 0 Z " fill="#F799D2" transform="translate(90.375,62.625)"/>
<path d="M0 0 C8.19237666 2.96095899 13.09610464 9.06879594 18 16 C17.67 16.66 17.34 17.32 17 18 C16.484375 17.835 15.96875 17.67 15.4375 17.5 C12.85347823 16.88487575 12.85347823 16.88487575 9.5625 17 C6 17 6 17 3.5 16.4375 C-0.70507576 15.70161174 -4.67216495 16.63786317 -8.75 17.75 C-11 18 -11 18 -12.8125 16.5625 C-13.204375 16.046875 -13.59625 15.53125 -14 15 C-13.01 14.67 -12.02 14.34 -11 14 C-11 13.34 -11 12.68 -11 12 C-14.96 13.32 -18.92 14.64 -23 16 C-23.144375 17.4025 -23.28875 18.805 -23.4375 20.25 C-23.74677501 23.25438581 -24.20439236 26.08500057 -25 29 C-27.34014442 24.31971116 -26.67416535 17.59360426 -25.38671875 12.640625 C-20.69262215 1.97034374 -10.87018291 -1.32595226 0 0 Z " fill="#F699D1" transform="translate(36,61)"/>
<path d="M0 0 C4.70335182 1.91395521 8.08388756 5.48027512 10.33984375 9.9921875 C12.51386544 16.60430082 11.28115206 23.38699483 8.515625 29.62890625 C6.19856157 33.25379672 3.1808501 35.47977187 -0.27734375 37.98046875 C-3.13279169 40.09849828 -5.62081691 42.41803772 -8.1875 44.875 C-12.05985325 48.42924525 -14.81088873 50.21035263 -20 51 C-20 50.01 -20 49.02 -20 48 C-19.11054687 47.60748047 -19.11054687 47.60748047 -18.203125 47.20703125 C-15.88256242 45.9356592 -14.52640908 44.63206431 -12.75 42.6875 C-9.25686733 39.08119889 -5.50262949 36.24613931 -1 34 C-0.34 34 0.32 34 1 34 C4.80291678 26.97923056 7.39787652 20.05834697 6 12 C4.59396827 9.84205766 4.59396827 9.84205766 3 8 C2.67 7.278125 2.34 6.55625 2 5.8125 C1.07270141 3.64763188 1.07270141 3.64763188 -2 3 C-7.29802777 2.61387255 -12.20180597 2.44096318 -17 5 C-11.68096961 -0.49633141 -7.55904056 -0.90833775 0 0 Z " fill="#E02591" transform="translate(142,9)"/>
<path d="M0 0 C3.62681315 1.68688984 6.59336303 3.79115071 9 7 C9.25 10.75 9.25 10.75 9 14 C8.28457031 13.79503906 7.56914062 13.59007812 6.83203125 13.37890625 C-0.79060262 11.31793539 -8.11966992 10.36859608 -16 10 C-13.39797345 2.44777658 -8.1236032 -1.20349677 0 0 Z " fill="#F27CC4" transform="translate(139,12)"/>
<path d="M0 0 C2.55860387 1.41482121 4.58668339 2.96501943 6.5 5.1875 C6.5 5.8475 6.5 6.5075 6.5 7.1875 C-4.39 7.1875 -15.28 7.1875 -26.5 7.1875 C-19.25293803 -1.50897436 -10.85346584 -5.20645963 0 0 Z " fill="#FBD7F0" transform="translate(90.5,62.8125)"/>
<path d="M0 0 C3.66630099 1.5815416 6.95657922 3.40097252 10 6 C10 6.66 10 7.32 10 8 C9.38592285 8.02505615 8.7718457 8.0501123 8.13916016 8.07592773 C5.30097366 8.19345264 2.4629956 8.31545526 -0.375 8.4375 C-1.82326172 8.49647461 -1.82326172 8.49647461 -3.30078125 8.55664062 C-9.56262312 8.82980822 -15.77097309 9.30323128 -22 10 C-21.22107042 6.28679914 -20.31875199 4.98419061 -17.1875 2.75 C-11.57151888 -0.74438825 -6.45082275 -1.28515744 0 0 Z " fill="#FAB4E5" transform="translate(36,61)"/>
<path d="M0 0 C0 0.66 0 1.32 0 2 C0.66 2 1.32 2 2 2 C2.33 1.01 2.66 0.02 3 -1 C11.71624869 -0.63099093 19.68549452 0.30202781 28 3 C28.66 1.68 29.32 0.36 30 -1 C30.38095238 9.8994709 30.38095238 9.8994709 28 14 C27.34 14.33 26.68 14.66 26 15 C26 12.03 26 9.06 26 6 C16.72984652 2.50586523 6.69340813 2.50870644 -3 4 C-3.99 3.67 -4.98 3.34 -6 3 C-8.06145107 2.931009 -10.12501401 2.91532273 -12.1875 2.9375 C-13.27417969 2.94652344 -14.36085938 2.95554687 -15.48046875 2.96484375 C-16.31191406 2.97644531 -17.14335938 2.98804688 -18 3 C-18.33 2.34 -18.66 1.68 -19 1 C-16.20910735 0.63843896 -13.41759278 0.28545167 -10.625 -0.0625 C-9.43390625 -0.2181543 -9.43390625 -0.2181543 -8.21875 -0.37695312 C-2.2265625 -1.11328125 -2.2265625 -1.11328125 0 0 Z " fill="#EF5EB6" transform="translate(119,22)"/>
<path d="M0 0 C3.91627663 -0.14522934 7.83186153 -0.23404757 11.75 -0.3125 C13.41675781 -0.3753418 13.41675781 -0.3753418 15.1171875 -0.43945312 C23.38101227 -0.56390832 23.38101227 -0.56390832 26.765625 2.51953125 C27.17296875 3.33808594 27.5803125 4.15664062 28 5 C27.67 5.66 27.34 6.32 27 7 C26.484375 6.835 25.96875 6.67 25.4375 6.5 C22.85347823 5.88487575 22.85347823 5.88487575 19.5625 6 C16 6 16 6 13.5 5.4375 C9.29492424 4.70161174 5.32783505 5.63786317 1.25 6.75 C-1 7 -1 7 -2.8125 5.5625 C-3.204375 5.046875 -3.59625 4.53125 -4 4 C-3.01 3.67 -2.02 3.34 -1 3 C-0.67 2.01 -0.34 1.02 0 0 Z " fill="#F27FC5" transform="translate(26,72)"/>
<path d="M0 0 C2.50498725 2.18306118 4.77328092 4.53611558 7 7 C7.53625 6.401875 8.0725 5.80375 8.625 5.1875 C13.60901262 0.59696206 17.9703254 -0.48456819 24.5859375 -0.3046875 C27.8211957 0.10364606 30.26015513 1.26957166 33 3 C32.34 3.66 31.68 4.32 31 5 C29.9790625 4.2575 29.9790625 4.2575 28.9375 3.5 C25.21507425 1.59918685 23.14179773 1.42871755 19 2 C13.77804104 4.56171572 11.02358095 8.18466738 8 13 C7.34 13 6.68 13 6 13 C4.44921875 11.35546875 4.44921875 11.35546875 2.6875 9.1875 C-1.36500694 4.43859952 -4.7119958 1.89828631 -11 1 C-7.19239289 -2.80760711 -4.60359012 -2.1247339 0 0 Z " fill="#E32899" transform="translate(113,11)"/>
<path d="M0 0 C2.75436774 1.04950119 4.59378409 2.2500248 7 4 C7 4.33 7 4.66 7 5 C-1.25 5 -9.5 5 -18 5 C-12.16804796 -0.83195204 -8.04868641 -0.78948899 0 0 Z " fill="#FBD3EF" transform="translate(36,61)"/>
<path d="M0 0 C0 0.66 0 1.32 0 2 C-0.99 2.33 -1.98 2.66 -3 3 C-3.969375 2.360625 -4.93875 1.72125 -5.9375 1.0625 C-11.00173615 -1.98888965 -16.27707641 -2.00818343 -22 -1 C-26.26824899 1.02310068 -29.67372785 3.67372785 -33 7 C-33 4.8125 -33 4.8125 -32 2 C-21.43585036 -6.87489421 -11.4194359 -6.55213535 0 0 Z " fill="#F034A8" transform="translate(46,63)"/>
<path d="M0 0 C3.22590345 1.53963574 5.60753646 3.35569819 8 6 C7.67 6.99 7.34 7.98 7 9 C6.67 8.34 6.34 7.68 6 7 C0.06 6.67 -5.88 6.34 -12 6 C-8.97646368 -0.04707264 -6.47425382 -0.55812533 0 0 Z " fill="#FAB6E5" transform="translate(139,12)"/>
<path d="M0 0 C0.66 0.99 1.32 1.98 2 3 C-8.56 3 -19.12 3 -30 3 C-26.34094905 -4.31810191 -6.78442548 -1.87107313 0 0 Z " fill="#FBB6E5" transform="translate(94,67)"/>
<path d="M0 0 C2.87603344 0.28338275 5.75053851 0.57641253 8.625 0.875 C9.43324219 0.95363281 10.24148437 1.03226562 11.07421875 1.11328125 C15.63499049 1.59531404 19.68545585 2.3384118 24 4 C17.73875963 6.08708012 11.055584 5.54971958 5 3 C5 3.66 5 4.32 5 5 C2.36 5.66 -0.28 6.32 -3 7 C-2 3 -2 3 0 0 Z " fill="#F171BF" transform="translate(60,73)"/>
<path d="M0 0 C23.62856588 -0.38948186 23.62856588 -0.38948186 31 3 C30.67 3.66 30.34 4.32 30 5 C24.14565235 5.22516722 18.81583815 4.54520761 13.0546875 3.51171875 C8.72187129 2.78588892 4.37581079 2.3678779 0 2 C0 1.34 0 0.68 0 0 Z " fill="#F381C6" transform="translate(61,72)"/>
<path d="M0 0 C5.53846154 3.07692308 5.53846154 3.07692308 7 6 C1.06 5.67 -4.88 5.34 -11 5 C-8.14349137 -0.71301727 -6.17729171 -0.51477431 0 0 Z " fill="#FAB8E6" transform="translate(107,12)"/>
<path d="M0 0 C2.77996107 0 5.42492567 0.21297929 8.1875 0.5 C9.08855469 0.5928125 9.98960938 0.685625 10.91796875 0.78125 C11.60503906 0.8534375 12.29210938 0.925625 13 1 C9.10272859 3.01885681 5.11802472 4.4900576 1 6 C0.93941406 6.60328125 0.87882813 7.2065625 0.81640625 7.828125 C0.69072266 9.02695313 0.69072266 9.02695313 0.5625 10.25 C0.48128906 11.03890625 0.40007813 11.8278125 0.31640625 12.640625 C0.02365007 14.82364639 -0.42064419 16.8773182 -1 19 C-2.34116414 16.31767173 -2.16904021 14.18167741 -2.1875 11.1875 C-2.20167969 10.14980469 -2.21585938 9.11210938 -2.23046875 8.04296875 C-1.99714427 4.96229467 -1.30118886 2.78238408 0 0 Z " fill="#EF7AC1" transform="translate(12,71)"/>
<path d="M0 0 C0.33 0.66 0.66 1.32 1 2 C2.26457031 1.98839844 3.52914062 1.97679688 4.83203125 1.96484375 C6.49218602 1.95546434 8.15234239 1.9463643 9.8125 1.9375 C10.64587891 1.92912109 11.47925781 1.92074219 12.33789062 1.91210938 C13.14033203 1.90888672 13.94277344 1.90566406 14.76953125 1.90234375 C15.87711792 1.89448853 15.87711792 1.89448853 17.00708008 1.88647461 C19 2 19 2 22 3 C22 4.65 22 6.3 22 8 C21.67 7.34 21.34 6.68 21 6 C18.77187153 5.53044799 18.77187153 5.53044799 16.08984375 5.3671875 C15.10048828 5.28339844 14.11113281 5.19960938 13.09179688 5.11328125 C12.05087891 5.03464844 11.00996094 4.95601562 9.9375 4.875 C8.89271484 4.78863281 7.84792969 4.70226562 6.77148438 4.61328125 C4.18155359 4.40041023 1.5912245 4.19638621 -1 4 C-0.67 2.68 -0.34 1.36 0 0 Z " fill="#F697D1" transform="translate(126,16)"/>
<path d="M0 0 C0.8125 2.125 0.8125 2.125 1 4 C0.319375 3.835 -0.36125 3.67 -1.0625 3.5 C-4.07843746 2.90211705 -4.07843746 2.90211705 -7.5 3 C-11.3505926 3 -14.54215165 2.72892418 -18 1 C-12.62185507 -1.97566295 -5.43671943 -3.56784712 0 0 Z " fill="#F069BB" transform="translate(53,75)"/>
<path d="M0 0 C0.33 0 0.66 0 1 0 C1.38095238 10.8994709 1.38095238 10.8994709 -1 15 C-1.99 15.495 -1.99 15.495 -3 16 C-3 13.03 -3 10.06 -3 7 C-3.99 6.67 -4.98 6.34 -6 6 C-6 5.34 -6 4.68 -6 4 C-4.35 4 -2.7 4 -1 4 C-0.67 2.68 -0.34 1.36 0 0 Z " fill="#EF56B1" transform="translate(148,21)"/>
<path d="M0 0 C0.928125 0.495 1.85625 0.99 2.8125 1.5 C2.1525 2.16 1.4925 2.82 0.8125 3.5 C0.1009375 3.17515625 -0.610625 2.8503125 -1.34375 2.515625 C-4.32715709 1.45012247 -6.53429951 1.23228539 -9.6875 1.25 C-10.6053125 1.24484375 -11.523125 1.2396875 -12.46875 1.234375 C-15.3653282 1.51737402 -17.55125653 2.29649755 -20.1875 3.5 C-20.1875 2.51 -20.1875 1.52 -20.1875 0.5 C-13.75874722 -2.41266597 -6.56707481 -2.82210343 0 0 Z " fill="#F240B7" transform="translate(90.1875,60.5)"/>
<path d="M0 0 C0.99 1.485 0.99 1.485 2 3 C2.66 2.67 3.32 2.34 4 2 C5.67654729 2.27942455 7.34608154 2.60828247 9 3 C8.04270084 4.12588014 7.08412105 5.2506715 6.125 6.375 C5.59132813 7.00148438 5.05765625 7.62796875 4.5078125 8.2734375 C3.38567993 9.55836651 2.20628025 10.79371975 1 12 C0.03929566 9.11788698 -0.10581883 7.30149956 -0.0625 4.3125 C-0.05347656 3.50425781 -0.04445313 2.69601563 -0.03515625 1.86328125 C-0.02355469 1.24839844 -0.01195313 0.63351563 0 0 Z " fill="#ED61B5" transform="translate(91,21)"/>
<path d="M0 0 C9.9 0.33 19.8 0.66 30 1 C30 1.33 30 1.66 30 2 C29.41621582 2.02505615 28.83243164 2.0501123 28.23095703 2.07592773 C25.52883687 2.19356199 22.82692701 2.31551273 20.125 2.4375 C19.2071875 2.47681641 18.289375 2.51613281 17.34375 2.55664062 C11.2022881 2.83776388 5.11047926 3.32318013 -1 4 C-0.67 2.68 -0.34 1.36 0 0 Z " fill="#FAA4D9" transform="translate(15,67)"/>
<path d="M0 0 C0.99 0.66 1.98 1.32 3 2 C3 2.66 3 3.32 3 4 C-4.92 4 -12.84 4 -21 4 C-21 3.67 -21 3.34 -21 3 C-13.96094956 2.06145994 -7.09727428 1.89191968 0 2 C0 1.34 0 0.68 0 0 Z " fill="#F58DCD" transform="translate(46,68)"/>
<path d="M0 0 C0.33 0.66 0.66 1.32 1 2 C1.95261719 1.98839844 2.90523438 1.97679688 3.88671875 1.96484375 C5.14097656 1.95582031 6.39523438 1.94679688 7.6875 1.9375 C8.92886719 1.92589844 10.17023438 1.91429688 11.44921875 1.90234375 C14.46235454 1.98521327 17.08275339 2.29160551 20 3 C20 3.33 20 3.66 20 4 C9.11 4.495 9.11 4.495 -2 5 C-1.34 3.35 -0.68 1.7 0 0 Z " fill="#F89ED5" transform="translate(95,15)"/>
<path d="M0 0 C2.39652528 -0.08139142 4.79025436 -0.14067009 7.1875 -0.1875 C7.86103516 -0.21263672 8.53457031 -0.23777344 9.22851562 -0.26367188 C13.6719384 -0.32869757 16.50367569 0.19615157 20 3 C20 3.66 20 4.32 20 5 C19.01 5.33 18.02 5.66 17 6 C15.36966806 5.00183759 13.74019596 4.00221422 12.1171875 2.9921875 C8.29091066 1.19906145 4.17184963 1.16788127 0 1 C0 0.67 0 0.34 0 0 Z " fill="#F34BBC" transform="translate(26,60)"/>
<path d="M0 0 C0.66 0.33 1.32 0.66 2 1 C-0.09885314 2.98507793 -2.20363882 4.96310393 -4.3125 6.9375 C-5.20485352 7.78344727 -5.20485352 7.78344727 -6.11523438 8.64648438 C-6.69208984 9.18466797 -7.26894531 9.72285156 -7.86328125 10.27734375 C-8.39219971 10.77484131 -8.92111816 11.27233887 -9.46606445 11.78491211 C-11 13 -11 13 -14 14 C-12.57904457 10.6673468 -10.8834126 8.76393478 -8.125 6.4375 C-7.44695312 5.85871094 -6.76890625 5.27992187 -6.0703125 4.68359375 C-4.08348175 3.06788799 -2.06062859 1.5200601 0 0 Z " fill="#DD1D81" transform="translate(140,45)"/>
<path d="M0 0 C3.03336186 -0.22893297 5.97465051 -0.36475845 9 0 C11.0625 2 11.0625 2 12 4 C7.45194365 4.17835515 4.1205746 3.99785435 0 2 C0 1.34 0 0.68 0 0 Z " fill="#FBDCF2" transform="translate(133,13)"/>
<path d="M0 0 C0.90105469 0.01804687 1.80210938 0.03609375 2.73046875 0.0546875 C3.41753906 0.07789062 4.10460938 0.10109375 4.8125 0.125 C4.8125 0.785 4.8125 1.445 4.8125 2.125 C-0.43566924 5.17626119 -0.43566924 5.17626119 -3.9375 4.9375 C-6.1875 4.125 -6.1875 4.125 -8.1875 2.125 C-4.87379 -0.08414 -3.8428979 -0.09981553 0 0 Z " fill="#F170BF" transform="translate(30.1875,73.875)"/>
<path d="M0 0 C-0.55550695 3.59905908 -1.74887248 4.99909799 -4.5625 7.25 C-5.20316406 7.77078125 -5.84382813 8.2915625 -6.50390625 8.828125 C-6.99761719 9.21484375 -7.49132813 9.6015625 -8 10 C-7.61508669 5.50934475 -5.14531178 0 0 0 Z " fill="#EE38A7" transform="translate(70,61)"/>
<path d="M0 0 C0.99 0 1.98 0 3 0 C4.32229189 2.64458379 4.09677194 4.67761301 4.0625 7.625 C4.05347656 8.62789062 4.04445313 9.63078125 4.03515625 10.6640625 C4.02355469 11.43492188 4.01195313 12.20578125 4 13 C3.67 13 3.34 13 3 13 C3 11.02 3 9.04 3 7 C2.34 7 1.68 7 1 7 C-1 4 -1 4 -0.625 1.8125 C-0.41875 1.214375 -0.2125 0.61625 0 0 Z " fill="#F17EC4" transform="translate(97,73)"/>
<path d="M0 0 C3.625 1.5 3.625 1.5 6 3 C5.34 3.66 4.68 4.32 4 5 C3.319375 4.505 2.63875 4.01 1.9375 3.5 C-1.70247525 1.64128923 -3.95462873 1.56656736 -8 2 C-10.87146994 3.36997157 -10.87146994 3.36997157 -13 5 C-12.625 3.0625 -12.625 3.0625 -12 1 C-8.31714676 -0.84142662 -4.02829909 -0.36956872 0 0 Z " fill="#EF34AC" transform="translate(140,11)"/>
<path d="M0 0 C1.32 1.32 2.64 2.64 4 4 C-0.95 3.67 -5.9 3.34 -11 3 C-6.58289996 -0.31282503 -5.31728688 -0.66466086 0 0 Z " fill="#FBD2F1" transform="translate(109,13)"/>
<path d="M0 0 C2.10353495 -0.0810206 4.20795952 -0.13919907 6.3125 -0.1875 C7.48425781 -0.22230469 8.65601562 -0.25710937 9.86328125 -0.29296875 C13 0 13 0 14.91796875 1.51171875 C15.27503906 2.00285156 15.63210937 2.49398437 16 3 C15.01 3.495 15.01 3.495 14 4 C12.9790625 3.566875 12.9790625 3.566875 11.9375 3.125 C8.01408188 1.62241434 4.16410249 1.34474051 0 1 C0 0.67 0 0.34 0 0 Z " fill="#F355C4" transform="translate(77,60)"/>
<path d="M0 0 C0.33 0.66 0.66 1.32 1 2 C2.65 2 4.3 2 6 2 C6 2.66 6 3.32 6 4 C3.36 4.66 0.72 5.32 -2 6 C-1 2 -1 2 0 0 Z " fill="#EE60B6" transform="translate(59,74)"/>
<path d="M0 0 C2.25 -0.25 2.25 -0.25 5 0 C7.3125 2 7.3125 2 9 4 C8.34 4.66 7.68 5.32 7 6 C4.56070254 4.07423885 2.19909405 2.19909405 0 0 Z " fill="#F13EB0" transform="translate(107,12)"/>
<path d="M0 0 C0.33 0.66 0.66 1.32 1 2 C-1.3125 4.5 -1.3125 4.5 -4 7 C-4.99 7 -5.98 7 -7 7 C-4.69 4.69 -2.38 2.38 0 0 Z " fill="#DE1F82" transform="translate(149,37)"/>
</svg>
