<svg width="275" height="239" viewBox="0 0 275 239" fill="none" xmlns="http://www.w3.org/2000/svg">
<g clip-path="url(#clip0_0_3)">
<path d="M66.65 219.21C65.88 219.69 65.49 219.93 64.71 220.4C65.52 220.8 65.93 221 66.75 221.39C66.65 221.45 66.6 221.47 66.51 221.53C65.7 221.14 65.29 220.94 64.48 220.54C63.79 220.95 63.45 221.15 62.75 221.55C62.61 221.48 62.54 221.44 62.41 221.37C63.11 220.97 63.45 220.77 64.14 220.36C63.21 219.89 62.75 219.66 61.83 219.17C61.13 219.56 60.78 219.76 60.08 220.15C59.94 220.08 59.88 220.04 59.74 219.97C60.45 219.59 60.8 219.39 61.49 219C60.66 218.56 60.25 218.34 59.43 217.89C59.52 217.84 59.57 217.81 59.67 217.76C60.49 218.21 60.9 218.43 61.73 218.87C62.52 218.42 62.92 218.19 63.7 217.73C62.89 217.31 62.48 217.1 61.67 216.66C61.76 216.6 61.8 216.57 61.89 216.52C62.7 216.96 63.11 217.17 63.93 217.59C64.63 217.18 64.97 216.98 65.66 216.56C65.79 216.63 65.86 216.66 65.99 216.73C65.3 217.15 64.96 217.36 64.26 217.77C65.17 218.23 65.62 218.46 66.54 218.91C67.23 218.49 67.57 218.27 68.25 217.84C68.38 217.9 68.45 217.94 68.58 218C67.9 218.43 67.56 218.65 66.88 219.07C67.68 219.46 68.09 219.65 68.89 220.03C68.81 220.09 68.76 220.12 68.68 220.19C67.87 219.81 67.46 219.62 66.65 219.22V219.21ZM66.31 219.05C65.39 218.6 64.94 218.37 64.03 217.91C63.25 218.37 62.86 218.6 62.06 219.06C62.98 219.54 63.44 219.78 64.37 220.24C65.15 219.77 65.54 219.53 66.31 219.05Z" fill="white"/>
<path d="M74.86 226.69C74.54 227.03 74.23 227.43 73.91 227.9C73.24 227.61 72.11 227.14 70.52 226.45C68.63 225.63 67.21 224.99 66.25 224.57C66.32 224.5 66.35 224.47 66.42 224.4C66.78 224.55 67.05 224.64 67.24 224.68C67.43 224.72 67.61 224.7 67.77 224.63C67.93 224.56 68.12 224.42 68.34 224.19C70.06 222.46 70.91 221.59 72.57 219.82C72.75 219.63 72.87 219.48 72.92 219.36C72.98 219.21 72.96 219.08 72.85 218.98C72.74 218.87 72.51 218.73 72.16 218.56C72.23 218.49 72.26 218.45 72.32 218.38C72.7 218.57 73.29 218.85 74.09 219.19C74.84 219.51 75.44 219.75 75.88 219.9C75.82 219.97 75.79 220.01 75.72 220.08C75.37 219.95 75.1 219.87 74.92 219.85C74.74 219.82 74.57 219.85 74.42 219.93C74.27 220.01 74.09 220.16 73.88 220.39C72.24 222.17 71.4 223.06 69.69 224.8C69.51 224.98 69.39 225.13 69.33 225.26C69.26 225.41 69.29 225.54 69.42 225.65C69.55 225.76 69.8 225.9 70.17 226.06C70.6 226.25 70.82 226.34 71.25 226.52C71.86 226.78 72.38 226.92 72.8 226.95C73.22 226.98 73.61 226.9 73.97 226.73C74.33 226.55 74.75 226.25 75.22 225.83C75.36 225.88 75.42 225.91 75.56 225.96C75.44 226.07 75.2 226.31 74.84 226.69H74.86Z" fill="white"/>
<path d="M79.79 224.41C79.86 224.23 79.79 224.1 79.57 224.02C79.35 223.94 79.12 223.95 78.88 224.06C78.64 224.17 78.35 224.38 78.01 224.69C77.87 224.82 77.8 224.88 77.65 225.01C77.54 224.97 77.48 224.95 77.37 224.9C77.64 224.64 77.78 224.52 78.05 224.26C78.4 223.92 78.77 223.73 79.15 223.69C79.53 223.65 79.9 223.69 80.26 223.82C80.89 224.05 81.13 224.39 80.97 224.85C80.88 225.09 80.71 225.34 80.44 225.6C79.34 226.69 78.79 227.23 77.66 228.3C77.52 228.44 77.43 228.56 77.39 228.66C77.32 228.84 77.41 228.97 77.65 229.06C77.86 229.14 78.09 229.13 78.33 229.03C78.57 228.93 78.87 228.72 79.22 228.39C79.36 228.26 79.43 228.19 79.57 228.06C79.68 228.1 79.74 228.12 79.85 228.16C79.58 228.42 79.45 228.55 79.18 228.81C78.84 229.14 78.47 229.33 78.08 229.38C77.69 229.43 77.3 229.38 76.92 229.25C76.22 228.99 75.95 228.63 76.12 228.19C76.2 227.98 76.4 227.73 76.71 227.44C77.84 226.38 78.4 225.84 79.51 224.76C79.65 224.61 79.74 224.5 79.77 224.4L79.79 224.41ZM81.49 221.71C81.77 221.62 82.04 221.62 82.31 221.71C82.53 221.79 82.68 221.9 82.78 222.06C82.87 222.22 82.89 222.37 82.84 222.53C82.76 222.75 82.59 222.9 82.31 222.99C82.03 223.08 81.75 223.07 81.48 222.98C81.27 222.9 81.12 222.79 81.02 222.64C80.92 222.49 80.91 222.33 80.96 222.17C81.04 221.95 81.22 221.8 81.49 221.71Z" fill="white"/>
<path d="M89.46 224.01C89.66 224.23 89.73 224.45 89.66 224.68C89.6 224.87 89.46 225.02 89.22 225.12C88.98 225.22 88.73 225.23 88.46 225.15C88.28 225.09 88.14 225.02 88.06 224.92C87.97 224.82 87.96 224.71 88 224.6C88.06 224.43 88.17 224.29 88.36 224.21C88.55 224.13 88.78 224.09 89.04 224.11C89.06 224.04 89.01 223.96 88.9 223.87C88.79 223.78 88.64 223.7 88.46 223.65C88.17 223.56 87.87 223.58 87.54 223.68C87.3 223.76 87.06 223.93 86.83 224.19C86.6 224.45 86.29 224.85 85.9 225.38C85.78 225.55 85.71 225.63 85.59 225.8C85.59 225.8 85.59 225.8 85.59 225.81C86.28 226.03 86.62 226.14 87.31 226.35C87.25 226.43 87.22 226.47 87.15 226.54C86.46 226.33 86.11 226.22 85.42 226C83.43 228.6 82.41 229.88 80.32 232.42C79.76 232.25 79.29 232.14 78.89 232.09C81.05 229.52 82.11 228.22 84.15 225.59C83.63 225.42 83.36 225.33 82.84 225.15C82.9 225.07 82.94 225.04 83 224.96C83.52 225.14 83.78 225.23 84.31 225.4C84.31 225.4 84.31 225.4 84.31 225.39C84.72 224.86 85.1 224.45 85.45 224.14C85.8 223.84 86.17 223.62 86.56 223.48C86.83 223.38 87.15 223.33 87.5 223.33C87.85 223.33 88.19 223.38 88.53 223.48C88.95 223.61 89.26 223.78 89.46 224V224.01Z" fill="white"/>
<path d="M90.81 229.69C89.78 229.89 88.63 229.97 87.38 229.9C87.16 230.24 87 230.58 86.9 230.92C86.69 231.63 86.93 232.09 87.64 232.29C88.51 232.54 89.41 232.39 90.3 231.84C90.39 231.9 90.43 231.93 90.52 232C90.09 232.32 89.55 232.55 88.91 232.69C88.27 232.83 87.64 232.8 87.03 232.62C86.4 232.43 85.94 232.15 85.67 231.78C85.39 231.41 85.34 230.97 85.49 230.46C85.66 229.9 86.08 229.34 86.74 228.78C87.4 228.21 88.17 227.79 89.06 227.52C89.95 227.24 90.83 227.22 91.7 227.46C92.01 227.54 92.26 227.68 92.43 227.86C92.6 228.04 92.66 228.25 92.6 228.49C92.44 229.09 91.85 229.5 90.82 229.71L90.81 229.69ZM90.14 227.69C89.67 227.86 89.2 228.12 88.73 228.48C88.26 228.84 87.85 229.25 87.52 229.71C88.54 229.75 89.29 229.71 89.76 229.59C90.19 229.48 90.55 229.3 90.84 229.04C91.13 228.79 91.32 228.48 91.42 228.13C91.47 227.93 91.49 227.79 91.47 227.71C91.45 227.63 91.4 227.58 91.32 227.56C91.01 227.47 90.62 227.52 90.15 227.68L90.14 227.69Z" fill="white"/>
<path d="M94.01 233.64C93.97 233.8 94.02 233.92 94.16 234.01C94.3 234.1 94.56 234.2 94.96 234.31C94.91 234.39 94.89 234.44 94.85 234.52C94.38 234.39 93.73 234.22 92.9 234.01C92.04 233.8 91.38 233.64 90.94 233.54C90.99 233.46 91.02 233.42 91.08 233.34C91.44 233.42 91.72 233.46 91.91 233.46C92.1 233.46 92.27 233.41 92.41 233.31C92.55 233.21 92.71 233.03 92.88 232.78C94.25 230.77 94.91 229.75 96.22 227.71C96.36 227.47 96.44 227.3 96.46 227.2C96.5 227.03 96.46 226.91 96.32 226.82C96.19 226.73 95.94 226.64 95.58 226.54C95.63 226.46 95.66 226.42 95.71 226.33C96.1 226.45 96.72 226.61 97.56 226.8C98.34 226.98 98.97 227.1 99.44 227.18C99.39 227.26 99.37 227.31 99.32 227.39C98.96 227.33 98.68 227.3 98.5 227.31C98.32 227.31 98.16 227.37 98.03 227.48C97.9 227.58 97.75 227.77 97.59 228.03C96.31 230.08 95.65 231.1 94.31 233.13C94.15 233.39 94.06 233.56 94.04 233.65L94.01 233.64Z" fill="white"/>
<path d="M97.84 235.08C97.93 235.12 98.07 235.15 98.25 235.19C98.72 235.29 99.11 235.26 99.44 235.12C99.77 234.97 99.97 234.72 100.04 234.35C100.09 234.11 100.07 233.86 100 233.61C99.92 233.36 99.77 233.05 99.55 232.7C99.28 232.29 99.08 231.95 98.97 231.69C98.86 231.44 98.84 231.16 98.9 230.86C98.96 230.55 99.13 230.3 99.39 230.1C99.65 229.9 99.97 229.77 100.35 229.7C100.73 229.63 101.13 229.64 101.55 229.73C102.07 229.83 102.49 229.98 102.81 230.2C103.13 230.41 103.26 230.7 103.2 231.06C103.18 231.2 103.09 231.32 102.95 231.43C102.81 231.54 102.63 231.57 102.39 231.53C102.22 231.5 102.08 231.43 101.98 231.31C101.88 231.2 101.84 231.07 101.87 230.94C101.92 230.7 102.1 230.47 102.43 230.26C102.26 230.13 102.02 230.04 101.71 229.98C101.33 229.91 101 229.94 100.72 230.09C100.44 230.24 100.26 230.47 100.2 230.8C100.16 231 100.17 231.17 100.23 231.33C100.29 231.49 100.42 231.73 100.61 232.04C100.7 232.18 100.74 232.25 100.83 232.39C101.07 232.8 101.24 233.14 101.34 233.41C101.44 233.69 101.47 233.96 101.42 234.22C101.36 234.56 101.18 234.84 100.88 235.07C100.58 235.3 100.22 235.44 99.78 235.51C99.34 235.58 98.88 235.57 98.4 235.47C97.81 235.35 97.33 235.15 96.97 234.88C96.61 234.61 96.47 234.28 96.55 233.91C96.58 233.78 96.65 233.68 96.77 233.59C96.89 233.51 97.05 233.49 97.26 233.53C97.48 233.58 97.64 233.68 97.72 233.84C97.8 234 97.82 234.18 97.78 234.38C97.75 234.51 97.68 234.7 97.55 234.94C97.64 235 97.74 235.05 97.84 235.08Z" fill="white"/>
<path d="M113.45 229.41C113.13 229.93 112.9 230.38 112.74 230.7C112.61 230.96 112.5 231.19 112.45 231.39C112.31 231.37 112.24 231.37 112.1 231.35C112.24 230.92 112.32 230.62 112.34 230.45C112.38 230.12 112.29 229.88 112.09 229.73C111.89 229.57 111.5 229.46 110.94 229.39C110.51 229.34 110.29 229.31 109.86 229.25C109.5 229.2 109.24 229.19 109.06 229.21C108.88 229.23 108.73 229.29 108.6 229.41C108.47 229.52 108.34 229.72 108.2 229.99C107.67 231.01 107.4 231.52 106.85 232.54C107.25 232.6 107.45 232.63 107.85 232.69C108.21 232.74 108.51 232.72 108.76 232.63C109.01 232.54 109.21 232.41 109.37 232.27C109.52 232.12 109.68 231.92 109.85 231.68C109.89 231.61 109.94 231.53 110 231.46C110.14 231.48 110.21 231.49 110.35 231.5C110.07 231.98 109.84 232.41 109.64 232.79C109.59 232.89 109.56 232.94 109.51 233.04C109.31 233.43 109.08 233.94 108.8 234.6C108.66 234.58 108.59 234.57 108.45 234.55C108.48 234.46 108.5 234.42 108.53 234.33C108.55 234.28 108.57 234.2 108.61 234.09C108.65 233.98 108.67 233.88 108.68 233.8C108.71 233.57 108.66 233.38 108.52 233.23C108.38 233.08 108.12 232.98 107.73 232.92C107.33 232.86 107.13 232.83 106.72 232.77C106.16 233.8 105.88 234.32 105.31 235.35C105.18 235.57 105.1 235.75 105.08 235.89C105.05 236.05 105.11 236.17 105.26 236.24C105.41 236.31 105.68 236.38 106.08 236.44C106.54 236.51 106.76 236.54 107.22 236.61C107.87 236.7 108.39 236.71 108.79 236.64C109.19 236.57 109.54 236.41 109.83 236.16C110.12 235.91 110.43 235.54 110.77 235.03C110.91 235.05 110.98 235.06 111.13 235.07C110.99 235.28 110.85 235.55 110.69 235.85C110.48 236.25 110.27 236.73 110.09 237.26C109.38 237.15 108.18 236.99 106.5 236.73C104.5 236.43 102.99 236.18 101.98 236.02C102.03 235.93 102.05 235.89 102.1 235.81C102.48 235.86 102.76 235.88 102.95 235.87C103.14 235.86 103.3 235.79 103.44 235.69C103.58 235.58 103.72 235.39 103.87 235.12C105.08 233.01 105.66 231.94 106.81 229.81C106.94 229.58 107.01 229.4 107.03 229.27C107.05 229.11 107 228.99 106.86 228.92C106.72 228.84 106.47 228.77 106.1 228.69C106.14 228.6 106.17 228.56 106.21 228.47C107.17 228.65 108.6 228.88 110.49 229.12C111.87 229.3 112.86 229.39 113.44 229.43L113.45 229.41Z" fill="white"/>
<path d="M119.36 236.2C119.48 236.2 119.54 236.21 119.66 236.22C119.48 236.55 119.4 236.71 119.22 237.04C118.98 237.45 118.7 237.74 118.36 237.9C118.02 238.07 117.68 238.14 117.33 238.11C117.13 238.1 116.96 238.06 116.82 237.99C116.68 237.92 116.56 237.84 116.49 237.74C116.4 237.62 116.37 237.48 116.38 237.33C116.39 237.17 116.44 236.99 116.53 236.8C116.62 236.61 116.68 236.48 116.7 236.43C116.84 236.11 116.91 235.95 117.04 235.62C116.48 236.44 115.92 237.02 115.37 237.36C114.82 237.7 114.26 237.84 113.69 237.79C113.21 237.74 112.85 237.58 112.63 237.3C112.4 237.02 112.32 236.67 112.36 236.25C112.43 235.63 112.73 234.97 113.25 234.25C113.77 233.53 114.4 232.94 115.15 232.47C115.9 232 116.62 231.79 117.34 231.85C117.61 231.87 117.83 231.96 117.99 232.13C118.15 232.3 118.24 232.52 118.25 232.8C118.37 232.52 118.43 232.38 118.54 232.1C119.09 232.12 119.56 232.1 119.94 232.03C119.07 234.02 118.62 235.01 117.69 236.99C117.68 237.02 117.65 237.08 117.61 237.16C117.57 237.25 117.55 237.33 117.55 237.4C117.54 237.59 117.64 237.7 117.88 237.71C118.34 237.74 118.77 237.38 119.16 236.62C119.25 236.45 119.29 236.37 119.37 236.21L119.36 236.2ZM115.27 237.08C115.71 236.79 116.14 236.38 116.57 235.87C117 235.35 117.36 234.79 117.65 234.19C117.78 233.87 117.85 233.71 117.98 233.39C117.99 233.33 118.01 233.25 118.01 233.14C118.03 232.83 117.98 232.57 117.84 232.38C117.71 232.19 117.51 232.08 117.25 232.06C116.82 232.03 116.34 232.24 115.81 232.71C115.28 233.18 114.81 233.77 114.41 234.48C114.01 235.19 113.77 235.88 113.7 236.54C113.67 236.85 113.7 237.08 113.77 237.23C113.85 237.38 113.98 237.46 114.16 237.48C114.45 237.51 114.82 237.38 115.26 237.08H115.27Z" fill="white"/>
<path d="M121.9 237.29C122.19 237.21 122.48 237.18 122.76 237.19C122.93 237.19 123.08 237.22 123.22 237.25C123.36 237.29 123.54 237.34 123.77 237.41C124 237.48 124.19 237.53 124.36 237.56C124.52 237.59 124.69 237.61 124.87 237.62C125.14 237.62 125.36 237.58 125.51 237.49C125.66 237.4 125.74 237.25 125.74 237.06C125.74 236.86 125.63 236.68 125.41 236.53C125.18 236.38 124.89 236.27 124.53 236.21C124.57 236.14 124.59 236.11 124.63 236.04C125.11 236.14 125.49 236.28 125.74 236.47C125.99 236.66 126.12 236.9 126.12 237.19C126.12 237.53 125.96 237.81 125.66 238.04C125.36 238.27 124.89 238.38 124.27 238.36C124.03 238.36 123.81 238.33 123.62 238.28C123.43 238.23 123.21 238.16 122.99 238.08C122.73 237.99 122.5 237.91 122.3 237.86C122.1 237.81 121.86 237.78 121.59 237.77C121.3 237.76 121.04 237.77 120.81 237.83C120.59 237.88 120.37 237.98 120.15 238.13C119.98 238.13 119.89 238.12 119.72 238.11C122.69 236.09 124.12 235.03 126.88 232.87C126.42 233.09 126.05 233.24 125.77 233.32C125.49 233.4 125.21 233.44 124.94 233.44C124.78 233.44 124.63 233.42 124.49 233.38C124.35 233.35 124.17 233.29 123.95 233.23C123.73 233.16 123.54 233.11 123.38 233.07C123.22 233.03 123.06 233.01 122.89 233.01C122.63 233.01 122.42 233.04 122.27 233.13C122.12 233.22 122.04 233.36 122.03 233.55C122.03 233.75 122.13 233.93 122.35 234.09C122.57 234.25 122.86 234.36 123.21 234.43C123.17 234.5 123.15 234.53 123.11 234.6C122.63 234.5 122.27 234.35 122.02 234.15C121.77 233.96 121.65 233.71 121.67 233.42C121.69 233.08 121.84 232.8 122.14 232.58C122.44 232.36 122.88 232.26 123.48 232.28C123.71 232.28 123.92 232.32 124.11 232.36C124.3 232.41 124.5 232.47 124.72 232.55C124.97 232.64 125.19 232.71 125.39 232.75C125.59 232.8 125.82 232.82 126.08 232.82C126.36 232.82 126.61 232.8 126.82 232.74C127.03 232.68 127.24 232.57 127.44 232.41C127.6 232.41 127.69 232.41 127.85 232.41C125.12 234.6 123.69 235.66 120.75 237.7C121.23 237.5 121.62 237.36 121.91 237.29H121.9Z" fill="white"/>
<path d="M129.89 232.95C129.89 232.76 129.77 232.66 129.55 232.67C129.32 232.67 129.11 232.77 128.93 232.95C128.75 233.13 128.56 233.44 128.36 233.85C128.27 234.02 128.23 234.11 128.15 234.28C128.03 234.28 127.98 234.28 127.86 234.28C128.02 233.94 128.1 233.78 128.26 233.44C128.46 233 128.73 232.69 129.07 232.51C129.41 232.33 129.76 232.24 130.13 232.23C130.8 232.22 131.13 232.45 131.14 232.94C131.14 233.19 131.07 233.49 130.92 233.83C130.29 235.24 129.97 235.94 129.32 237.35C129.24 237.54 129.2 237.68 129.2 237.78C129.2 237.97 129.33 238.07 129.58 238.06C129.8 238.06 130 237.97 130.19 237.79C130.38 237.61 130.58 237.3 130.79 236.87C130.87 236.7 130.92 236.61 131 236.44C131.12 236.44 131.18 236.44 131.3 236.44C131.15 236.78 131.07 236.95 130.91 237.29C130.71 237.72 130.44 238.03 130.1 238.21C129.76 238.4 129.39 238.5 128.99 238.5C128.25 238.5 127.88 238.27 127.88 237.8C127.88 237.58 127.97 237.27 128.16 236.89C128.83 235.49 129.15 234.79 129.79 233.39C129.87 233.2 129.91 233.06 129.91 232.96L129.89 232.95ZM130.51 229.82C130.73 229.63 130.98 229.54 131.27 229.53C131.5 229.53 131.68 229.58 131.82 229.69C131.96 229.8 132.04 229.94 132.04 230.11C132.04 230.34 131.94 230.55 131.71 230.73C131.48 230.91 131.23 231.01 130.94 231.01C130.72 231.01 130.54 230.96 130.4 230.85C130.26 230.74 130.19 230.6 130.18 230.43C130.18 230.2 130.28 229.99 130.5 229.81L130.51 229.82Z" fill="white"/>
<path d="M141.64 233.92C141.7 234.54 141.62 235.16 141.41 235.78C141.19 236.4 140.81 236.94 140.26 237.38C139.71 237.82 139 238.08 138.14 238.14C137.31 238.2 136.74 238 136.43 237.55C135.74 238.06 135.03 238.33 134.29 238.36C133.62 238.39 133.12 238.28 132.79 238.04C132.47 237.8 132.3 237.49 132.29 237.12C132.27 236.47 132.69 235.75 133.52 234.95C134.35 234.15 135.36 233.38 136.52 232.63C136.49 232.63 136.38 232.7 136.18 232.81C135.91 232.96 135.69 233.06 135.53 233.13C135.37 233.2 135.22 233.23 135.08 233.24C134.96 233.24 134.85 233.23 134.75 233.19C134.65 233.15 134.59 233.12 134.57 233.12C134.38 233.04 134.23 233 134.11 233C133.95 233 133.81 233.07 133.71 233.17C133.61 233.27 133.5 233.47 133.4 233.74C133.33 233.91 133.3 234 133.23 234.17C133.11 234.17 133.05 234.17 132.94 234.18C133.07 233.84 133.13 233.67 133.26 233.33C133.43 232.89 133.62 232.58 133.85 232.39C134.08 232.2 134.34 232.1 134.62 232.09C134.75 232.09 134.86 232.09 134.96 232.13C135.06 232.17 135.17 232.21 135.32 232.28C135.47 232.35 135.6 232.4 135.7 232.43C135.8 232.46 135.91 232.48 136.04 232.47C136.28 232.46 136.5 232.41 136.69 232.34C136.88 232.27 137.06 232.17 137.23 232.03C137.31 231.94 137.35 231.89 137.43 231.8C137.56 231.84 137.62 231.86 137.75 231.89C136.58 232.77 135.62 233.62 134.89 234.46C134.16 235.3 133.8 236.14 133.84 236.99C133.86 237.36 133.94 237.62 134.09 237.78C134.24 237.93 134.46 238.01 134.75 237.99C135.01 237.98 135.28 237.92 135.55 237.81C135.82 237.7 136.09 237.55 136.34 237.35C136.25 237.14 136.2 236.92 136.19 236.68C136.17 236.25 136.27 235.82 136.5 235.38C136.73 234.94 137.01 234.58 137.34 234.29C137.68 234 137.99 233.84 138.27 233.82C138.47 233.81 138.62 233.88 138.71 234.03C138.8 234.18 138.85 234.37 138.87 234.58C138.9 234.99 138.78 235.42 138.52 235.87C138.25 236.31 137.83 236.72 137.26 237.1C137.53 237.59 137.97 237.82 138.57 237.77C139.24 237.72 139.8 237.49 140.23 237.07C140.66 236.66 140.97 236.16 141.14 235.59C141.32 235.02 141.38 234.47 141.33 233.95C141.3 233.64 141.23 233.26 141.15 233.2C141 233.1 140.44 233.1 140.12 232.95C139.81 232.8 139.64 232.59 139.61 232.31C139.59 232.13 139.65 231.98 139.76 231.88C139.88 231.78 140.02 231.72 140.19 231.7C140.47 231.68 140.71 231.78 140.92 232C141.12 232.23 141.29 232.56 141.44 232.95C141.53 233.19 141.62 233.51 141.66 233.9L141.64 233.92ZM137.62 234.43C137.43 234.64 137.27 234.91 137.15 235.23C137.03 235.55 136.97 235.87 136.99 236.18C137.01 236.46 137.06 236.7 137.15 236.91C137.6 236.6 137.95 236.23 138.19 235.82C138.43 235.41 138.53 235 138.51 234.61C138.48 234.25 138.37 234.08 138.18 234.09C138.01 234.1 137.82 234.22 137.63 234.43H137.62Z" fill="white"/>
<path d="M144.87 231.94C144.85 231.75 144.72 231.67 144.5 231.69C144.27 231.72 144.07 231.83 143.91 232.04C143.75 232.24 143.59 232.56 143.43 233C143.36 233.18 143.33 233.27 143.26 233.45C143.14 233.46 143.09 233.47 142.97 233.48C143.09 233.13 143.15 232.95 143.28 232.6C143.43 232.14 143.67 231.81 143.99 231.59C144.31 231.38 144.65 231.25 145.02 231.2C145.68 231.12 146.04 231.31 146.11 231.79C146.14 232.04 146.11 232.34 145.98 232.7C145.51 234.17 145.26 234.9 144.76 236.37C144.7 236.56 144.67 236.71 144.69 236.81C144.71 237 144.85 237.08 145.1 237.05C145.32 237.02 145.51 236.91 145.68 236.71C145.85 236.51 146.01 236.18 146.17 235.73C146.24 235.55 146.27 235.46 146.33 235.28C146.45 235.26 146.51 235.26 146.62 235.24C146.5 235.59 146.44 235.77 146.32 236.13C146.17 236.58 145.93 236.91 145.61 237.14C145.29 237.36 144.93 237.5 144.53 237.55C143.8 237.63 143.4 237.44 143.35 236.97C143.33 236.75 143.39 236.44 143.53 236.04C144.04 234.58 144.29 233.85 144.77 232.38C144.83 232.19 144.85 232.04 144.84 231.94H144.87ZM145.15 228.76C145.35 228.55 145.59 228.43 145.87 228.39C146.1 228.36 146.29 228.39 146.44 228.49C146.59 228.59 146.68 228.72 146.7 228.88C146.73 229.11 146.65 229.33 146.44 229.53C146.24 229.74 145.99 229.86 145.7 229.9C145.48 229.93 145.3 229.9 145.14 229.8C144.99 229.71 144.9 229.58 144.88 229.41C144.85 229.18 144.94 228.96 145.14 228.76H145.15Z" fill="white"/>
<path d="M149.41 235.75C149.39 235.85 149.39 235.93 149.41 236.01C149.43 236.16 149.51 236.27 149.65 236.32C149.79 236.38 149.95 236.39 150.15 236.36C150.41 236.32 150.64 236.2 150.84 236C151.04 235.8 151.21 235.47 151.35 235C151.41 234.81 151.44 234.71 151.49 234.52C151.61 234.5 151.67 234.49 151.78 234.47C151.7 234.78 151.66 234.93 151.58 235.24C151.44 235.75 151.21 236.12 150.89 236.37C150.57 236.62 150.16 236.78 149.64 236.86C149.17 236.93 148.81 236.9 148.55 236.76C148.3 236.63 148.15 236.41 148.11 236.11C148.08 235.91 148.1 235.69 148.16 235.44C148.58 233.67 148.78 232.78 149.16 231.01C148.62 231.09 148.35 231.13 147.81 231.21C147.83 231.11 147.84 231.07 147.85 230.97C148.39 230.89 148.66 230.85 149.2 230.77C149.36 230.04 149.43 229.67 149.58 228.94C150.11 228.84 150.55 228.71 150.89 228.56C150.74 229.36 150.66 229.76 150.5 230.56C151.29 230.43 151.69 230.36 152.48 230.22C152.48 230.31 152.48 230.36 152.48 230.46C151.67 230.6 151.27 230.67 150.45 230.81C150.06 232.78 149.85 233.77 149.41 235.74V235.75Z" fill="white"/>
<path d="M160.05 232.83C159.97 233.19 159.93 233.37 159.85 233.74C159.66 234.6 159.12 235.12 158.23 235.31C157.5 235.46 157.09 235.31 157 234.84C156.95 234.61 156.98 234.3 157.07 233.91C157.39 232.5 157.54 231.79 157.83 230.38C157.88 230.15 157.89 229.95 157.86 229.78C157.8 229.52 157.62 229.43 157.3 229.5C156.93 229.58 156.57 229.84 156.22 230.28C155.87 230.72 155.54 231.3 155.23 232.01C154.92 232.73 154.65 233.54 154.43 234.45C154.31 235.05 154.25 235.36 154.13 235.96C153.59 236.06 153.32 236.11 152.77 236.2C153.48 232.96 153.8 231.33 154.38 228.09C154.4 227.95 154.41 227.85 154.39 227.77C154.36 227.62 154.26 227.52 154.09 227.48C153.92 227.44 153.65 227.45 153.29 227.52C153.31 227.42 153.32 227.37 153.33 227.27C154.34 227.07 155.19 226.74 155.87 226.28C155.5 228.69 155.29 229.9 154.84 232.32C155.21 231.29 155.62 230.53 156.07 230.01C156.53 229.5 157.07 229.17 157.7 229.03C158.5 228.85 158.97 229.05 159.1 229.61C159.15 229.85 159.14 230.15 159.07 230.5C158.78 231.94 158.63 232.67 158.32 234.11C158.28 234.31 158.27 234.46 158.29 234.56C158.33 234.74 158.47 234.8 158.72 234.75C158.93 234.71 159.11 234.58 159.26 234.37C159.41 234.16 159.54 233.82 159.65 233.34C159.69 233.16 159.71 233.06 159.75 232.88C159.87 232.85 159.92 232.84 160.04 232.81L160.05 232.83Z" fill="white"/>
<path d="M163.51 233.24C163.55 233.4 163.65 233.48 163.81 233.5C163.97 233.51 164.25 233.48 164.66 233.39C164.66 233.49 164.66 233.53 164.66 233.63C164.18 233.73 163.53 233.89 162.69 234.09C161.83 234.3 161.17 234.47 160.73 234.59C160.74 234.49 160.75 234.44 160.76 234.35C161.12 234.25 161.38 234.16 161.55 234.07C161.72 233.98 161.84 233.86 161.92 233.7C162 233.54 162.05 233.31 162.09 233.01C162.36 230.59 162.47 229.38 162.67 226.97C162.68 226.7 162.67 226.51 162.65 226.4C162.61 226.24 162.51 226.15 162.35 226.13C162.2 226.11 161.93 226.15 161.56 226.23C161.56 226.13 161.57 226.08 161.58 225.99C161.98 225.91 162.6 225.77 163.43 225.54C164.2 225.33 164.82 225.15 165.28 225C165.28 225.1 165.28 225.15 165.28 225.24C164.93 225.36 164.67 225.46 164.51 225.55C164.35 225.64 164.24 225.76 164.17 225.92C164.1 226.07 164.06 226.31 164.04 226.61C163.86 229.03 163.76 230.23 163.52 232.66C163.5 232.97 163.5 233.16 163.52 233.24H163.51ZM169.41 223.77C169.58 223.84 169.7 223.96 169.76 224.13C169.81 224.29 169.79 224.48 169.71 224.7C169.62 224.92 169.44 225.07 169.16 225.16C168.97 225.22 168.81 225.22 168.69 225.16C168.57 225.1 168.49 225.01 168.46 224.89C168.43 224.79 168.44 224.66 168.48 224.5C168.53 224.35 168.6 224.2 168.71 224.06C168.69 224.06 168.68 224.06 168.67 224.07C168.48 224.14 168.32 224.24 168.2 224.38C168.07 224.54 167.98 224.73 167.92 224.95C167.87 225.17 167.81 225.49 167.74 225.91C167.67 226.4 167.58 226.82 167.47 227.16C167.37 227.5 167.18 227.82 166.92 228.14C166.66 228.45 166.28 228.7 165.8 228.89C166.18 228.85 166.5 228.84 166.75 228.89C167 228.93 167.22 229.05 167.41 229.26C167.6 229.47 167.75 229.81 167.87 230.27C167.99 230.78 168.05 231.03 168.17 231.54C168.22 231.74 168.28 231.87 168.36 231.95C168.44 232.03 168.59 232.03 168.79 231.97C169.04 231.9 169.24 231.76 169.38 231.57C169.52 231.38 169.61 231.11 169.66 230.77C169.69 230.51 169.71 230.39 169.74 230.13C169.86 230.09 169.92 230.07 170.04 230.04C169.99 230.43 169.96 230.62 169.91 231.01C169.84 231.47 169.68 231.85 169.43 232.13C169.18 232.41 168.84 232.62 168.4 232.75C167.46 233.02 166.91 232.71 166.75 231.83C166.65 231.32 166.6 231.06 166.51 230.55C166.49 230.45 166.46 230.32 166.41 230.15C166.31 229.81 166.2 229.57 166.06 229.42C165.92 229.28 165.74 229.17 165.53 229.11C165.18 229.28 164.9 229.39 164.71 229.44C164.4 229.52 164.23 229.49 164.19 229.34C164.15 229.19 164.28 229.08 164.58 229C164.8 228.94 165.11 228.9 165.52 228.86C166.01 228.68 166.39 228.43 166.65 228.13C166.91 227.83 167.09 227.51 167.18 227.19C167.27 226.87 167.36 226.46 167.43 225.96C167.49 225.53 167.55 225.19 167.62 224.95C167.68 224.71 167.79 224.5 167.95 224.31C168.18 224.06 168.44 223.88 168.74 223.79C169.03 223.7 169.26 223.69 169.43 223.75L169.41 223.77Z" fill="white"/>
<path d="M175.01 226.59C174.27 227.35 173.37 228.06 172.3 228.72C172.31 229.12 172.37 229.49 172.48 229.84C172.71 230.54 173.17 230.78 173.87 230.55C174.74 230.26 175.39 229.63 175.81 228.66C175.92 228.66 175.97 228.66 176.08 228.66C175.9 229.17 175.59 229.67 175.14 230.14C174.69 230.62 174.16 230.96 173.55 231.16C172.92 231.37 172.39 231.39 171.95 231.24C171.51 231.09 171.21 230.76 171.05 230.25C170.87 229.69 170.9 229 171.12 228.16C171.34 227.32 171.74 226.54 172.31 225.8C172.89 225.06 173.6 224.55 174.46 224.24C174.77 224.13 175.05 224.1 175.29 224.15C175.54 224.2 175.7 224.34 175.79 224.57C176 225.15 175.75 225.83 175.01 226.59ZM173.32 225.33C173.03 225.73 172.79 226.22 172.61 226.78C172.42 227.35 172.32 227.91 172.31 228.48C173.17 227.93 173.77 227.47 174.09 227.1C174.38 226.77 174.57 226.41 174.67 226.04C174.76 225.67 174.75 225.31 174.63 224.96C174.56 224.76 174.5 224.64 174.43 224.59C174.37 224.54 174.3 224.53 174.22 224.55C173.91 224.66 173.61 224.92 173.32 225.32V225.33Z" fill="white"/>
<path d="M182.05 221.5C182.25 221.55 182.39 221.66 182.46 221.84C182.55 222.05 182.53 222.27 182.39 222.51C182.25 222.74 182.05 222.92 181.78 223.03C181.61 223.1 181.45 223.13 181.32 223.1C181.19 223.08 181.1 223 181.05 222.88C180.98 222.72 180.98 222.55 181.05 222.39C181.12 222.23 181.24 222.08 181.41 221.93C181.36 221.92 181.3 221.93 181.24 221.95C180.73 222.16 180.34 222.81 180.06 223.88C179.78 224.96 179.63 226.28 179.6 227.87C179.61 228.26 179.62 228.45 179.63 228.83C179.11 229.03 178.85 229.13 178.32 229.32C178.36 227.2 178.36 226.14 178.34 224.03C178.34 223.85 178.33 223.69 178.28 223.57C178.22 223.41 178.08 223.36 177.88 223.44C177.67 223.52 177.51 223.68 177.39 223.92C177.28 224.16 177.2 224.51 177.16 224.97C177.14 225.16 177.14 225.25 177.12 225.44C177.01 225.48 176.95 225.5 176.84 225.54C176.87 225.17 176.88 224.99 176.91 224.62C176.98 223.75 177.42 223.16 178.23 222.85C178.78 222.64 179.13 222.74 179.29 223.15C179.37 223.35 179.42 223.67 179.44 224.11C179.47 224.72 179.48 225.03 179.5 225.64C179.62 224.4 179.82 223.47 180.1 222.86C180.38 222.25 180.8 221.82 181.36 221.59C181.62 221.48 181.84 221.45 182.04 221.5H182.05Z" fill="white"/>
<path d="M187.13 221.67C186.46 222.5 185.62 223.29 184.6 224.05C184.65 224.45 184.74 224.81 184.88 225.14C185.17 225.82 185.66 226.01 186.34 225.71C187.18 225.34 187.78 224.65 188.12 223.64C188.23 223.64 188.28 223.63 188.39 223.62C188.26 224.15 187.99 224.67 187.58 225.19C187.17 225.71 186.67 226.1 186.08 226.36C185.47 226.63 184.93 226.7 184.48 226.6C184.03 226.49 183.7 226.19 183.49 225.7C183.26 225.16 183.23 224.46 183.37 223.61C183.51 222.75 183.84 221.93 184.35 221.14C184.86 220.35 185.53 219.77 186.36 219.38C186.66 219.24 186.94 219.18 187.19 219.21C187.44 219.24 187.62 219.36 187.73 219.58C188 220.14 187.8 220.84 187.13 221.67ZM185.32 220.58C185.07 221.01 184.87 221.52 184.73 222.1C184.59 222.68 184.54 223.26 184.58 223.82C185.4 223.19 185.96 222.67 186.24 222.28C186.5 221.92 186.66 221.55 186.72 221.17C186.78 220.79 186.73 220.43 186.58 220.1C186.49 219.91 186.42 219.79 186.35 219.75C186.28 219.7 186.21 219.7 186.14 219.73C185.84 219.87 185.56 220.15 185.31 220.58H185.32Z" fill="white"/>
<path d="M196.95 218.76C196.97 219.13 196.98 219.32 197 219.69C197.04 220.57 196.65 221.23 195.83 221.67C195.4 221.9 195.04 221.96 194.77 221.85C194.65 221.81 194.55 221.72 194.48 221.57C194.38 221.39 194.33 221.08 194.31 220.65C194.24 219.2 194.2 218.47 194.11 217.03C194.08 216.76 194.04 216.57 193.98 216.46C193.85 216.22 193.64 216.18 193.35 216.34C193 216.53 192.7 216.92 192.45 217.54C192.2 218.15 192.02 218.9 191.91 219.79C191.8 220.68 191.79 221.61 191.86 222.58C191.91 222.93 191.93 223.11 191.97 223.46C191.46 223.71 191.21 223.83 190.7 224.08C190.55 221.96 190.45 220.91 190.25 218.8C190.23 218.59 190.2 218.45 190.16 218.37C190.07 218.2 189.93 218.16 189.73 218.26C189.53 218.36 189.38 218.53 189.3 218.76C189.22 218.99 189.17 219.35 189.17 219.85C189.17 220.04 189.17 220.13 189.17 220.32C189.06 220.37 189.01 220.4 188.9 220.45C188.9 220.08 188.9 219.89 188.89 219.52C188.89 218.64 189.26 218.02 190.03 217.64C190.33 217.49 190.56 217.44 190.74 217.48C190.92 217.52 191.06 217.64 191.15 217.83C191.24 218.01 191.32 218.33 191.38 218.76C191.47 219.42 191.51 219.75 191.59 220.42C191.68 219.08 191.87 218.06 192.19 217.35C192.51 216.64 192.99 216.12 193.63 215.77C194.37 215.37 194.88 215.42 195.16 215.93C195.28 216.15 195.35 216.45 195.37 216.81C195.48 218.29 195.52 219.02 195.6 220.51C195.61 220.71 195.64 220.86 195.69 220.96C195.78 221.12 195.93 221.14 196.16 221.02C196.35 220.92 196.49 220.74 196.59 220.5C196.69 220.26 196.72 219.89 196.7 219.4C196.7 219.21 196.69 219.12 196.68 218.93C196.79 218.87 196.84 218.84 196.95 218.78V218.76Z" fill="white"/>
<path d="M107.29 126.57C107.29 125.25 106.86 123.97 106.06 122.91C105.46 122.11 104.19 122.54 104.19 123.54C104.18 134.5 104.19 157.8 104.21 169.57C104.21 170.15 103.74 170.61 103.17 170.61C102.59 170.61 102.13 170.15 102.13 169.57C102.11 156.55 102.11 132.45 102.12 120.07C102.12 118.92 101.65 117.83 100.82 117.04L100.78 117C100.12 116.37 99.02 116.84 99.02 117.75C99.02 130.1 99.02 155.71 99.03 169.57C99.03 170.14 98.57 170.61 97.99 170.61C97.42 170.61 96.95 170.15 96.95 169.57C96.95 155.26 96.95 130.06 96.95 115.4C96.95 114.3 96.42 113.26 95.52 112.61C95.51 112.61 95.5 112.59 95.49 112.59C94.8 112.09 93.84 112.59 93.84 113.43C93.84 128.26 93.84 154.6 93.84 169.56C93.84 170.14 93.37 170.6 92.8 170.6H75.73C75.15 170.6 74.69 171.07 74.69 171.64V172.66C74.69 173.24 75.16 173.7 75.73 173.7H125.27C125.85 173.7 126.31 173.23 126.31 172.66V171.64C126.31 171.06 125.84 170.6 125.27 170.6H108.37C107.8 170.6 107.33 170.14 107.33 169.56C107.3 158.88 107.3 137.02 107.3 126.56L107.29 126.57Z" fill="white"/>
<path d="M125.25 175.38H75.71C75.1356 175.38 74.67 175.846 74.67 176.42V177.45C74.67 178.024 75.1356 178.49 75.71 178.49H125.25C125.824 178.49 126.29 178.024 126.29 177.45V176.42C126.29 175.846 125.824 175.38 125.25 175.38Z" fill="white"/>
<path d="M125.25 180.29H75.71C75.1356 180.29 74.67 180.756 74.67 181.33V182.36C74.67 182.934 75.1356 183.4 75.71 183.4H125.25C125.824 183.4 126.29 182.934 126.29 182.36V181.33C126.29 180.756 125.824 180.29 125.25 180.29Z" fill="white"/>
<path d="M125.25 44.08H75.71C75.1356 44.08 74.67 44.5456 74.67 45.12V46.15C74.67 46.7244 75.1356 47.19 75.71 47.19H125.25C125.824 47.19 126.29 46.7244 126.29 46.15V45.12C126.29 44.5456 125.824 44.08 125.25 44.08Z" fill="white"/>
<path d="M125.25 39.17H75.71C75.1356 39.17 74.67 39.6356 74.67 40.21V41.24C74.67 41.8144 75.1356 42.28 75.71 42.28H125.25C125.824 42.28 126.29 41.8144 126.29 41.24V40.21C126.29 39.6356 125.824 39.17 125.25 39.17Z" fill="white"/>
<path d="M75.72 52.02H92.79C93.37 52.02 93.83 52.49 93.83 53.06C93.83 58.76 93.83 86.17 93.83 92.03C93.83 92.6 94.3 93.07 94.87 93.07H95.89C96.46 93.07 96.93 92.6 96.93 92.03C96.93 86.16 96.93 58.76 96.93 53.06C96.93 52.49 97.4 52.02 97.97 52.02C98.55 52.02 99.01 52.49 99.01 53.07C98.99 58.91 98.99 87.56 99.01 93.39C99.01 93.96 99.48 94.43 100.05 94.43H101.07C101.65 94.43 102.11 93.96 102.11 93.38C102.09 87.55 102.09 58.89 102.11 53.06C102.11 52.49 102.58 52.02 103.15 52.02C103.73 52.02 104.19 52.49 104.19 53.06C104.16 58.77 104.16 89.22 104.19 94.89C104.19 95.46 104.66 95.92 105.23 95.92H106.25C106.83 95.92 107.29 95.45 107.29 94.88C107.26 89.21 107.26 58.75 107.29 53.05C107.29 52.48 107.76 52.02 108.33 52.02H125.23C125.81 52.02 126.27 51.55 126.27 50.98V49.96C126.27 49.38 125.8 48.92 125.23 48.92H75.69C75.11 48.92 74.65 49.39 74.65 49.96V50.98C74.65 51.56 75.12 52.02 75.69 52.02H75.72Z" fill="white"/>
<path d="M207.7 129.63C204.55 126.44 199.98 124.75 194.47 124.71H194.45C194.45 124.71 185.64 124.45 184.66 124.45C178.05 124.49 173.18 126.45 170.19 130.26C165.38 136.4 167.38 144.99 167.46 145.36L167.68 146.29C167.72 146.44 167.85 146.55 168.01 146.55H183.81C184.03 146.55 184.19 146.35 184.14 146.14L183.78 144.64C183.66 144.15 181.14 133.03 190.06 129.03C190.17 128.98 190.29 128.99 190.39 129.05C193.47 131.01 195.35 134.92 195.59 139.94C195.97 147.87 189.74 163.43 178.37 163.18C171.9 163.04 165.48 158.32 158.82 152.99C154.82 149.79 148.8 143.21 141.84 135.6C135.06 128.19 127.43 119.85 120.06 112.92C119.94 112.81 119.92 112.63 120.02 112.49C126.81 103.09 132.64 91.64 137.8 81.48C141.43 74.33 144.57 68.15 147.21 64.41C149 61.88 150.87 59.88 152.8 58.46C152.93 58.37 153.1 58.37 153.22 58.47C154.65 59.68 155.76 61.21 156.24 62.66C157.09 65.24 156.85 69.41 154.43 72.88C151.92 76.48 147.58 78.62 141.83 79.12C140.98 79.19 140.33 79.9 140.35 80.74C140.37 81.61 141.08 82.31 141.95 82.31H153.73C163.22 81.97 167.97 77.96 170.27 74.65C173.51 70 173.49 64.76 172.48 61.69C171.16 57.65 166.37 53.03 160.26 52.8H146.27C142.26 52.86 136.84 54.85 131.36 62.61C128.59 66.54 125.4 72.8 121.71 80.06C117.97 87.41 113.78 95.68 109.12 103.24C109.02 103.41 108.79 103.45 108.63 103.34C103.44 99.66 99.17 97.81 95.62 97.68C94.03 97.62 82.91 97.7 82.32 97.68C74.37 97.39 67.9 100.43 64.55 106.02C61.61 110.94 61.66 116.99 64.44 121.97C71.74 135.04 91.06 127.97 91.06 127.97C91.36 127.86 91.35 127.44 91.06 127.34L87.79 126.22C81.18 123.96 78.78 118.54 78.75 114.22C78.72 110.51 80.39 105.98 84.94 103.21C86.23 102.43 87.84 102.39 89.17 103.11C93.11 105.25 97.81 108.86 103.44 114.07C103.86 114.45 104.27 114.84 104.69 115.23C105.51 116 106.35 116.81 107.18 117.62C108.21 118.63 109.32 119.73 110.66 121.08C116 126.49 121.44 132.44 126.24 137.68C133.3 145.4 139.4 152.06 143.59 155.42C153.27 163.16 162.75 167.07 171.82 167.07C172.99 167.07 182.29 166.86 182.29 166.86C193.42 166.7 200.41 162.25 204.33 158.51C209.33 153.74 212.19 147.43 212.19 141.2C212.19 136.66 210.6 132.55 207.71 129.63H207.7ZM173.43 143.44H170.58C170.41 143.44 170.27 143.31 170.25 143.15C169.96 140.72 169.81 135.81 172.65 132.18C173.79 130.73 175.31 129.62 177.2 128.85C177.53 128.71 177.81 129.13 177.57 129.4C177.11 129.9 176.68 130.43 176.3 131.01C173.49 135.18 173.48 140.23 173.78 143.09C173.8 143.29 173.64 143.46 173.45 143.46L173.43 143.44ZM180.53 137.45C180.2 139.61 180.27 141.62 180.41 143.07C180.43 143.27 180.27 143.44 180.08 143.44H177.24C177.07 143.44 176.93 143.31 176.91 143.15C176.63 140.85 176.48 136.28 178.88 132.72C180.07 130.96 181.78 129.63 183.97 128.77C184.3 128.64 184.58 129.06 184.33 129.32C182.33 131.42 181.04 134.16 180.53 137.47V137.45ZM67.13 120.38C64.83 116.44 64.87 111.54 67.23 107.6C68.18 106.01 70.01 103.79 73.26 102.32C73.6 102.17 73.9 102.6 73.64 102.86C70.44 106.04 68.96 110.24 68.99 114.18C69.02 118.04 70.53 122.12 73.69 125.21C73.96 125.47 73.67 125.91 73.32 125.76C70.65 124.61 68.55 122.8 67.14 120.39L67.13 120.38ZM75.63 114.22C75.67 118.47 77.33 122.28 80.2 125.12C80.46 125.38 80.16 125.81 79.82 125.66C74.24 123.21 72.11 118.25 72.08 114.14C72.03 108.26 75.6 104.28 80.02 102.28C80.36 102.13 80.67 102.56 80.4 102.82C77.35 105.8 75.59 109.83 75.62 114.21L75.63 114.22ZM169.53 62.64C170.38 65.22 170.14 69.39 167.72 72.86C166.35 74.82 164.44 76.35 162.06 77.41C161.72 77.56 161.42 77.13 161.69 76.86C162.47 76.1 163.11 75.33 163.62 74.59C166.86 69.94 166.84 64.7 165.83 61.63C165.36 60.2 164.39 58.57 162.98 57.1C162.73 56.84 163.01 56.42 163.34 56.56C166.55 57.82 168.84 60.55 169.52 62.63L169.53 62.64ZM162.88 62.61C163.73 65.19 163.5 69.35 161.08 72.82C159.74 74.74 157.87 76.25 155.55 77.31C155.21 77.47 154.9 77.03 155.17 76.77C155.89 76.05 156.49 75.33 156.97 74.63C160.21 69.98 160.19 64.74 159.18 61.67C158.65 60.06 157.61 58.44 156.25 57.04C156.08 56.86 156.14 56.57 156.37 56.49C156.45 56.46 156.53 56.46 156.6 56.49C159.79 57.7 162.15 60.42 162.86 62.61H162.88ZM107.09 106.43C107.04 106.5 107 106.57 106.95 106.64C106.84 106.81 106.61 106.84 106.46 106.71C105.61 106.01 104.78 105.36 103.98 104.75C103.64 104.49 104 103.97 104.36 104.2C105.21 104.73 106.09 105.32 107 105.97C107.15 106.08 107.19 106.28 107.09 106.43ZM103.96 110.32C101.42 108.04 99.06 106.08 96.87 104.43C96.53 104.17 96.88 103.66 97.25 103.88C99.51 105.25 102.02 107.07 104.75 109.32C104.89 109.43 104.92 109.64 104.81 109.79C104.7 109.95 104.58 110.11 104.47 110.27C104.36 110.43 104.11 110.46 103.96 110.32ZM108.35 113.9C108.23 114.05 108 114.07 107.85 113.93C107.6 113.69 107.08 113.2 106.78 112.91C106.65 112.79 106.63 112.58 106.74 112.44C107.29 111.68 107.83 110.91 108.37 110.12C109.15 108.98 109.93 107.79 110.69 106.6C115.86 98.47 120.45 89.42 124.51 81.45C128.14 74.3 131.28 68.12 133.92 64.38C136.48 60.76 139.23 58.25 142.03 56.94C142.38 56.78 142.68 57.23 142.4 57.49C140.89 58.88 139.44 60.57 138.04 62.55C135.26 66.48 132.08 72.75 128.39 80.01C123.73 89.18 118.46 99.57 112.44 108.38C111.6 109.61 110.74 110.81 109.91 111.92C109.39 112.61 108.88 113.27 108.37 113.9H108.35ZM111.48 117.48C111.16 117.16 110.86 116.86 110.56 116.57C110.44 116.45 110.43 116.26 110.54 116.13C111.14 115.38 111.76 114.6 112.37 113.78C113.23 112.63 114.11 111.4 114.98 110.13C121.11 101.16 126.44 90.67 131.14 81.42C134.77 74.27 137.91 68.09 140.56 64.35C143.44 60.27 146.49 57.64 149.65 56.49C149.72 56.46 150.05 56.55 150.14 56.58C148.24 58.13 146.41 60.14 144.68 62.59C141.91 66.52 138.72 72.79 135.03 80.05C129.68 90.59 123.61 102.54 116.54 111.96C115.61 113.2 114.67 114.38 113.75 115.47C113.16 116.17 112.57 116.84 111.98 117.48C111.85 117.62 111.63 117.62 111.49 117.48H111.48ZM145.52 152.96C141.52 149.76 135.49 143.17 128.52 135.55C124.08 130.7 119.1 125.26 114.14 120.17C114.02 120.04 114.01 119.85 114.14 119.72C114.36 119.48 114.58 119.24 114.8 119C114.93 118.86 115.14 118.85 115.28 118.98C121.3 124.96 127.43 131.66 132.89 137.62C139.95 145.34 146.05 152 150.24 155.35C150.97 155.93 151.7 156.49 152.43 157.03C152.77 157.28 152.43 157.81 152.06 157.58C149.9 156.25 147.73 154.7 145.54 152.95L145.52 152.96ZM152.17 152.93C148.17 149.73 142.15 143.15 135.17 135.53C129.62 129.47 123.38 122.65 117.25 116.57C117.13 116.45 117.12 116.26 117.23 116.13C117.4 115.92 117.57 115.7 117.74 115.49C117.86 115.33 118.09 115.31 118.24 115.45C125.43 122.25 132.9 130.41 139.55 137.68C146.61 145.39 152.7 152.05 156.89 155.4C157.42 155.82 157.95 156.24 158.48 156.64C158.82 156.9 158.46 157.42 158.1 157.19C156.14 155.95 154.17 154.53 152.18 152.94L152.17 152.93ZM193.37 159.55C192.74 159.95 192.09 160.32 191.44 160.66C191.1 160.84 190.77 160.39 191.05 160.12C196.01 155.44 199.06 147.56 198.69 139.76C198.48 135.34 197.15 131.59 194.91 128.92C194.61 128.56 194.99 128.02 195.43 128.19C199.97 129.93 201.46 134.52 201.95 137.28C203.43 145.65 199.58 155.64 193.37 159.55ZM201.03 157.25C200.73 157.5 200.31 157.13 200.54 156.8C204.62 150.94 206.11 142.94 205.01 136.73C204.58 134.29 203.76 132.14 202.62 130.36C202.43 130.06 202.77 129.71 203.07 129.89C207.36 132.43 209.05 136.89 209.05 141.17C209.05 146.32 206.48 152.62 201.02 157.25H201.03Z" fill="white"/>
<path d="M233.4 106.06C233.07 106.08 232.83 106.12 232.68 106.17C232.53 106.22 232.43 106.33 232.37 106.48C232.31 106.63 232.29 106.89 232.29 107.23V114.02C232.29 114.37 232.32 114.62 232.37 114.77C232.42 114.92 232.53 115.03 232.68 115.08C232.83 115.13 233.07 115.17 233.4 115.19V115.46C232.98 115.43 232.4 115.42 231.66 115.42C230.87 115.42 230.29 115.43 229.91 115.46V115.19C230.24 115.17 230.48 115.13 230.63 115.08C230.78 115.03 230.88 114.92 230.94 114.77C231 114.62 231.02 114.36 231.02 114.02V107.23C231.02 106.88 230.99 106.63 230.94 106.48C230.89 106.33 230.78 106.22 230.63 106.17C230.48 106.12 230.24 106.08 229.91 106.06V105.79C230.29 105.82 230.88 105.83 231.66 105.83C232.39 105.83 232.97 105.82 233.4 105.79V106.06Z" fill="white"/>
<path d="M229.78 115.61V115.08H229.9C230.21 115.06 230.44 115.02 230.58 114.97C230.7 114.93 230.77 114.85 230.81 114.73C230.86 114.59 230.89 114.35 230.89 114.02V107.23C230.89 106.9 230.86 106.66 230.81 106.52C230.77 106.4 230.69 106.32 230.58 106.28C230.44 106.23 230.21 106.2 229.9 106.18H229.78V105.65H229.91C230.29 105.69 230.88 105.7 231.65 105.7C232.37 105.7 232.96 105.69 233.38 105.66H233.51V106.18H233.39C233.08 106.2 232.85 106.24 232.71 106.29C232.59 106.33 232.52 106.41 232.48 106.53C232.43 106.67 232.4 106.91 232.4 107.24V114.03C232.4 114.36 232.43 114.6 232.48 114.74C232.52 114.86 232.6 114.94 232.71 114.98C232.85 115.03 233.08 115.06 233.39 115.08H233.51V115.61H233.38C232.96 115.57 232.38 115.56 231.65 115.56C230.87 115.56 230.28 115.57 229.91 115.6H229.78V115.61ZM231.66 115.31C232.32 115.31 232.87 115.32 233.27 115.34V115.32C232.99 115.3 232.78 115.26 232.63 115.21C232.44 115.14 232.31 115.01 232.25 114.82C232.19 114.65 232.16 114.39 232.16 114.03V107.24C232.16 106.88 232.19 106.62 232.25 106.45C232.32 106.26 232.45 106.13 232.63 106.06C232.78 106.01 232.98 105.97 233.27 105.95V105.93C232.85 105.95 232.31 105.96 231.66 105.96C230.96 105.96 230.41 105.95 230.03 105.93V105.95C230.31 105.97 230.52 106.01 230.67 106.06C230.86 106.13 230.99 106.26 231.05 106.45C231.11 106.62 231.14 106.88 231.14 107.24V114.03C231.14 114.39 231.11 114.65 231.05 114.82C230.98 115.01 230.85 115.14 230.67 115.21C230.53 115.26 230.32 115.3 230.03 115.32V115.34C230.41 115.32 230.96 115.31 231.66 115.31Z" fill="white"/>
<path d="M238.43 105.76C238.66 105.85 238.9 105.97 239.15 106.14C239.35 106.27 239.51 106.33 239.62 106.33C239.7 106.33 239.77 106.28 239.81 106.19C239.86 106.09 239.89 105.94 239.92 105.73H240.23C240.18 106.26 240.16 107.19 240.16 108.52H239.84C239.79 107.78 239.57 107.16 239.2 106.65C238.83 106.14 238.29 105.89 237.59 105.89C237.1 105.89 236.69 106.04 236.38 106.34C236.07 106.64 235.91 107.02 235.91 107.48C235.91 107.83 235.99 108.13 236.15 108.38C236.31 108.64 236.51 108.85 236.76 109.04C237.01 109.22 237.36 109.46 237.81 109.74L238.21 109.99C238.79 110.35 239.24 110.66 239.57 110.93C239.9 111.2 240.17 111.51 240.37 111.85C240.57 112.2 240.67 112.6 240.67 113.07C240.67 113.9 240.4 114.54 239.85 114.99C239.3 115.44 238.61 115.67 237.77 115.67C237.33 115.67 236.97 115.62 236.69 115.53C236.41 115.44 236.15 115.32 235.89 115.16C235.69 115.03 235.53 114.97 235.42 114.97C235.34 114.97 235.27 115.02 235.23 115.11C235.18 115.21 235.15 115.36 235.12 115.57H234.8C234.84 115.07 234.85 113.97 234.85 112.28H235.17C235.23 113.2 235.46 113.95 235.85 114.53C236.24 115.11 236.85 115.39 237.66 115.39C238.15 115.39 238.57 115.24 238.92 114.93C239.27 114.62 239.44 114.17 239.44 113.57C239.44 113.06 239.27 112.62 238.93 112.27C238.59 111.91 238.05 111.51 237.31 111.06C236.77 110.73 236.34 110.44 236 110.18C235.67 109.93 235.4 109.62 235.19 109.26C234.98 108.9 234.87 108.48 234.87 107.99C234.87 107.22 235.12 106.64 235.61 106.23C236.1 105.82 236.71 105.62 237.44 105.62C237.84 105.62 238.16 105.66 238.39 105.75L238.43 105.76Z" fill="white"/>
<path d="M237.79 115.8C237.34 115.8 236.97 115.75 236.68 115.66C236.39 115.57 236.12 115.44 235.85 115.28C235.61 115.13 235.5 115.11 235.45 115.11C235.44 115.11 235.41 115.11 235.37 115.18C235.33 115.26 235.3 115.41 235.27 115.6V115.71H234.7V115.58C234.75 115.08 234.76 113.98 234.76 112.3V112.18H235.32V112.3C235.39 113.19 235.61 113.93 235.99 114.48C236.36 115.02 236.92 115.29 237.69 115.29C238.15 115.29 238.55 115.15 238.87 114.86C239.19 114.58 239.35 114.15 239.35 113.59C239.35 113.11 239.19 112.71 238.87 112.38C238.54 112.03 238 111.63 237.27 111.2C236.72 110.86 236.29 110.57 235.95 110.32C235.61 110.06 235.32 109.73 235.1 109.36C234.88 108.98 234.77 108.53 234.77 108.03C234.77 107.23 235.03 106.6 235.56 106.17C236.07 105.75 236.72 105.53 237.47 105.53C237.89 105.53 238.22 105.57 238.47 105.67C238.71 105.76 238.96 105.89 239.21 106.06C239.44 106.21 239.56 106.23 239.61 106.23C239.62 106.23 239.65 106.23 239.69 106.16C239.72 106.1 239.76 105.98 239.79 105.74V105.63H240.37V105.77C240.31 106.29 240.29 107.23 240.29 108.55V108.67H239.73V108.55C239.67 107.84 239.46 107.23 239.11 106.75C238.76 106.27 238.27 106.04 237.6 106.04C237.14 106.04 236.77 106.18 236.48 106.45C236.19 106.73 236.05 107.07 236.05 107.5C236.05 107.82 236.12 108.1 236.27 108.34C236.42 108.58 236.61 108.79 236.85 108.96C237.1 109.14 237.45 109.38 237.9 109.65L238.3 109.9C238.88 110.26 239.34 110.58 239.68 110.85C240.02 111.13 240.3 111.45 240.51 111.81C240.72 112.17 240.83 112.6 240.83 113.09C240.83 113.96 240.54 114.63 239.96 115.11C239.39 115.58 238.66 115.82 237.8 115.82L237.79 115.8ZM235.45 114.85C235.59 114.85 235.75 114.92 235.98 115.06C236.22 115.21 236.48 115.33 236.75 115.42C237.02 115.51 237.36 115.55 237.79 115.55C238.6 115.55 239.27 115.33 239.79 114.9C240.31 114.47 240.57 113.87 240.57 113.07C240.57 112.63 240.47 112.24 240.28 111.91C240.09 111.58 239.83 111.28 239.51 111.02C239.18 110.76 238.73 110.44 238.16 110.09L237.76 109.84C237.31 109.56 236.95 109.32 236.7 109.13C236.44 108.94 236.23 108.71 236.06 108.44C235.89 108.17 235.8 107.84 235.8 107.47C235.8 106.97 235.97 106.56 236.3 106.24C236.63 105.92 237.07 105.76 237.59 105.76C238.33 105.76 238.91 106.03 239.3 106.57C239.66 107.07 239.88 107.68 239.95 108.39H240.03C240.03 107.21 240.05 106.38 240.09 105.85H240.02C239.99 106.02 239.96 106.15 239.91 106.24C239.82 106.43 239.68 106.45 239.61 106.45C239.47 106.45 239.3 106.38 239.08 106.24C238.84 106.08 238.61 105.96 238.38 105.87C238.16 105.79 237.86 105.75 237.47 105.75C236.77 105.75 236.18 105.95 235.71 106.33C235.24 106.71 235.02 107.26 235.02 107.99C235.02 108.45 235.12 108.85 235.32 109.19C235.52 109.54 235.78 109.83 236.1 110.08C236.42 110.33 236.86 110.62 237.4 110.95C238.14 111.4 238.7 111.81 239.05 112.17C239.41 112.55 239.6 113.01 239.6 113.56C239.6 114.2 239.41 114.69 239.04 115.02C238.67 115.35 238.22 115.51 237.7 115.51C236.85 115.51 236.2 115.2 235.79 114.59C235.4 114.02 235.17 113.29 235.09 112.4H235.02C235.02 113.88 235 114.9 234.97 115.44H235.04C235.07 115.27 235.1 115.14 235.14 115.05C235.23 114.87 235.35 114.84 235.44 114.84L235.45 114.85Z" fill="white"/>
<path d="M250.41 114.8C250.2 115.11 249.99 115.33 249.78 115.47C249.57 115.61 249.29 115.68 248.94 115.68C248.57 115.68 248.26 115.57 248.02 115.35C247.78 115.13 247.6 114.75 247.48 114.2L247.18 112.83C247.07 112.36 246.97 111.99 246.87 111.73C246.77 111.47 246.63 111.27 246.44 111.11C246.25 110.95 245.98 110.88 245.63 110.88H244.33V114.03C244.33 114.38 244.36 114.63 244.41 114.78C244.46 114.93 244.57 115.04 244.72 115.09C244.87 115.14 245.11 115.18 245.44 115.2V115.47C245.02 115.44 244.44 115.43 243.7 115.43C242.91 115.43 242.33 115.44 241.95 115.47V115.2C242.28 115.18 242.52 115.14 242.67 115.09C242.82 115.04 242.92 114.93 242.98 114.78C243.04 114.63 243.06 114.37 243.06 114.03V107.24C243.06 106.89 243.03 106.64 242.98 106.49C242.93 106.34 242.82 106.23 242.67 106.18C242.52 106.13 242.28 106.09 241.95 106.07V105.8C242.33 105.83 242.89 105.84 243.62 105.84H245.1C245.27 105.82 245.47 105.81 245.69 105.81C246.75 105.81 247.56 106.03 248.13 106.47C248.7 106.91 248.99 107.49 248.99 108.19C248.99 108.55 248.91 108.9 248.74 109.27C248.57 109.64 248.29 109.95 247.89 110.24C247.49 110.53 246.97 110.72 246.34 110.82L246.5 110.85C247.1 110.95 247.54 111.13 247.81 111.4C248.08 111.66 248.28 112.08 248.41 112.66L248.75 114.06C248.84 114.48 248.94 114.77 249.04 114.94C249.14 115.11 249.28 115.19 249.45 115.19C249.61 115.19 249.74 115.15 249.84 115.07C249.94 114.99 250.07 114.86 250.2 114.67L250.41 114.82V114.8ZM244.71 106.16C244.57 106.22 244.47 106.34 244.42 106.5C244.37 106.66 244.34 106.91 244.34 107.24V110.61H245.26C246.16 110.61 246.78 110.41 247.12 110.01C247.46 109.61 247.63 109.05 247.63 108.34C247.63 107.59 247.45 107.03 247.1 106.64C246.74 106.26 246.16 106.06 245.36 106.06C245.08 106.06 244.86 106.09 244.72 106.16H244.71Z" fill="white"/>
<path d="M248.94 115.8C248.53 115.8 248.2 115.68 247.93 115.44C247.67 115.2 247.48 114.8 247.35 114.22L247.05 112.85C246.94 112.38 246.84 112.02 246.75 111.77C246.66 111.54 246.53 111.35 246.36 111.21C246.19 111.07 245.95 111 245.63 111H244.45V114.03C244.45 114.36 244.48 114.6 244.53 114.74C244.57 114.86 244.65 114.94 244.76 114.98C244.9 115.03 245.13 115.06 245.44 115.08H245.56V115.61H245.43C245.01 115.57 244.43 115.56 243.7 115.56C242.92 115.56 242.33 115.57 241.96 115.6H241.83V115.08H241.95C242.26 115.06 242.49 115.02 242.63 114.97C242.75 114.93 242.82 114.85 242.86 114.73C242.9 114.63 242.94 114.43 242.94 114.02V107.23C242.94 106.82 242.9 106.62 242.86 106.52C242.82 106.4 242.74 106.32 242.63 106.28C242.49 106.23 242.26 106.2 241.95 106.18H241.83V105.65H241.96C242.34 105.69 242.9 105.7 243.62 105.7H245.1C245.27 105.68 245.47 105.67 245.69 105.67C246.77 105.67 247.62 105.9 248.21 106.36C248.81 106.83 249.11 107.44 249.11 108.18C249.11 108.55 249.02 108.93 248.85 109.31C248.67 109.69 248.37 110.03 247.96 110.33C247.68 110.53 247.34 110.69 246.94 110.81C247.36 110.92 247.68 111.09 247.9 111.3C248.19 111.58 248.4 112.02 248.54 112.62L248.88 114.02C248.97 114.43 249.06 114.71 249.15 114.86C249.23 114.99 249.32 115.05 249.45 115.05C249.58 115.05 249.68 115.02 249.76 114.95C249.86 114.87 249.97 114.75 250.1 114.58L250.17 114.48L250.57 114.77L250.5 114.87C250.28 115.19 250.06 115.43 249.83 115.58C249.6 115.73 249.3 115.81 248.93 115.81L248.94 115.8ZM246.43 110.96C246.43 110.96 246.49 111 246.51 111.02C246.72 111.19 246.88 111.41 246.98 111.69C247.08 111.95 247.18 112.32 247.29 112.8L247.59 114.17C247.7 114.69 247.87 115.05 248.09 115.25C248.31 115.45 248.59 115.55 248.93 115.55C249.25 115.55 249.51 115.49 249.7 115.37C249.87 115.26 250.05 115.08 250.23 114.83C250.12 114.96 250.01 115.07 249.92 115.15C249.79 115.25 249.63 115.3 249.45 115.3C249.23 115.3 249.05 115.19 248.93 114.99C248.82 114.81 248.72 114.51 248.63 114.07L248.29 112.68C248.17 112.13 247.98 111.73 247.72 111.48C247.47 111.23 247.05 111.06 246.47 110.97H246.43V110.96ZM243.7 115.32C244.36 115.32 244.91 115.33 245.31 115.35V115.33C245.03 115.31 244.82 115.27 244.67 115.22C244.48 115.15 244.35 115.02 244.29 114.83C244.23 114.66 244.2 114.4 244.2 114.04V110.76H245.63C245.7 110.76 245.76 110.76 245.83 110.76L246.31 110.68C246.93 110.58 247.43 110.39 247.81 110.12C248.19 109.85 248.46 109.54 248.62 109.2C248.78 108.86 248.86 108.51 248.86 108.18C248.86 107.51 248.6 106.98 248.05 106.56C247.51 106.14 246.71 105.92 245.68 105.92C245.46 105.92 245.27 105.92 245.1 105.93H243.61C242.96 105.94 242.44 105.93 242.06 105.91V105.93C242.34 105.95 242.55 105.99 242.7 106.04C242.89 106.11 243.02 106.24 243.08 106.43C243.14 106.6 243.17 106.86 243.17 107.22V114.01C243.17 114.37 243.14 114.63 243.08 114.8C243.01 114.99 242.88 115.12 242.7 115.19C242.55 115.24 242.35 115.28 242.06 115.3V115.32C242.44 115.3 242.99 115.29 243.69 115.29L243.7 115.32ZM245.25 110.74H244.21V107.25C244.21 106.9 244.24 106.65 244.3 106.47C244.37 106.27 244.49 106.13 244.66 106.05C244.82 105.98 245.04 105.94 245.35 105.94C246.19 105.94 246.8 106.15 247.18 106.56C247.56 106.97 247.75 107.57 247.75 108.34C247.75 109.11 247.57 109.67 247.21 110.09C246.85 110.52 246.19 110.74 245.25 110.74ZM244.46 110.49H245.25C246.11 110.49 246.71 110.3 247.02 109.93C247.34 109.55 247.5 109.02 247.5 108.34C247.5 107.63 247.33 107.08 247 106.73C246.67 106.37 246.12 106.19 245.35 106.19C245.09 106.19 244.89 106.22 244.77 106.28C244.66 106.33 244.59 106.42 244.54 106.55C244.49 106.7 244.46 106.94 244.46 107.25V110.49Z" fill="white"/>
<path d="M258.95 115.21V115.48C258.58 115.45 258.1 115.44 257.49 115.44C256.7 115.44 256.12 115.45 255.74 115.48V115.21C256.09 115.19 256.34 115.15 256.49 115.08C256.64 115.01 256.72 114.89 256.72 114.7C256.72 114.54 256.67 114.33 256.56 114.06L255.73 111.81H252.42L251.86 113.26C251.68 113.75 251.59 114.13 251.59 114.38C251.59 114.66 251.69 114.87 251.88 115C252.07 115.13 252.38 115.2 252.78 115.21V115.48C252.26 115.45 251.73 115.44 251.2 115.44C250.79 115.44 250.45 115.45 250.17 115.48V115.21C250.63 115.1 250.99 114.7 251.25 114.02L254.47 105.72H254.69L258.03 114.33C258.25 114.9 258.56 115.19 258.97 115.21H258.95ZM255.6 111.54L254.07 107.45L252.51 111.54H255.61H255.6Z" fill="white"/>
<path d="M250.02 115.62V115.11L250.12 115.09C250.53 114.99 250.87 114.61 251.11 113.97L254.36 105.59H254.75L254.78 105.67L258.12 114.28C258.32 114.8 258.59 115.06 258.95 115.08H259.07V115.61H258.94C258.58 115.57 258.09 115.56 257.48 115.56C256.7 115.56 256.11 115.57 255.74 115.6H255.61V115.08H255.73C256.06 115.06 256.3 115.02 256.43 114.95C256.54 114.9 256.58 114.82 256.58 114.69C256.58 114.56 256.53 114.35 256.42 114.09L255.61 111.92H252.47L251.94 113.29C251.77 113.76 251.68 114.13 251.68 114.37C251.68 114.61 251.76 114.78 251.92 114.88C252.09 114.99 252.38 115.06 252.75 115.07H252.87V115.6H252.74C252.22 115.57 251.7 115.55 251.17 115.55C250.77 115.55 250.42 115.56 250.16 115.59H250.02V115.62ZM251.17 115.32C251.65 115.32 252.14 115.33 252.62 115.35V115.33C252.25 115.31 251.98 115.24 251.78 115.11C251.55 114.96 251.43 114.72 251.43 114.39C251.43 114.12 251.52 113.73 251.71 113.22L252.3 111.69H255.79L256.66 114.02C256.78 114.31 256.83 114.53 256.83 114.71C256.83 114.94 256.73 115.11 256.53 115.2C256.38 115.27 256.16 115.31 255.86 115.33V115.35C256.24 115.33 256.79 115.32 257.49 115.32C258.03 115.32 258.48 115.33 258.83 115.35V115.32C258.42 115.25 258.11 114.94 257.89 114.38L254.58 105.85H254.53L251.34 114.07C251.08 114.74 250.72 115.16 250.27 115.31V115.35C250.52 115.33 250.82 115.32 251.17 115.32ZM255.77 111.67H252.31L254.05 107.1L255.76 111.67H255.77ZM252.68 111.42H255.41L254.06 107.8L252.68 111.42Z" fill="white"/>
<path d="M266.28 115.48C265.66 115.45 264.61 115.44 263.14 115.44C261.39 115.44 260.06 115.45 259.17 115.48V115.21C259.5 115.19 259.74 115.15 259.89 115.1C260.04 115.05 260.14 114.94 260.2 114.79C260.26 114.64 260.28 114.38 260.28 114.04V107.25C260.28 106.9 260.25 106.65 260.2 106.5C260.15 106.35 260.04 106.24 259.89 106.19C259.74 106.14 259.5 106.1 259.17 106.08V105.81C260.06 105.84 261.39 105.85 263.14 105.85C264.48 105.85 265.44 105.84 266 105.81C265.94 106.41 265.9 106.95 265.9 107.43C265.9 107.79 265.91 108.07 265.94 108.28H265.63C265.57 107.69 265.48 107.25 265.38 106.96C265.28 106.67 265.11 106.46 264.87 106.33C264.63 106.2 264.27 106.13 263.79 106.13H262.65C262.32 106.13 262.08 106.16 261.93 106.21C261.78 106.26 261.68 106.36 261.62 106.52C261.56 106.68 261.54 106.93 261.54 107.27V110.5H262.44C262.76 110.5 263.01 110.42 263.18 110.27C263.35 110.12 263.47 109.94 263.53 109.74C263.59 109.53 263.64 109.28 263.67 108.97L263.71 108.7H264.02C263.99 109.08 263.98 109.51 263.98 109.99V110.65C263.98 111.12 264.01 111.76 264.06 112.59H263.75C263.75 112.53 263.71 112.3 263.67 111.93C263.62 111.55 263.5 111.27 263.29 111.07C263.08 110.88 262.8 110.78 262.43 110.78H261.53V114.07C261.53 114.42 261.56 114.67 261.61 114.82C261.66 114.97 261.77 115.08 261.92 115.13C262.07 115.18 262.31 115.21 262.64 115.21H263.64C264.21 115.21 264.64 115.13 264.93 114.98C265.23 114.83 265.44 114.59 265.58 114.25C265.72 113.91 265.82 113.43 265.88 112.78H266.2C266.17 113.03 266.16 113.36 266.16 113.77C266.16 114.29 266.19 114.87 266.26 115.52L266.28 115.48Z" fill="white"/>
<path d="M266.42 115.61H266.28C265.66 115.58 264.61 115.56 263.15 115.56C261.41 115.56 260.07 115.57 259.18 115.6H259.05V115.08H259.17C259.48 115.06 259.71 115.02 259.85 114.97C259.97 114.93 260.04 114.85 260.08 114.73C260.13 114.59 260.16 114.35 260.16 114.02V107.23C260.16 106.9 260.13 106.66 260.08 106.52C260.04 106.4 259.96 106.32 259.85 106.28C259.71 106.23 259.48 106.2 259.17 106.18H259.05V105.65H259.18C260.07 105.68 261.4 105.69 263.15 105.69C264.48 105.69 265.44 105.68 266.01 105.65H266.16L266.14 105.79C266.08 106.38 266.04 106.92 266.04 107.39C266.04 107.74 266.05 108.02 266.08 108.22L266.1 108.36H265.53V108.25C265.45 107.67 265.37 107.23 265.28 106.96C265.19 106.7 265.04 106.52 264.83 106.4C264.61 106.28 264.27 106.22 263.81 106.22H262.67C262.36 106.22 262.13 106.24 261.99 106.29C261.88 106.33 261.8 106.4 261.76 106.52C261.71 106.66 261.68 106.9 261.68 107.23V110.34H262.46C262.75 110.34 262.97 110.27 263.12 110.14C263.28 110.01 263.38 109.85 263.43 109.67C263.49 109.47 263.53 109.22 263.57 108.92L263.63 108.54H264.19V108.67C264.15 109.05 264.14 109.48 264.14 109.95V110.61C264.14 111.07 264.17 111.72 264.22 112.55V112.68H263.67L263.65 112.57C263.65 112.51 263.61 112.28 263.57 111.9C263.53 111.55 263.41 111.29 263.23 111.12C263.05 110.95 262.79 110.87 262.46 110.87H261.68V114.03C261.68 114.36 261.71 114.6 261.76 114.74C261.8 114.86 261.88 114.93 261.99 114.97C262.13 115.02 262.35 115.04 262.67 115.04H263.67C264.21 115.04 264.63 114.97 264.91 114.83C265.18 114.69 265.38 114.47 265.5 114.17C265.63 113.85 265.73 113.37 265.79 112.73V112.62H266.37L266.35 112.76C266.32 113 266.31 113.33 266.31 113.73C266.31 114.25 266.34 114.84 266.4 115.47V115.61H266.42ZM259.3 115.32V115.35C260.19 115.33 261.48 115.31 263.15 115.31C264.51 115.31 265.51 115.32 266.15 115.35C266.09 114.76 266.07 114.22 266.07 113.73C266.07 113.39 266.07 113.1 266.1 112.87H266.04C265.97 113.47 265.87 113.94 265.74 114.27C265.59 114.63 265.35 114.89 265.03 115.06C264.72 115.22 264.26 115.3 263.68 115.3H262.68C262.33 115.3 262.08 115.27 261.92 115.22C261.73 115.16 261.6 115.03 261.53 114.84C261.47 114.67 261.44 114.41 261.44 114.05V110.64H262.47C262.87 110.64 263.18 110.75 263.41 110.96C263.64 111.17 263.78 111.48 263.83 111.89C263.86 112.15 263.88 112.33 263.9 112.44H263.97C263.92 111.67 263.9 111.06 263.9 110.62V109.96C263.9 109.54 263.91 109.15 263.93 108.8H263.86L263.84 108.97C263.8 109.29 263.75 109.55 263.69 109.76C263.63 109.99 263.5 110.19 263.3 110.35C263.1 110.52 262.83 110.61 262.48 110.61H261.45V107.25C261.45 106.89 261.48 106.63 261.54 106.46C261.61 106.27 261.74 106.14 261.93 106.08C262.09 106.03 262.34 106 262.69 106H263.83C264.34 106 264.71 106.07 264.97 106.21C265.23 106.36 265.42 106.59 265.53 106.91C265.63 107.19 265.71 107.59 265.77 108.15H265.83C265.81 107.95 265.8 107.71 265.8 107.43C265.8 106.99 265.83 106.49 265.88 105.94C265.3 105.96 264.39 105.98 263.16 105.98C261.5 105.98 260.2 105.97 259.31 105.94V105.97C259.59 105.99 259.8 106.03 259.95 106.08C260.14 106.15 260.27 106.28 260.33 106.47C260.39 106.64 260.42 106.9 260.42 107.26V114.05C260.42 114.41 260.39 114.67 260.33 114.84C260.26 115.03 260.13 115.16 259.95 115.23C259.81 115.28 259.6 115.32 259.31 115.34L259.3 115.32Z" fill="white"/>
<path d="M271 106.06C270.67 106.08 270.43 106.12 270.28 106.17C270.13 106.22 270.03 106.33 269.97 106.48C269.91 106.63 269.89 106.89 269.89 107.23V114.02C269.89 114.37 269.92 114.62 269.97 114.77C270.02 114.92 270.13 115.03 270.28 115.08C270.43 115.13 270.67 115.16 271 115.16H272C272.57 115.16 273 115.08 273.29 114.92C273.59 114.76 273.8 114.5 273.94 114.15C274.08 113.79 274.18 113.28 274.24 112.6H274.56C274.53 112.88 274.52 113.26 274.52 113.72C274.52 114.24 274.55 114.82 274.62 115.47C274 115.44 272.95 115.43 271.48 115.43C269.73 115.43 268.4 115.44 267.51 115.47V115.2C267.84 115.18 268.08 115.14 268.23 115.09C268.38 115.04 268.48 114.93 268.54 114.78C268.6 114.63 268.62 114.37 268.62 114.03V107.24C268.62 106.89 268.59 106.64 268.54 106.49C268.49 106.34 268.38 106.23 268.23 106.18C268.08 106.13 267.84 106.09 267.51 106.07V105.8C267.89 105.83 268.48 105.84 269.26 105.84C269.99 105.84 270.57 105.83 271 105.8V106.07V106.06Z" fill="white"/>
<path d="M274.76 115.61H274.62C274 115.58 272.95 115.56 271.49 115.56C269.75 115.56 268.41 115.57 267.52 115.6H267.39V115.08H267.51C267.82 115.06 268.05 115.02 268.19 114.97C268.31 114.93 268.38 114.85 268.42 114.73C268.47 114.59 268.5 114.35 268.5 114.02V107.23C268.5 106.9 268.47 106.66 268.42 106.52C268.38 106.4 268.3 106.32 268.19 106.28C268.05 106.23 267.82 106.2 267.51 106.18H267.39V105.65H267.52C267.9 105.69 268.49 105.7 269.26 105.7C269.98 105.7 270.57 105.69 270.99 105.66H271.12V106.18H271C270.69 106.2 270.46 106.24 270.32 106.29C270.2 106.33 270.13 106.41 270.09 106.53C270.04 106.67 270.01 106.91 270.01 107.24V114.03C270.01 114.36 270.04 114.6 270.09 114.74C270.13 114.86 270.21 114.93 270.32 114.97C270.46 115.02 270.68 115.04 271 115.04H272C272.54 115.04 272.96 114.96 273.23 114.82C273.5 114.68 273.7 114.44 273.82 114.11C273.95 113.76 274.05 113.26 274.11 112.6V112.49H274.69V112.63C274.65 112.91 274.64 113.28 274.64 113.74C274.64 114.26 274.67 114.85 274.73 115.48V115.62L274.76 115.61ZM267.64 115.32V115.35C268.53 115.33 269.82 115.31 271.49 115.31C272.85 115.31 273.85 115.32 274.49 115.35C274.43 114.76 274.41 114.22 274.41 113.73C274.41 113.33 274.41 113 274.44 112.73H274.37C274.31 113.36 274.2 113.85 274.07 114.2C273.92 114.58 273.68 114.87 273.36 115.04C273.04 115.21 272.6 115.29 272.01 115.29H271.01C270.66 115.29 270.41 115.26 270.25 115.21C270.06 115.15 269.93 115.02 269.86 114.83C269.8 114.66 269.77 114.4 269.77 114.04V107.25C269.77 106.89 269.8 106.63 269.86 106.46C269.93 106.27 270.06 106.14 270.24 106.07C270.39 106.02 270.59 105.98 270.88 105.96V105.94C270.46 105.96 269.92 105.97 269.27 105.97C268.57 105.97 268.02 105.96 267.64 105.94V105.96C267.92 105.98 268.13 106.02 268.28 106.07C268.47 106.14 268.6 106.27 268.66 106.46C268.72 106.63 268.75 106.89 268.75 107.25V114.04C268.75 114.4 268.72 114.66 268.66 114.83C268.59 115.02 268.46 115.15 268.28 115.22C268.14 115.27 267.93 115.31 267.64 115.33V115.32Z" fill="white"/>
<path d="M7.81 114.91C8 115.04 8.22999 115.14 8.5 115.2V115.47C8.06 115.44 7.51 115.43 6.86 115.43C6.37 115.43 5.89999 115.44 5.45 115.47V115.2C5.66999 115.2 5.83 115.16 5.93 115.12C6.02999 115.08 6.08 115.01 6.08 114.91C6.08 114.81 6.03 114.71 5.94 114.58L3.94 111.57C3.68 111.17 3.45 110.9 3.27 110.78C3.09 110.66 2.83 110.59 2.5 110.57V114.02C2.5 114.37 2.53 114.62 2.58 114.77C2.63 114.92 2.74 115.03 2.89 115.08C3.04 115.13 3.28 115.17 3.61 115.19V115.46C3.19 115.43 2.61 115.42 1.87 115.42C1.08 115.42 0.499995 115.43 0.119995 115.46V115.19C0.449995 115.17 0.689995 115.13 0.839995 115.08C0.989995 115.03 1.09 114.92 1.15 114.77C1.21 114.62 1.23 114.36 1.23 114.02V107.23C1.23 106.88 1.2 106.63 1.15 106.48C1.1 106.33 0.989995 106.22 0.839995 106.17C0.689995 106.12 0.449995 106.08 0.119995 106.06V105.79C0.499995 105.82 1.09 105.83 1.87 105.83C2.6 105.83 3.18 105.82 3.61 105.79V106.06C3.28 106.08 3.04 106.12 2.89 106.17C2.74 106.22 2.64 106.33 2.58 106.48C2.52 106.63 2.5 106.89 2.5 107.23V110.3C3.17 110.27 3.69 110.02 4.06 109.53L5.37 107.86C5.83999 107.28 6.07 106.85 6.07 106.55C6.07 106.23 5.79 106.07 5.22 106.06V105.79C5.74 105.82 6.26 105.83 6.8 105.83C7.3 105.83 7.69 105.82 7.96 105.79V106.06C7.66 106.11 7.38 106.2 7.11 106.35C6.84 106.5 6.59 106.74 6.34 107.06L4.11 109.92L7.29 114.37C7.44 114.6 7.62 114.78 7.8 114.91H7.81Z" fill="white"/>
<path d="M0 115.61V115.08H0.12C0.43 115.06 0.66 115.02 0.8 114.97C0.92 114.93 0.99 114.85 1.03 114.73C1.07 114.63 1.11 114.43 1.11 114.02V107.23C1.11 106.82 1.07 106.62 1.03 106.52C0.99 106.4 0.91 106.32 0.8 106.28C0.66 106.23 0.43 106.2 0.12 106.18H0V105.65H0.13C0.51 105.69 1.09 105.7 1.87 105.7C2.59 105.7 3.18 105.69 3.6 105.66H3.73V106.18H3.61C3.3 106.2 3.07 106.24 2.93 106.29C2.81 106.33 2.74 106.41 2.7 106.53C2.65 106.67 2.62 106.91 2.62 107.24V110.17C3.19 110.12 3.63 109.89 3.96 109.46L5.27 107.79C5.72 107.24 5.94 106.82 5.94 106.55C5.94 106.46 5.94 106.19 5.21 106.18H5.09V105.65H5.22C5.74 105.68 6.26 105.7 6.79 105.7C7.29 105.7 7.67 105.69 7.94 105.66H8.08V106.16L7.97 106.18C7.69 106.22 7.41 106.32 7.16 106.46C6.91 106.6 6.67 106.83 6.43 107.13L4.26 109.92L7.38 114.3C7.53 114.52 7.69 114.69 7.86 114.81C8.03 114.93 8.25 115.02 8.51 115.09L8.61 115.11V115.61H8.48C8.05 115.57 7.5 115.56 6.84 115.56C6.35 115.56 5.88 115.57 5.44 115.6H5.31V115.08H5.43C5.63 115.07 5.78 115.04 5.86 115C5.94 114.96 5.94 114.93 5.94 114.91C5.94 114.87 5.92 114.79 5.83 114.66L3.83 111.64C3.58 111.25 3.36 111 3.19 110.89C3.05 110.8 2.86 110.74 2.62 110.71V114.03C2.62 114.36 2.65 114.6 2.7 114.74C2.74 114.86 2.82 114.94 2.93 114.98C3.07 115.03 3.3 115.06 3.61 115.08H3.73V115.61H3.6C3.18 115.57 2.6 115.56 1.87 115.56C1.09 115.56 0.5 115.57 0.13 115.6H0L0 115.61ZM6.86 115.31C7.45 115.31 7.96 115.32 8.38 115.34V115.3C8.13 115.23 7.92 115.13 7.74 115.01C7.54 114.87 7.36 114.68 7.2 114.44L3.97 109.92L6.26 106.98C6.51 106.65 6.79 106.4 7.06 106.24C7.31 106.1 7.57 106 7.85 105.95V105.92C7.59 105.94 7.24 105.95 6.81 105.95C6.33 105.95 5.84 105.94 5.36 105.92V105.94C6.06 105.98 6.21 106.29 6.21 106.55C6.21 106.88 5.97 107.34 5.48 107.94L4.17 109.61C3.77 110.12 3.22 110.4 2.52 110.42H2.39V107.23C2.39 106.87 2.42 106.61 2.48 106.44C2.55 106.25 2.68 106.12 2.86 106.05C3.01 106 3.22 105.96 3.5 105.94V105.92C3.08 105.94 2.54 105.95 1.89 105.95C1.19 105.95 0.64 105.94 0.26 105.92V105.94C0.54 105.96 0.75 106 0.9 106.05C1.09 106.12 1.22 106.25 1.28 106.44C1.34 106.61 1.37 106.87 1.37 107.23V114.02C1.37 114.38 1.34 114.64 1.28 114.81C1.21 115 1.08 115.13 0.9 115.2C0.75 115.25 0.55 115.29 0.26 115.31V115.33C0.64 115.31 1.19 115.3 1.89 115.3C2.55 115.3 3.1 115.31 3.5 115.33V115.31C3.22 115.29 3.01 115.25 2.86 115.2C2.67 115.13 2.54 115 2.48 114.81C2.42 114.64 2.39 114.38 2.39 114.02V110.44H2.52C2.87 110.47 3.15 110.55 3.35 110.68C3.55 110.81 3.78 111.08 4.06 111.5L6.06 114.51C6.17 114.66 6.22 114.79 6.22 114.91C6.22 115.05 6.14 115.16 5.99 115.23C5.9 115.27 5.76 115.3 5.59 115.32V115.34C6 115.32 6.43 115.31 6.88 115.31H6.86Z" fill="white"/>
<path d="M16.2 115.48C15.58 115.45 14.53 115.44 13.06 115.44C11.31 115.44 9.98 115.45 9.09 115.48V115.21C9.42 115.19 9.66 115.15 9.81 115.1C9.96 115.05 10.06 114.94 10.12 114.79C10.18 114.64 10.2 114.38 10.2 114.04V107.25C10.2 106.9 10.17 106.65 10.12 106.5C10.07 106.35 9.96 106.24 9.81 106.19C9.66 106.14 9.42 106.1 9.09 106.08V105.81C9.98 105.84 11.31 105.85 13.06 105.85C14.4 105.85 15.36 105.84 15.92 105.81C15.86 106.41 15.82 106.95 15.82 107.43C15.82 107.79 15.83 108.07 15.86 108.28H15.54C15.48 107.69 15.39 107.25 15.29 106.96C15.19 106.67 15.02 106.46 14.78 106.33C14.54 106.2 14.18 106.13 13.7 106.13H12.56C12.23 106.13 11.99 106.16 11.84 106.21C11.69 106.26 11.59 106.36 11.53 106.52C11.47 106.68 11.45 106.93 11.45 107.27V110.5H12.35C12.67 110.5 12.92 110.42 13.09 110.27C13.26 110.12 13.38 109.94 13.44 109.74C13.5 109.53 13.55 109.28 13.58 108.97L13.62 108.7H13.94C13.91 109.08 13.9 109.51 13.9 109.99V110.65C13.9 111.12 13.93 111.76 13.98 112.59H13.66C13.66 112.53 13.62 112.3 13.58 111.93C13.54 111.56 13.41 111.27 13.2 111.07C12.99 110.88 12.71 110.78 12.34 110.78H11.44V114.07C11.44 114.42 11.47 114.67 11.52 114.82C11.57 114.97 11.68 115.08 11.83 115.13C11.98 115.18 12.22 115.21 12.55 115.21H13.55C14.12 115.21 14.55 115.13 14.84 114.98C15.13 114.83 15.35 114.59 15.49 114.25C15.63 113.92 15.73 113.43 15.79 112.78H16.1C16.07 113.03 16.06 113.36 16.06 113.77C16.06 114.29 16.09 114.87 16.16 115.52L16.2 115.48Z" fill="white"/>
<path d="M16.34 115.61H16.2C15.58 115.58 14.53 115.56 13.07 115.56C11.33 115.56 9.99 115.57 9.1 115.6H8.97V115.08H9.09C9.4 115.06 9.63 115.02 9.77 114.97C9.89 114.93 9.96 114.85 10 114.73C10.04 114.63 10.08 114.43 10.08 114.02V107.23C10.08 106.82 10.04 106.62 10 106.52C9.96 106.4 9.88 106.32 9.77 106.28C9.63 106.23 9.4 106.2 9.09 106.18H8.97V105.65H9.1C9.99 105.68 11.32 105.69 13.07 105.69C14.4 105.69 15.36 105.68 15.93 105.65H16.08L16.06 105.79C16 106.38 15.97 106.92 15.97 107.39C15.97 107.74 15.98 108.02 16.01 108.22L16.03 108.36H15.46V108.25C15.39 107.67 15.3 107.23 15.21 106.96C15.12 106.7 14.97 106.52 14.76 106.4C14.54 106.28 14.2 106.22 13.74 106.22H12.6C12.29 106.22 12.06 106.24 11.92 106.29C11.8 106.33 11.73 106.4 11.69 106.52C11.64 106.66 11.61 106.9 11.61 107.23V110.34H12.39C12.68 110.34 12.9 110.27 13.05 110.14C13.21 110 13.31 109.85 13.36 109.66C13.42 109.46 13.46 109.21 13.5 108.91L13.56 108.53H14.12V108.66C14.08 109.04 14.07 109.47 14.07 109.94V110.6C14.07 111.06 14.1 111.71 14.15 112.54V112.67H13.6L13.58 112.56C13.58 112.5 13.54 112.27 13.5 111.89C13.46 111.54 13.34 111.28 13.16 111.11C12.98 110.94 12.72 110.86 12.39 110.86H11.61V114.02C11.61 114.35 11.64 114.59 11.69 114.73C11.73 114.85 11.8 114.92 11.92 114.96C12.06 115.01 12.29 115.03 12.6 115.03H13.6C14.14 115.03 14.56 114.96 14.84 114.82C15.11 114.68 15.3 114.47 15.43 114.16C15.56 113.84 15.66 113.36 15.72 112.72V112.61H16.3L16.28 112.75C16.25 112.99 16.24 113.32 16.24 113.72C16.24 114.23 16.27 114.82 16.33 115.46V115.6L16.34 115.61ZM9.22 115.32V115.35C10.11 115.33 11.4 115.31 13.07 115.31C14.43 115.31 15.44 115.32 16.07 115.35C16.01 114.75 15.99 114.21 15.99 113.73C15.99 113.39 15.99 113.1 16.02 112.87H15.96C15.89 113.48 15.8 113.94 15.66 114.27C15.51 114.63 15.27 114.9 14.95 115.06C14.63 115.22 14.19 115.3 13.6 115.3H12.6C12.25 115.3 12.01 115.27 11.84 115.22C11.65 115.16 11.52 115.03 11.45 114.84C11.39 114.67 11.36 114.41 11.36 114.05V110.64H12.39C12.79 110.64 13.1 110.75 13.33 110.96C13.56 111.17 13.7 111.48 13.75 111.89C13.78 112.15 13.8 112.33 13.82 112.44H13.89C13.84 111.67 13.82 111.06 13.82 110.62V109.96C13.82 109.54 13.83 109.15 13.85 108.8H13.78L13.76 108.97C13.72 109.28 13.67 109.55 13.61 109.76C13.54 109.99 13.41 110.19 13.22 110.35C13.03 110.52 12.75 110.61 12.4 110.61H11.37V107.25C11.37 106.89 11.4 106.63 11.46 106.46C11.53 106.27 11.66 106.14 11.85 106.08C12.02 106.03 12.26 106 12.61 106H13.75C14.26 106 14.63 106.07 14.89 106.21C15.15 106.36 15.34 106.59 15.45 106.91C15.55 107.19 15.63 107.6 15.69 108.15H15.75C15.73 107.95 15.72 107.71 15.72 107.43C15.72 106.99 15.75 106.49 15.8 105.94C15.22 105.96 14.31 105.98 13.08 105.98C11.42 105.98 10.12 105.97 9.23 105.94V105.97C9.51 105.99 9.72 106.03 9.87 106.08C10.06 106.15 10.19 106.28 10.25 106.47C10.31 106.64 10.34 106.9 10.34 107.26V114.05C10.34 114.41 10.31 114.67 10.25 114.84C10.18 115.03 10.05 115.16 9.87 115.23C9.72 115.28 9.52 115.32 9.23 115.34L9.22 115.32Z" fill="white"/>
<path d="M25.9 114.79C25.69 115.1 25.48 115.32 25.27 115.46C25.06 115.6 24.78 115.67 24.44 115.67C24.06 115.67 23.76 115.56 23.52 115.34C23.28 115.12 23.1 114.74 22.98 114.19L22.68 112.82C22.57 112.35 22.47 111.98 22.37 111.72C22.27 111.46 22.13 111.26 21.94 111.1C21.75 110.94 21.48 110.87 21.13 110.87H19.83V114.02C19.83 114.37 19.86 114.62 19.91 114.77C19.96 114.92 20.07 115.03 20.22 115.08C20.37 115.13 20.61 115.17 20.94 115.19V115.46C20.52 115.43 19.94 115.42 19.2 115.42C18.41 115.42 17.83 115.43 17.45 115.46V115.19C17.78 115.17 18.02 115.13 18.17 115.08C18.32 115.03 18.42 114.92 18.48 114.77C18.54 114.62 18.56 114.36 18.56 114.02V107.23C18.56 106.88 18.53 106.63 18.48 106.48C18.43 106.33 18.32 106.22 18.17 106.17C18.02 106.12 17.78 106.08 17.45 106.06V105.79C17.83 105.82 18.39 105.83 19.12 105.83H20.6C20.77 105.81 20.97 105.8 21.19 105.8C22.25 105.8 23.06 106.02 23.63 106.46C24.2 106.9 24.49 107.48 24.49 108.18C24.49 108.54 24.41 108.89 24.24 109.26C24.07 109.63 23.79 109.94 23.39 110.23C22.99 110.52 22.47 110.71 21.84 110.81L22.01 110.84C22.61 110.94 23.05 111.12 23.32 111.39C23.59 111.65 23.79 112.07 23.92 112.65L24.26 114.05C24.35 114.47 24.45 114.76 24.55 114.93C24.65 115.1 24.79 115.18 24.96 115.18C25.11 115.18 25.25 115.14 25.35 115.06C25.46 114.98 25.58 114.85 25.71 114.66L25.92 114.81L25.9 114.79ZM20.2 106.15C20.06 106.21 19.96 106.33 19.91 106.49C19.86 106.65 19.83 106.9 19.83 107.23V110.6H20.75C21.65 110.6 22.27 110.4 22.61 110C22.95 109.6 23.12 109.04 23.12 108.33C23.12 107.58 22.94 107.02 22.59 106.63C22.23 106.25 21.65 106.05 20.85 106.05C20.57 106.05 20.35 106.08 20.21 106.15H20.2Z" fill="white"/>
<path d="M24.43 115.8C24.03 115.8 23.69 115.68 23.42 115.44C23.16 115.2 22.97 114.8 22.84 114.22L22.54 112.85C22.43 112.38 22.33 112.02 22.24 111.77C22.15 111.54 22.02 111.35 21.85 111.21C21.68 111.07 21.44 111 21.12 111H19.94V114.03C19.94 114.36 19.97 114.6 20.02 114.74C20.06 114.86 20.14 114.94 20.25 114.98C20.39 115.03 20.62 115.06 20.93 115.08H21.05V115.61H20.92C20.5 115.57 19.92 115.56 19.19 115.56C18.41 115.56 17.82 115.57 17.45 115.6H17.32V115.08H17.44C17.75 115.06 17.98 115.02 18.12 114.97C18.24 114.93 18.31 114.85 18.35 114.73C18.4 114.59 18.43 114.35 18.43 114.02V107.23C18.43 106.9 18.4 106.66 18.35 106.52C18.31 106.4 18.23 106.32 18.12 106.28C17.98 106.23 17.75 106.2 17.44 106.18H17.32V105.65H17.45C17.83 105.69 18.39 105.7 19.11 105.7H20.59C20.76 105.68 20.96 105.67 21.18 105.67C22.26 105.67 23.11 105.9 23.7 106.36C24.3 106.83 24.61 107.44 24.61 108.18C24.61 108.55 24.52 108.93 24.34 109.31C24.16 109.69 23.86 110.03 23.45 110.33C23.17 110.53 22.83 110.69 22.43 110.81C22.85 110.92 23.17 111.09 23.39 111.3C23.68 111.58 23.89 112.03 24.03 112.62L24.37 114.02C24.46 114.43 24.55 114.71 24.64 114.86C24.72 114.99 24.81 115.05 24.94 115.05C25.07 115.05 25.17 115.02 25.25 114.95C25.35 114.87 25.46 114.75 25.59 114.58L25.66 114.48L26.06 114.77L25.99 114.87C25.77 115.19 25.55 115.43 25.32 115.58C25.09 115.73 24.79 115.81 24.42 115.81L24.43 115.8ZM21.92 110.96C21.92 110.96 21.98 111 22 111.02C22.21 111.19 22.37 111.41 22.47 111.69C22.57 111.95 22.67 112.31 22.78 112.8L23.08 114.17C23.19 114.69 23.36 115.05 23.58 115.25C23.8 115.45 24.08 115.55 24.42 115.55C24.74 115.55 25 115.49 25.19 115.37C25.36 115.26 25.54 115.08 25.72 114.83C25.61 114.97 25.5 115.07 25.41 115.15C25.28 115.25 25.13 115.3 24.94 115.3C24.72 115.3 24.54 115.19 24.42 114.99C24.31 114.81 24.21 114.51 24.12 114.07L23.78 112.68C23.66 112.13 23.47 111.73 23.21 111.48C22.96 111.23 22.54 111.06 21.96 110.97H21.92V110.96ZM19.19 115.32C19.85 115.32 20.4 115.33 20.8 115.35V115.33C20.52 115.31 20.31 115.27 20.16 115.22C19.97 115.15 19.84 115.02 19.78 114.83C19.72 114.66 19.69 114.4 19.69 114.04V110.76H21.12C21.19 110.76 21.25 110.76 21.31 110.76L21.79 110.68C22.41 110.58 22.91 110.4 23.29 110.12C23.67 109.85 23.94 109.54 24.1 109.2C24.26 108.86 24.34 108.51 24.34 108.18C24.34 107.51 24.08 106.98 23.53 106.56C22.98 106.14 22.19 105.92 21.16 105.92C20.94 105.92 20.75 105.92 20.58 105.93H19.1C18.45 105.94 17.93 105.93 17.55 105.91V105.93C17.83 105.95 18.04 105.99 18.19 106.04C18.38 106.11 18.51 106.24 18.57 106.43C18.63 106.6 18.66 106.86 18.66 107.22V114.01C18.66 114.37 18.63 114.63 18.57 114.8C18.5 114.99 18.37 115.12 18.19 115.19C18.05 115.24 17.84 115.28 17.55 115.3V115.32C17.93 115.3 18.48 115.29 19.18 115.29L19.19 115.32ZM20.74 110.74H19.7V107.25C19.7 106.9 19.73 106.65 19.79 106.47C19.86 106.27 19.98 106.13 20.15 106.05C20.31 105.98 20.53 105.94 20.84 105.94C21.67 105.94 22.29 106.15 22.67 106.56C23.05 106.97 23.24 107.57 23.24 108.34C23.24 109.11 23.06 109.67 22.7 110.09C22.34 110.52 21.68 110.74 20.74 110.74ZM19.95 110.49H20.74C21.6 110.49 22.2 110.3 22.51 109.93C22.83 109.55 22.99 109.02 22.99 108.34C22.99 107.63 22.82 107.09 22.49 106.73C22.16 106.37 21.61 106.19 20.84 106.19C20.58 106.19 20.38 106.22 20.26 106.28C20.15 106.33 20.08 106.42 20.03 106.55C19.98 106.7 19.95 106.94 19.95 107.25V110.49Z" fill="white"/>
<path d="M33.41 115.48C32.79 115.45 31.74 115.44 30.27 115.44C28.52 115.44 27.19 115.45 26.3 115.48V115.21C26.63 115.19 26.87 115.15 27.02 115.1C27.17 115.05 27.27 114.94 27.33 114.79C27.39 114.64 27.41 114.38 27.41 114.04V107.25C27.41 106.9 27.38 106.65 27.33 106.5C27.28 106.35 27.17 106.24 27.02 106.19C26.87 106.14 26.63 106.1 26.3 106.08V105.81C27.19 105.84 28.52 105.85 30.27 105.85C31.61 105.85 32.57 105.84 33.13 105.81C33.07 106.41 33.03 106.95 33.03 107.43C33.03 107.79 33.04 108.07 33.07 108.28H32.75C32.69 107.69 32.6 107.25 32.5 106.96C32.4 106.67 32.23 106.46 31.99 106.33C31.75 106.2 31.39 106.13 30.91 106.13H29.77C29.44 106.13 29.2 106.16 29.05 106.21C28.9 106.26 28.8 106.36 28.74 106.52C28.68 106.68 28.66 106.93 28.66 107.27V110.5H29.56C29.88 110.5 30.13 110.42 30.3 110.27C30.47 110.12 30.59 109.94 30.65 109.74C30.71 109.53 30.76 109.28 30.79 108.97L30.83 108.7H31.15C31.12 109.08 31.11 109.51 31.11 109.99V110.65C31.11 111.12 31.14 111.76 31.19 112.59H30.87C30.87 112.53 30.83 112.3 30.79 111.93C30.75 111.56 30.62 111.27 30.41 111.07C30.2 110.88 29.92 110.78 29.55 110.78H28.65V114.07C28.65 114.42 28.68 114.67 28.73 114.82C28.78 114.97 28.89 115.08 29.04 115.13C29.19 115.18 29.43 115.21 29.76 115.21H30.76C31.33 115.21 31.76 115.13 32.05 114.98C32.34 114.83 32.56 114.59 32.7 114.25C32.84 113.92 32.94 113.43 33 112.78H33.31C33.28 113.03 33.27 113.36 33.27 113.77C33.27 114.29 33.3 114.87 33.37 115.52L33.41 115.48Z" fill="white"/>
<path d="M33.55 115.61H33.41C32.79 115.58 31.74 115.56 30.28 115.56C28.54 115.56 27.2 115.57 26.31 115.6H26.18V115.08H26.3C26.61 115.06 26.84 115.02 26.98 114.97C27.1 114.93 27.17 114.85 27.21 114.73C27.25 114.63 27.29 114.43 27.29 114.02V107.23C27.29 106.82 27.25 106.62 27.21 106.52C27.17 106.4 27.09 106.32 26.98 106.28C26.84 106.23 26.61 106.2 26.3 106.18H26.18V105.65H26.31C27.2 105.68 28.53 105.69 30.28 105.69C31.61 105.69 32.57 105.68 33.14 105.65H33.29L33.27 105.79C33.21 106.38 33.18 106.92 33.18 107.39C33.18 107.74 33.19 108.02 33.22 108.22L33.24 108.36H32.67V108.25C32.6 107.67 32.51 107.23 32.42 106.96C32.33 106.7 32.18 106.52 31.97 106.4C31.75 106.28 31.41 106.22 30.95 106.22H29.81C29.5 106.22 29.27 106.24 29.13 106.29C29.01 106.33 28.94 106.4 28.9 106.52C28.85 106.66 28.82 106.9 28.82 107.23V110.34H29.6C29.89 110.34 30.11 110.27 30.26 110.14C30.42 110 30.52 109.85 30.57 109.66C30.63 109.46 30.67 109.21 30.71 108.91L30.77 108.53H31.33V108.66C31.29 109.04 31.28 109.47 31.28 109.94V110.6C31.28 111.06 31.31 111.71 31.36 112.54V112.67H30.81L30.79 112.56C30.79 112.5 30.75 112.27 30.71 111.89C30.67 111.54 30.55 111.28 30.37 111.11C30.19 110.94 29.93 110.86 29.6 110.86H28.82V114.02C28.82 114.35 28.85 114.59 28.9 114.73C28.94 114.85 29.01 114.92 29.13 114.96C29.27 115.01 29.5 115.03 29.81 115.03H30.81C31.35 115.03 31.77 114.96 32.05 114.82C32.32 114.68 32.51 114.47 32.64 114.16C32.77 113.84 32.87 113.36 32.93 112.72V112.61H33.51L33.49 112.75C33.46 112.99 33.45 113.32 33.45 113.72C33.45 114.23 33.48 114.82 33.54 115.46V115.6L33.55 115.61ZM26.43 115.32V115.35C27.32 115.33 28.61 115.31 30.28 115.31C31.64 115.31 32.65 115.32 33.28 115.35C33.22 114.75 33.2 114.21 33.2 113.73C33.2 113.39 33.2 113.1 33.23 112.87H33.17C33.1 113.48 33.01 113.94 32.87 114.27C32.72 114.63 32.48 114.9 32.16 115.06C31.84 115.22 31.4 115.3 30.81 115.3H29.81C29.46 115.3 29.22 115.27 29.05 115.22C28.86 115.16 28.73 115.03 28.66 114.84C28.6 114.67 28.57 114.41 28.57 114.05V110.64H29.6C30 110.64 30.31 110.75 30.54 110.96C30.77 111.17 30.91 111.48 30.96 111.89C30.99 112.15 31.01 112.33 31.03 112.44H31.1C31.05 111.67 31.03 111.06 31.03 110.62V109.96C31.03 109.54 31.04 109.15 31.06 108.8H30.99L30.97 108.97C30.93 109.28 30.88 109.55 30.82 109.76C30.75 109.99 30.62 110.19 30.43 110.35C30.24 110.52 29.96 110.61 29.61 110.61H28.58V107.25C28.58 106.89 28.61 106.63 28.67 106.46C28.74 106.27 28.87 106.14 29.06 106.08C29.23 106.03 29.47 106 29.82 106H30.96C31.47 106 31.84 106.07 32.1 106.21C32.36 106.36 32.55 106.59 32.66 106.91C32.76 107.19 32.84 107.6 32.9 108.15H32.96C32.94 107.95 32.93 107.71 32.93 107.43C32.93 106.99 32.96 106.49 33.01 105.94C32.43 105.96 31.52 105.98 30.29 105.98C28.63 105.98 27.33 105.97 26.44 105.94V105.97C26.72 105.99 26.93 106.03 27.08 106.08C27.27 106.15 27.4 106.28 27.46 106.47C27.52 106.64 27.55 106.9 27.55 107.26V114.05C27.55 114.41 27.52 114.67 27.46 114.84C27.39 115.03 27.26 115.16 27.08 115.23C26.93 115.28 26.73 115.32 26.44 115.34L26.43 115.32Z" fill="white"/>
<path d="M43.25 106.06C42.93 106.08 42.69 106.13 42.54 106.2C42.38 106.28 42.28 106.41 42.22 106.58C42.17 106.76 42.14 107.02 42.14 107.37V115.54H41.83L36.08 106.65V113.88C36.08 114.24 36.11 114.5 36.17 114.67C36.23 114.84 36.35 114.97 36.52 115.05C36.69 115.13 36.96 115.18 37.33 115.19V115.46C37 115.43 36.54 115.42 35.93 115.42C35.38 115.42 34.96 115.43 34.66 115.46V115.19C34.98 115.17 35.22 115.12 35.37 115.05C35.53 114.97 35.63 114.84 35.68 114.67C35.73 114.49 35.76 114.23 35.76 113.88V107.22C35.76 106.87 35.73 106.62 35.68 106.47C35.63 106.32 35.52 106.21 35.37 106.16C35.22 106.11 34.98 106.07 34.65 106.05V105.78C34.95 105.81 35.38 105.82 35.92 105.82C36.33 105.82 36.69 105.81 36.99 105.78L41.82 113.23V107.37C41.82 107.01 41.79 106.75 41.73 106.58C41.67 106.41 41.55 106.28 41.38 106.2C41.21 106.12 40.94 106.07 40.57 106.06V105.79C40.9 105.82 41.36 105.83 41.97 105.83C42.52 105.83 42.94 105.82 43.24 105.79V106.06H43.25Z" fill="white"/>
<path d="M42.26 115.67H41.75L41.71 115.61L36.19 107.08V113.89C36.19 114.23 36.22 114.49 36.27 114.64C36.32 114.78 36.41 114.88 36.55 114.94C36.71 115.01 36.96 115.06 37.31 115.07H37.43V115.6H37.29C36.97 115.56 36.5 115.55 35.9 115.55C35.36 115.55 34.93 115.56 34.64 115.59H34.5V115.07H34.62C34.92 115.05 35.14 115 35.28 114.93C35.4 114.87 35.49 114.77 35.53 114.62C35.58 114.45 35.61 114.2 35.61 113.87V107.21C35.61 106.8 35.57 106.6 35.53 106.5C35.49 106.38 35.41 106.3 35.3 106.26C35.16 106.21 34.93 106.18 34.62 106.16H34.5V105.62H34.64C34.93 105.66 35.36 105.67 35.9 105.67C36.31 105.67 36.66 105.66 36.96 105.63H37.04L37.08 105.69L41.68 112.79V107.35C41.68 107.01 41.65 106.76 41.6 106.6C41.55 106.46 41.46 106.36 41.32 106.3C41.16 106.23 40.9 106.18 40.56 106.17H40.44V105.64H40.58C40.9 105.68 41.37 105.69 41.97 105.69C42.51 105.69 42.94 105.68 43.23 105.65H43.37V106.17H43.25C42.95 106.19 42.73 106.24 42.59 106.31C42.46 106.37 42.38 106.47 42.34 106.62C42.29 106.79 42.26 107.04 42.26 107.37V115.67ZM41.89 115.42H42.01V107.37C42.01 107.01 42.04 106.74 42.1 106.55C42.16 106.34 42.29 106.18 42.48 106.09C42.63 106.01 42.84 105.97 43.12 105.94V105.92C42.83 105.94 42.44 105.95 41.97 105.95C41.44 105.95 41.02 105.94 40.7 105.92V105.94C41.02 105.96 41.26 106.01 41.43 106.09C41.64 106.18 41.78 106.33 41.85 106.54C41.92 106.73 41.95 107 41.95 107.37V113.65L36.93 105.91C36.64 105.93 36.31 105.95 35.93 105.95C35.46 105.95 35.07 105.94 34.78 105.92V105.94C35.06 105.96 35.27 106 35.42 106.05C35.61 106.12 35.74 106.25 35.8 106.44C35.86 106.61 35.89 106.87 35.89 107.23V113.89C35.89 114.25 35.86 114.52 35.8 114.71C35.74 114.92 35.61 115.08 35.42 115.17C35.27 115.25 35.06 115.29 34.78 115.32V115.34C35.07 115.32 35.46 115.31 35.93 115.31C36.46 115.31 36.88 115.32 37.2 115.34V115.32C36.87 115.3 36.63 115.25 36.47 115.17C36.27 115.08 36.13 114.93 36.05 114.72C35.99 114.53 35.95 114.26 35.95 113.88V106.23L41.9 115.42H41.89Z" fill="white"/>
<path d="M115.43 7.25999C115.43 7.79999 115.55 8.16999 115.8 8.36999C116.05 8.56999 116.47 8.66999 117.08 8.66999V9.02999C115.84 8.97999 115.05 8.95999 114.71 8.95999C114.39 8.95999 113.65 8.97999 112.48 9.00999L112.07 9.02999V8.66999C112.68 8.66999 113.13 8.56999 113.43 8.35999C113.73 8.14999 113.89 7.78999 113.89 7.25999V3.10999C113.89 2.55999 113.83 2.15999 113.72 1.89999C113.61 1.63999 113.41 1.46999 113.15 1.38999C112.88 1.29999 112.47 1.25999 111.91 1.25999V0.879995C112.74 0.859995 113.43 0.779995 113.98 0.659995C114.52 0.539995 115.01 0.319995 115.45 0.00999451V7.26999L115.43 7.25999Z" fill="white"/>
<path d="M121.78 7.25999C121.78 7.79999 121.9 8.16999 122.15 8.36999C122.4 8.56999 122.82 8.66999 123.43 8.66999V9.02999C122.19 8.97999 121.4 8.95999 121.06 8.95999C120.74 8.95999 120 8.97999 118.83 9.00999L118.42 9.02999V8.66999C119.03 8.66999 119.48 8.56999 119.78 8.35999C120.08 8.14999 120.24 7.78999 120.24 7.25999V3.10999C120.24 2.55999 120.18 2.15999 120.07 1.89999C119.96 1.63999 119.76 1.46999 119.5 1.38999C119.23 1.29999 118.82 1.25999 118.26 1.25999V0.879995C119.09 0.859995 119.78 0.779995 120.33 0.659995C120.87 0.539995 121.36 0.319995 121.8 0.00999451V7.26999L121.78 7.25999Z" fill="white"/>
<path d="M135.44 4.90999H129.24V3.90999H135.44V4.90999Z" fill="white"/>
<path d="M145.23 7.25999C145.23 7.79999 145.35 8.16999 145.6 8.36999C145.85 8.56999 146.27 8.66999 146.88 8.66999V9.02999C145.64 8.97999 144.86 8.95999 144.51 8.95999C144.19 8.95999 143.45 8.97999 142.28 9.00999L141.87 9.02999V8.66999C142.48 8.66999 142.93 8.56999 143.23 8.35999C143.53 8.14999 143.69 7.78999 143.69 7.25999V3.10999C143.69 2.55999 143.63 2.15999 143.52 1.89999C143.41 1.63999 143.21 1.46999 142.94 1.38999C142.67 1.30999 142.26 1.25999 141.7 1.25999V0.879995C142.53 0.859995 143.22 0.779995 143.77 0.659995C144.31 0.539995 144.8 0.319995 145.24 0.00999451V7.26999L145.23 7.25999Z" fill="white"/>
<path d="M151.58 7.25999C151.58 7.79999 151.7 8.16999 151.95 8.36999C152.2 8.56999 152.62 8.66999 153.23 8.66999V9.02999C151.99 8.97999 151.21 8.95999 150.86 8.95999C150.54 8.95999 149.8 8.97999 148.63 9.00999L148.22 9.02999V8.66999C148.83 8.66999 149.28 8.56999 149.58 8.35999C149.88 8.14999 150.04 7.78999 150.04 7.25999V3.10999C150.04 2.55999 149.98 2.15999 149.87 1.89999C149.76 1.63999 149.56 1.46999 149.29 1.38999C149.02 1.30999 148.61 1.25999 148.05 1.25999V0.879995C148.88 0.859995 149.57 0.779995 150.12 0.659995C150.66 0.539995 151.15 0.319995 151.59 0.00999451V7.26999L151.58 7.25999Z" fill="white"/>
</g>
<defs>
<clipPath id="clip0_0_3">
<rect width="274.76" height="238.5" fill="white"/>
</clipPath>
</defs>
</svg>
